<svg width="87" height="120" viewBox="0 0 87 120" fill="none" xmlns="http://www.w3.org/2000/svg">
    <g id="words" transform="translate(6, 105)" fill="white">
        <path
            d="M6.4128 4.47619C6.34085 4.39625 6.27691 4.31631 6.22096 4.23638C6.165 4.15644 6.10903 4.0765 6.05307 3.99657C5.86922 3.75676 5.66537 3.56093 5.44155 3.40505C5.21773 3.25318 4.94198 3.18922 4.61824 3.2132C4.27851 3.24118 3.98275 3.33311 3.71896 3.49298C3.45917 3.65285 3.22335 3.84869 3.01152 4.07251C2.81568 4.28833 2.6878 4.52015 2.63185 4.77594C2.57589 5.03174 2.57188 5.27554 2.61985 5.51934C2.66781 5.75914 2.75971 5.97897 2.8956 6.1828C3.0275 6.38264 3.19536 6.54252 3.3912 6.66242C3.58704 6.77033 3.80286 6.85027 4.03468 6.90223C4.26649 6.95419 4.49032 7.01413 4.69816 7.08208C5.28968 7.26993 5.84926 7.49775 6.37684 7.76554C6.90441 8.03332 7.36803 8.40101 7.75971 8.86864C7.95555 9.10844 8.11144 9.36823 8.22335 9.652C8.33526 9.93178 8.37921 10.2315 8.35123 10.5553C8.35123 11.2907 8.23933 11.9022 8.01151 12.3898C7.78769 12.8774 7.49591 13.2691 7.14419 13.5609C6.79247 13.8566 6.40081 14.0684 5.97316 14.2043C5.5415 14.3362 5.12984 14.4202 4.72616 14.4561C4.32648 14.4881 3.95477 14.4881 3.61504 14.4561C3.27532 14.4242 3.03152 14.3842 2.87565 14.3442C2.42401 14.2643 1.96435 14.1164 1.49272 13.9046C1.0211 13.6927 0.621428 13.365 0.297688 12.9214C0.26971 12.8934 0.245753 12.8614 0.221772 12.8215C0.201788 12.7815 0.177782 12.7495 0.145808 12.7215C0.11783 12.6536 0.0858599 12.5896 0.0498888 12.5217C0.0139177 12.4537 0.00990921 12.4098 0.0378867 12.3818C0.0658643 12.3418 0.113873 12.3099 0.185815 12.2899C0.257757 12.2699 0.325665 12.2539 0.397608 12.2379C0.565473 12.2099 0.733334 12.2019 0.893206 12.2059C1.05308 12.2139 1.21297 12.2059 1.36885 12.174C1.58068 12.146 1.66461 12.0261 1.62065 11.8143C1.59267 11.6664 1.56466 11.5225 1.53668 11.3826C1.50871 11.2427 1.48074 11.0988 1.45277 10.951V10.891C1.45277 10.8231 1.48474 10.7791 1.54868 10.7511C1.61263 10.7231 1.6646 10.7311 1.70857 10.7711V10.7911C1.90441 10.9629 2.09628 11.1468 2.28013 11.3307C2.46398 11.5185 2.65982 11.6864 2.87165 11.8302C3.26733 12.126 3.69097 12.2699 4.1506 12.2619C4.60623 12.2539 5.02188 12.0581 5.38559 11.6704C5.58144 11.4825 5.69338 11.2307 5.72536 10.907C5.75334 10.5193 5.6454 10.1676 5.39759 9.85584C5.14979 9.54009 4.82207 9.33227 4.4144 9.22435C3.68299 9.05249 3.06748 8.82867 2.56388 8.55289C2.06429 8.27711 1.65659 7.97736 1.33684 7.64963C1.0211 7.32189 0.781319 6.98616 0.61745 6.63844C0.453582 6.29072 0.341682 5.95499 0.277733 5.62726C0.213785 5.29952 0.193787 4.99577 0.213771 4.716C0.233755 4.43622 0.265725 4.20041 0.30969 4.01256C0.40961 3.70481 0.529523 3.40904 0.669411 3.12127C0.809298 2.83351 0.993149 2.56973 1.21697 2.32992C1.49674 2.03416 1.8205 1.79435 2.18021 1.60651C2.53992 1.41866 2.92361 1.27078 3.33129 1.16686C4.13464 0.95503 4.94197 0.994993 5.76132 1.28676C6.57666 1.58252 7.20414 2.11409 7.63979 2.88947C7.69574 2.9694 7.71172 3.04134 7.68375 3.10928C7.65577 3.17723 7.58386 3.2212 7.47195 3.24917C7.33207 3.27715 7.22012 3.28914 7.13219 3.28914C6.89238 3.31712 6.7445 3.36108 6.68855 3.42103C6.6326 3.48098 6.58865 3.62487 6.56067 3.85269C6.54469 3.9606 6.53671 4.05652 6.52872 4.14445C6.52072 4.23238 6.5127 4.3283 6.49671 4.43622C6.46873 4.44821 6.43276 4.4642 6.39279 4.47619H6.4128Z"
        />
        <path
            d="M15.5218 0.947266H17.9718C18.1677 0.959256 18.2956 1.00323 18.3515 1.07917C18.4075 1.15111 18.4354 1.28301 18.4354 1.47085C18.4354 1.88652 18.4554 2.30617 18.4994 2.73382C18.5114 2.94965 18.4234 3.06156 18.2236 3.07355C17.7719 3.10153 17.3204 3.12151 16.8727 3.1335C16.4211 3.14549 15.9694 3.16548 15.5218 3.19346C15.3379 3.20545 15.23 3.22943 15.194 3.2654C15.1581 3.29738 15.1501 3.40129 15.1621 3.57715C15.246 5.37969 15.3219 7.03035 15.3939 8.52914C15.4218 9.17262 15.4538 9.80412 15.4898 10.4356C15.5258 11.0631 15.5538 11.6466 15.5738 12.1902C15.5937 12.7298 15.6177 13.2014 15.6377 13.6051C15.6577 14.0047 15.6697 14.2885 15.6697 14.4484C15.6697 14.5683 15.6457 14.6642 15.5937 14.7281C15.5457 14.7961 15.4418 14.8361 15.286 14.848C15.0022 14.86 14.7144 14.876 14.4187 14.9C14.1229 14.92 13.8351 14.944 13.5514 14.972C13.3275 14.9839 13.2076 14.884 13.1916 14.6722C13.1637 13.4012 13.1317 12.1382 13.0957 10.8753C13.0597 9.61228 13.0278 8.3413 12.9998 7.05833C12.9718 6.45882 12.9479 5.8673 12.9239 5.28377C12.9039 4.70423 12.8799 4.11271 12.8479 3.5092C12.8479 3.3893 12.8119 3.30937 12.744 3.2694C12.6721 3.22943 12.5881 3.20145 12.4922 3.18946C12.0965 3.16148 11.7088 3.13751 11.3291 3.11752C10.9494 3.09754 10.5697 3.07355 10.19 3.04557C9.90627 3.01759 9.7384 2.97363 9.68244 2.91368C9.62649 2.85373 9.61051 2.68986 9.63849 2.42208C9.68245 2.08635 9.69444 1.7866 9.68244 1.51881C9.66646 1.37093 9.69447 1.27101 9.76641 1.21906C9.83835 1.1671 9.93427 1.13113 10.0622 1.11914C10.1461 1.10715 10.23 1.09914 10.314 1.09914H10.5658L15.5098 0.979247V0.959255L15.5218 0.947266Z"
        />
        <path
            d="M28.6537 1.72672C28.6537 1.47493 28.7096 1.28308 28.8215 1.15519C28.9334 1.02729 29.1293 0.971339 29.413 0.98333C29.6528 0.99532 29.8927 0.99532 30.1325 0.98333C30.3723 0.971339 30.6121 0.95535 30.8519 0.943359C31.2316 0.943359 31.4234 1.13121 31.4234 1.50291C31.4234 2.85381 31.4434 4.20072 31.4874 5.54364C31.5313 6.88655 31.4674 8.24146 31.2955 9.60436C31.1836 10.6075 30.8918 11.4908 30.4202 12.2622C29.9486 13.0296 29.2692 13.6691 28.3819 14.1767C28.3099 14.2166 28.242 14.2526 28.17 14.2886C28.0981 14.3206 28.0302 14.3445 27.9582 14.3605C27.5226 14.4684 27.031 14.5204 26.4914 14.5204C25.9518 14.5204 25.4123 14.4485 24.8847 14.3086C24.3571 14.1687 23.8575 13.9449 23.3859 13.6371C22.9143 13.3294 22.5226 12.9217 22.2149 12.4141C21.8471 11.8146 21.5713 11.2031 21.3795 10.5796C21.1876 9.95608 21.0877 9.3006 21.0717 8.60517C21.0717 7.44211 21.0638 6.29104 21.0518 5.14796C21.0358 4.00488 21.0238 2.85381 21.0078 1.69075C21.0078 1.33104 21.1917 1.1352 21.5554 1.11122C21.8072 1.08324 22.063 1.07126 22.3148 1.07126C22.5666 1.07126 22.8223 1.06326 23.0741 1.05127C23.4418 1.03928 23.6217 1.21913 23.6217 1.59083C23.6217 1.85862 23.6137 2.30226 23.6017 2.92576C23.5857 3.54526 23.5857 4.24069 23.6017 5.00008C23.6137 5.76347 23.6497 6.55084 23.7056 7.36618C23.7616 8.18152 23.8695 8.92492 24.0334 9.60037C24.1932 10.2758 24.4211 10.8314 24.7088 11.275C24.9966 11.7147 25.3683 11.9385 25.8199 11.9385C26.3955 12.0064 26.8671 11.8386 27.2348 11.4389C27.6025 11.0392 27.8903 10.5036 28.1021 9.83618C28.3139 9.16872 28.4618 8.42132 28.5458 7.60198C28.6297 6.77865 28.6817 5.97929 28.7056 5.19592C28.7256 4.41255 28.7216 3.70913 28.6936 3.08164C28.6657 2.45414 28.6497 2.0065 28.6497 1.73871L28.6537 1.72672Z"
        />
        <path
            d="M41.3503 2.19081C42.5454 2.87426 43.4406 3.62564 44.0321 4.45697C44.6237 5.2843 44.9874 6.12763 45.1193 6.98293C45.2512 7.83824 45.1992 8.68157 44.9594 9.5089C44.7196 10.3362 44.3599 11.0996 43.8803 11.7951C43.4007 12.4905 42.8411 13.09 42.2016 13.5896C41.5621 14.0892 40.9146 14.4409 40.2672 14.6408C39.9154 14.7726 39.5557 14.8686 39.188 14.9205C38.8203 14.9725 38.4566 15.0005 38.0889 15.0005C37.7212 15.0005 37.3575 14.9885 36.9898 14.9685C36.6221 14.9485 36.2584 14.9365 35.8907 14.9365C35.7348 14.9485 35.6029 14.9365 35.491 14.8966C35.3791 14.8566 35.3071 14.7647 35.2792 14.6168C35.2632 14.4849 35.2512 14.2091 35.2352 13.7934C35.2192 13.3778 35.2032 12.8742 35.1833 12.2787C35.1633 11.6831 35.1393 11.0277 35.1073 10.3043C35.0793 9.58084 35.0554 8.84943 35.0314 8.09804C35.0114 7.35064 34.9874 6.61524 34.9555 5.89182C34.9275 5.16841 34.9035 4.51294 34.8835 3.91742C34.8635 3.3219 34.8395 2.81431 34.8195 2.39465C34.7995 1.97499 34.7796 1.69121 34.7676 1.54333C34.7236 1.14366 34.9275 0.947809 35.3791 0.963796C35.451 0.963796 35.6029 0.963804 35.8427 0.971797C36.0825 0.979791 36.3703 0.991771 36.71 1.01176C37.0497 1.03174 37.4215 1.06771 37.8291 1.12366C38.2368 1.17562 38.6485 1.24756 39.0641 1.33549C39.4798 1.42342 39.8835 1.53533 40.2792 1.67522C40.6748 1.81511 41.0266 1.98697 41.3343 2.18681L41.3503 2.19081ZM37.953 10.1604C37.953 10.4681 37.953 10.7799 37.941 11.0916C37.9331 11.4074 37.9411 11.7151 37.953 12.0229C37.969 12.3306 38.0809 12.5345 38.2848 12.6344C38.4926 12.7343 38.7324 12.7143 39.0082 12.5784C39.2679 12.5185 39.5877 12.3266 39.9634 12.0029C40.3391 11.6791 40.6908 11.2755 41.0226 10.7839C41.3503 10.2923 41.6181 9.73671 41.8179 9.11721C42.0177 8.49771 42.0737 7.86222 41.9898 7.21874C41.9059 6.57526 41.6341 5.93578 41.1744 5.2963C40.7148 4.66081 39.9914 4.08127 39.0122 3.5577C38.6604 3.32588 38.3647 3.26594 38.1249 3.37385C37.8851 3.48176 37.7612 3.73356 37.7452 4.13323C37.7452 4.22516 37.7452 4.37705 37.7572 4.59287C37.7652 4.8087 37.7732 5.06449 37.7812 5.36425C37.7892 5.664 37.7971 5.98774 37.8051 6.34345C37.8131 6.69517 37.8251 7.05089 37.8411 7.4026C37.8731 8.24592 37.909 9.16518 37.957 10.1644L37.953 10.1604Z"
        />
        <path
            d="M49.5915 0.359375C49.9672 0.375362 50.2869 0.515256 50.5467 0.779043C50.8064 1.04283 50.9384 1.35457 50.9384 1.71029C50.9224 2.10197 50.7785 2.43371 50.5067 2.70549C50.2309 2.97727 49.8912 3.10516 49.4875 3.08918C49.1118 3.07319 48.7921 2.9373 48.5323 2.68151C48.2725 2.42572 48.1406 2.10197 48.1406 1.71029C48.1566 1.33459 48.3045 1.01885 48.5843 0.755064C48.868 0.491277 49.2038 0.359375 49.5915 0.359375ZM48.5203 3.91251C48.86 4.15232 49.2157 4.39212 49.5994 4.63593L50.5707 3.77262C50.6266 3.72066 50.6906 3.70068 50.7625 3.72066C50.8344 3.74065 50.8824 3.78462 50.9104 3.85256C50.9224 4.45208 50.9344 5.05558 50.9424 5.6551C50.9504 6.25461 50.9663 6.85813 50.9943 7.45765C51.0502 8.60872 51.0982 9.7518 51.1302 10.8949C51.1662 12.038 51.2101 13.185 51.2661 14.3321C51.2781 14.5719 51.2301 14.7358 51.1182 14.8237C51.0063 14.9116 50.8025 14.9596 50.5067 14.9756H49.0479C48.7641 14.9756 48.6242 14.8557 48.6242 14.6159C48.5803 13.4248 48.5363 12.2458 48.4883 11.0667C48.4404 9.89168 48.4004 8.70863 48.3724 7.5176C48.3564 7.07795 48.3564 6.63832 48.3604 6.20267C48.3684 5.76702 48.3724 5.33137 48.3724 4.88773C48.3564 4.73984 48.3444 4.59196 48.3285 4.44808C48.3125 4.3002 48.3005 4.15231 48.2845 4.00843C48.2685 3.95647 48.2925 3.91651 48.3484 3.89652C48.4044 3.87654 48.4603 3.88053 48.5163 3.90851L48.5203 3.91251Z"
        />
        <path
            d="M64.095 6.64008C64.095 7.23959 64.039 7.88707 63.9271 8.57451C63.8152 9.26196 63.6393 9.96139 63.3995 10.6688C63.1757 11.3123 62.852 11.8798 62.4283 12.3834C62.0047 12.887 61.4971 13.3427 60.9055 13.7583C60.4819 14.0541 60.0263 14.21 59.5307 14.2299C59.039 14.2499 58.5434 14.218 58.0518 14.138C57.1086 13.9901 56.3652 13.6704 55.8216 13.1748C55.2781 12.6792 54.8464 12.0797 54.5227 11.3723C54.087 10.397 53.8672 9.41384 53.8672 8.42663C53.8672 7.43943 53.9671 6.44024 54.1629 5.44104C54.2629 4.97342 54.4107 4.52978 54.6066 4.10612C54.8024 3.68646 55.0782 3.28279 55.4299 2.8951C55.7097 2.57536 56.0654 2.31157 56.4971 2.10374C56.9247 1.8959 57.3923 1.74802 57.8919 1.6521C58.3915 1.56017 58.9111 1.52021 59.4467 1.54019C59.9823 1.56017 60.4938 1.6481 60.9894 1.79998C61.481 1.95186 61.9367 2.17568 62.3524 2.46344C62.768 2.75121 63.1078 3.10692 63.3756 3.53458C63.5434 3.80236 63.6793 4.03817 63.7752 4.246C63.8752 4.45383 63.9471 4.66567 63.995 4.8775C64.043 5.09332 64.075 5.33712 64.091 5.6089C64.1029 5.88468 64.1029 6.22841 64.091 6.64008H64.095ZM61.517 6.50019V5.6169C61.517 5.36511 61.4491 5.1173 61.3172 4.8735C61.1813 4.63369 61.0054 4.41786 60.7896 4.23401C60.5698 4.04616 60.326 3.89829 60.0502 3.79438C59.7744 3.68646 59.4987 3.6425 59.2149 3.65449C58.6793 3.68246 58.2397 3.82634 57.8959 4.08613C57.5522 4.34592 57.2605 4.66966 57.0207 5.05735C56.653 5.67285 56.4251 6.29635 56.3332 6.93183C56.2413 7.56732 56.2373 8.21081 56.3212 8.86628C56.3652 9.25397 56.4491 9.64165 56.573 10.0293C56.7009 10.417 56.8528 10.7927 57.0367 11.1524C57.1486 11.4082 57.3164 11.6081 57.5323 11.7519C57.7521 11.8998 57.9879 11.9957 58.2397 12.0437C58.4915 12.0917 58.7593 12.0797 59.0311 12.0117C59.3068 11.9438 59.5546 11.8239 59.7825 11.652C59.8944 11.5601 60.0022 11.4562 60.0982 11.3403C60.1981 11.2284 60.29 11.1085 60.374 10.9886C60.6258 10.6408 60.8256 10.2851 60.9655 9.91742C61.1054 9.54972 61.2133 9.17402 61.2813 8.79433C61.3532 8.41464 61.4051 8.03095 61.4411 7.65126C61.4771 7.27157 61.5011 6.88787 61.513 6.50019H61.517Z"
        />
        <path
            d="M72.2175 4.47619C72.1455 4.39625 72.0816 4.31631 72.0256 4.23638C71.9697 4.15644 71.9137 4.0765 71.8578 3.99657C71.6739 3.75676 71.4701 3.56093 71.2462 3.40505C71.0224 3.25318 70.7467 3.18922 70.4229 3.2132C70.0832 3.24118 69.7874 3.33311 69.5237 3.49298C69.2639 3.65285 69.028 3.84869 68.8162 4.07251C68.6204 4.28833 68.4924 4.52015 68.4365 4.77594C68.3805 5.03174 68.3766 5.27554 68.4245 5.51934C68.4725 5.75914 68.5644 5.97897 68.7003 6.1828C68.8322 6.38264 69 6.54252 69.1959 6.66242C69.3917 6.77033 69.6075 6.85027 69.8394 6.90223C70.0712 6.95419 70.295 7.01413 70.5028 7.08208C71.0944 7.26993 71.6539 7.49775 72.1815 7.76554C72.7091 8.03332 73.1727 8.40101 73.5644 8.86864C73.7602 9.10844 73.9161 9.36823 74.028 9.652C74.1399 9.93178 74.1839 10.2315 74.1559 10.5553C74.1559 11.2907 74.044 11.9022 73.8162 12.3898C73.5924 12.8774 73.3006 13.2691 72.9489 13.5609C72.5972 13.8566 72.2055 14.0684 71.7778 14.2043C71.3461 14.3362 70.9345 14.4202 70.5308 14.4561C70.1311 14.4881 69.7595 14.4881 69.4197 14.4561C69.08 14.4242 68.8362 14.3842 68.6803 14.3442C68.2286 14.2643 67.769 14.1164 67.2974 13.9046C66.8258 13.6927 66.4261 13.365 66.1024 12.9214C66.0744 12.8934 66.0504 12.8614 66.0265 12.8215C66.0065 12.7815 65.9825 12.7495 65.9505 12.7215C65.9225 12.6536 65.8905 12.5896 65.8546 12.5217C65.8186 12.4537 65.8146 12.4098 65.8426 12.3818C65.8706 12.3418 65.9185 12.3099 65.9905 12.2899C66.0624 12.2699 66.1304 12.2539 66.2023 12.2379C66.3702 12.2099 66.538 12.2019 66.6979 12.2059C66.8578 12.2139 67.0177 12.2059 67.1735 12.174C67.3854 12.146 67.4693 12.0261 67.4253 11.8143C67.3974 11.6664 67.3693 11.5225 67.3414 11.3826C67.3134 11.2427 67.2854 11.0988 67.2575 10.951V10.891C67.2575 10.8231 67.2894 10.7791 67.3534 10.7511C67.4173 10.7231 67.4693 10.7311 67.5133 10.7711V10.7911C67.7091 10.9629 67.9009 11.1468 68.0848 11.3307C68.2686 11.5185 68.4645 11.6864 68.6763 11.8302C69.072 12.126 69.4957 12.2699 69.9553 12.2619C70.4109 12.2539 70.8266 12.0581 71.1903 11.6704C71.3861 11.4825 71.498 11.2307 71.53 10.907C71.558 10.5193 71.4501 10.1676 71.2023 9.85584C70.9545 9.54009 70.6268 9.33227 70.2191 9.22435C69.4877 9.05249 68.8722 8.82867 68.3686 8.55289C67.869 8.27711 67.4613 7.97736 67.1415 7.64963C66.8258 7.32189 66.586 6.98616 66.4221 6.63844C66.2583 6.29072 66.1463 5.95499 66.0824 5.62726C66.0184 5.29952 65.9985 4.99577 66.0185 4.716C66.0384 4.43622 66.0704 4.20041 66.1144 4.01256C66.2143 3.70481 66.3342 3.40904 66.4741 3.12127C66.614 2.83351 66.7978 2.56973 67.0217 2.32992C67.3014 2.03416 67.6251 1.79435 67.9848 1.60651C68.3446 1.41866 68.7283 1.27078 69.1359 1.16686C69.9393 0.95503 70.7467 0.994993 71.566 1.28676C72.3813 1.58252 73.0088 2.11409 73.4445 2.88947C73.5004 2.9694 73.5164 3.04134 73.4884 3.10928C73.4605 3.17723 73.3885 3.2212 73.2766 3.24917C73.1367 3.27715 73.0248 3.28914 72.9369 3.28914C72.6971 3.31712 72.5492 3.36108 72.4932 3.42103C72.4373 3.48098 72.3933 3.62487 72.3654 3.85269C72.3494 3.9606 72.3413 4.05652 72.3334 4.14445C72.3254 4.23238 72.3174 4.3283 72.3014 4.43622C72.2734 4.44821 72.2374 4.4642 72.1975 4.47619H72.2175Z"
        />
    </g>
    <g id="bord" transform="translate(0, 0)">
        <path
            d="M0 0L37.2621 3.75697L40.4195 11.115L44.0846 4.44841L86.2108 8.74894L77.198 100.946H9.91206L5.52359 56.3465L14.6682 52.1059L4.58035 46.6943L0 0Z"
            fill="url(#paint0_linear_629_814)" />
        <defs>
            <linearGradient id="paint0_linear_629_814" x1="43.1054" y1="0" x2="43.1054" y2="0"
                gradientUnits="userSpaceOnUse">
                <stop stop-color="#FF6D00" />
                <stop offset="1" stop-color="#FF4100" />
            </linearGradient>
        </defs>
    </g>
    <g id="body" transform="translate(20.94, 19.01)">
        <path
            d="M43.4327 9.25235C43.3888 9.07649 43.3648 8.89663 43.3408 8.71678C43.1929 7.48977 42.3336 5.79114 41.2185 4.99179C40.5071 4.46821 39.8756 3.8567 39.2081 3.28517C39.0322 3.10531 38.7725 3.13329 38.5447 3.14528C37.3416 3.22921 36.1666 2.8735 35.0155 2.56175C35.3672 2.28597 35.7029 1.97423 35.9148 1.57455C34.7357 1.30277 33.5527 1.71843 32.3896 1.86631C31.7541 1.8823 31.1266 1.73442 30.4991 1.6385C30.7309 1.09893 30.9707 0.563364 31.1666 0.0078125C30.3872 0.223638 29.6638 0.603332 28.9004 0.867119C28.0131 1.17087 27.1698 1.6385 26.2265 1.74641C24.8317 1.96623 23.4408 1.60253 22.0459 1.65049C21.1786 1.65049 20.3353 1.90228 19.468 1.93026C18.9604 1.96223 18.4528 1.95824 17.9492 1.97023C17.4656 2.09413 16.994 2.26999 16.5263 2.43785C16.1626 2.55775 15.7909 2.69364 15.4033 2.67366C14.3161 2.60172 13.273 2.24201 12.1978 2.08613C12.3217 2.46183 12.5136 2.80555 12.7614 3.10931C11.8821 3.02538 11.0547 2.72162 10.2554 2.36191C10.3273 2.81754 10.4672 3.26518 10.679 3.67685C10.0435 3.88868 9.43606 4.19643 8.7686 4.29235C8.39689 4.34831 8.01718 4.30035 7.64548 4.33232C7.25379 4.54415 6.97003 4.89986 6.65428 5.20362C5.69905 6.17084 5.17549 7.4498 4.57597 8.64884C4.1643 9.45618 3.99639 10.3515 3.83252 11.2308C3.51678 12.8934 2.86534 14.4561 2.32578 16.0509C2.042 16.9501 1.48243 17.7175 1.00682 18.5209C1.00682 18.5209 1.00681 18.5249 1.00281 18.5289C0.767004 18.8926 1.21867 19.3162 1.57838 19.0724C2.06199 18.7447 2.5416 18.409 2.92529 17.9613C3.30899 17.5536 3.69267 17.146 4.06437 16.7263C3.59275 18.5928 3.35693 20.5113 3.15709 22.4217C3.04118 23.4089 3.12111 24.3961 3.24501 25.3793C3.28897 26.6103 3.74459 27.7734 3.83252 29.0004C3.95642 30.4872 4.02039 32.022 3.55277 33.4608C3.36492 34.1762 3.02518 34.8317 2.74541 35.5111C2.6335 35.7829 2.88532 36.0587 3.16509 35.9788C3.81657 35.7909 4.40007 35.3753 4.88368 34.9036C4.88368 35.7589 5.09955 36.6063 5.02361 37.4656C4.93168 38.5847 5.15547 39.9076 4.7398 40.9627C4.52797 41.5063 4.29216 42.5495 4.2402 43.125C4.21223 43.4208 4.52398 43.6366 4.79176 43.5047C5.42725 43.2009 6.1027 42.0818 6.42644 41.826C6.49438 42.5654 6.76218 45.639 6.93804 46.3584C7.3617 47.9691 7.48162 49.6397 7.81336 51.2704C8.22503 53.3807 8.30493 55.531 8.52475 57.6653C8.59269 58.8963 8.48479 60.1233 8.43283 61.3543C8.25697 62.6213 8.31296 63.9042 8.32096 65.1792C8.40489 66.9458 8.66865 68.7123 8.54475 70.4829C8.43684 71.4621 8.18507 72.5013 8.57276 73.4525C8.91248 74.2279 9.34011 74.9673 9.83571 75.6587C10.9588 74.7075 11.7582 73.4365 12.4057 72.1296C12.6734 72.821 13.0611 73.4685 13.5847 73.9961C13.9924 74.4037 14.4 74.8074 14.7877 75.2311C15.4352 74.7155 16.0787 74.1799 16.6103 73.5404C16.982 73.0049 17.3377 72.4613 17.7254 71.9377C18.7645 72.7091 19.7158 73.6484 20.9548 74.104C21.1906 73.5644 21.4744 73.0328 21.5823 72.4493C21.7501 71.4741 21.958 70.4869 21.8621 69.4917C21.7901 68.8282 21.6902 68.1648 21.6342 67.4973C21.5463 66.5181 21.6582 65.5309 21.5983 64.5517C21.5383 62.5373 21.0307 49.0002 20.9548 47.3096C20.9028 46.2625 20.4991 40.8948 20.3792 38.7805C21.6342 38.6526 26.4224 38.6926 27.6694 37.8932C27.0659 36.9899 26.1586 36.3864 25.2953 35.7629C25.6111 35.3473 25.9668 34.9676 26.2945 34.5639C26.918 33.7885 27.7174 33.161 28.2329 32.3057C28.3209 32.1818 28.3089 32.022 28.2169 31.9061C27.5774 30.9548 26.4943 30.4312 25.8109 29.516C25.7509 29.3921 25.591 29.2602 25.663 29.1163C26.2305 28.1371 27.1538 27.4377 27.7933 26.5144C27.1458 26.2346 26.4584 26.0428 25.7509 25.9948C24.2601 25.9349 20.0355 26.3545 19.42 26.3465C19.2401 24.7678 19.2681 23.7726 19.1402 22.1899C18.9484 20.0436 18.4048 17.9413 18.225 15.7951C18.141 14.628 18.0291 13.4689 17.8812 12.3099C18.9684 12.2819 20.0355 12.0581 21.1027 11.8662C21.8421 13.5369 22.6295 15.2315 23.9004 16.5704C24.0923 14.8918 24.38 13.2131 24.9516 11.6184C25.3633 11.6304 31.0187 11.2347 32.0259 11.1988C32.3976 11.2228 32.8772 11.1268 33.133 11.4626C33.4567 11.9062 33.6766 12.4178 33.9404 12.9014C34.2761 13.5249 34.444 14.2243 34.8436 14.8159C35.611 13.8406 36.0107 12.6376 36.3184 11.4506C37.5175 11.2867 38.7285 11.4346 39.9075 11.6624C40.7429 11.8103 41.5742 12.0261 42.4255 12.0461C42.5335 11.5145 42.5774 10.971 42.6014 10.4314C42.9371 10.6832 43.2769 10.931 43.6286 11.1588C43.6725 10.5153 43.5966 9.87185 43.4407 9.24835L43.4327 9.25235ZM16.3145 9.36026C16.2226 9.34028 16.1387 9.30431 16.1107 9.23236C16.0867 9.16842 16.1107 9.10447 16.1627 9.05651C16.4904 8.78872 16.8101 8.51294 17.1579 8.26115C17.7694 7.81351 17.7134 7.56171 16.958 7.24996C16.2066 6.93822 14.524 6.07491 14.444 5.971C14.2082 5.66325 14.2961 5.46741 14.7957 5.41545C16.3105 5.24758 19.0084 6.26276 19.6958 7.28594C19.7118 7.30992 19.7198 7.34189 19.7358 7.37387C20.0475 8.01735 18.173 9.78792 16.3185 9.35627L16.3145 9.36026ZM32.3296 4.51617C32.2697 4.63208 30.7949 5.69922 30.1274 6.10289C29.452 6.50657 29.44 6.76236 30.1035 7.12607C30.4792 7.3299 30.8309 7.56171 31.1906 7.78553C31.2545 7.8255 31.2825 7.88545 31.2705 7.9494C31.2545 8.02534 31.1866 8.0813 31.0947 8.10128C29.2122 8.5649 27.5495 7.34189 27.4775 6.57851C27.4775 6.54254 27.4896 6.51056 27.5015 6.48658C27.9892 5.38747 30.4112 4.04455 31.898 4.01258C32.3856 4.00459 32.5055 4.18444 32.3296 4.51617Z"
            fill="white" />
    </g>
    <g id="tail" transform="translate(10.86, 72.21)">
        <path
            d="M16.5948 11.6136C16.5788 10.9022 16.4949 10.1908 16.5469 9.47937C16.6668 7.69281 16.5748 5.15086 15.9473 5.87028C15.5437 6.3459 14.9801 6.64166 14.4925 7.02135C13.2335 7.94461 11.6908 8.39224 10.156 8.59208C9.56048 8.696 8.96494 8.52014 8.38941 8.38025C7.24632 8.13645 6.15521 7.64885 5.19998 6.97739C4.64842 6.61368 4.32467 6.02615 3.94098 5.50657C3.74913 5.24678 3.57328 4.979 3.44538 4.68324C3.38543 4.55135 3.34947 4.40746 3.36146 4.26358C3.40543 3.60811 4.19278 3.93584 4.24474 3.94383C5.08007 4.14367 5.9234 4.55135 6.79869 4.33952C6.27511 4.20762 2.72997 1.90548 2.06651 0.214844C1.21919 1.30996 0.883446 2.71683 0.855469 4.07973C0.875453 5.27077 1.29914 6.41384 1.93063 7.41703C2.97379 9.12365 4.33667 10.6784 6.05129 11.7415C6.86664 12.2691 7.81391 12.5169 8.72917 12.8167C9.99615 13.1044 11.3031 13.1164 12.59 13.2443C13.5133 13.4122 14.4565 13.3602 15.3878 13.2883C16.1672 13.2683 16.0393 13.5561 16.6388 13.0485C16.7187 12.5689 16.6068 12.0853 16.5948 11.6056V11.6136Z"
            fill="white" />
    </g>
    <g id="f-letter" transform="translate(48.87, 32.71)">
        <path
            d="M29.7959 4.57591C29.1844 4.34409 28.529 4.19222 28.0054 3.77655C28.3611 3.25697 28.9446 2.98519 29.4482 2.64147C30.1916 2.14187 31.003 1.7422 31.7424 1.23461C30.959 1.04676 30.1517 0.89488 29.3443 0.978812C28.5649 0.998796 27.7816 1.15067 27.0022 1.05075C26.2468 0.946838 24.0206 1.15067 23.2652 1.09072C19.2245 0.846918 8.58498 1.05875 8.70488 1.1227C8.36915 1.81414 7.54586 2.69343 6.89838 3.13707C6.41077 3.31692 5.26768 1.46242 4.93994 0.914862C3.92476 0.727014 4.64815 0.723018 3.61298 0.707031C3.44511 1.01478 3.35319 1.35451 3.31322 1.70223C3.16934 2.88127 3.04148 4.06432 2.90159 5.24337C2.77769 7.74934 2.7297 10.2593 2.77766 12.7693C2.81763 13.8484 3.04544 14.9076 3.11338 15.9867C3.2133 18.2529 3.2693 20.531 3.10543 22.7972C3.09344 23.013 3.08141 23.2288 3.06942 23.4487C2.90955 24.1081 2.68576 24.7476 2.35403 25.3471C1.95035 26.1984 1.32282 27.4894 0.867188 28.3127C1.5946 28.4207 2.31006 27.8331 2.94555 27.3455C2.94555 28.1569 2.95353 28.9682 2.98951 29.7796C2.98151 31.2264 3.11738 37.865 3.06942 39.7835C3.04544 42.5652 3.07343 45.347 3.08542 48.1287C3.16936 51.2462 3.11339 54.3637 3.2253 57.4812C3.28925 58.7801 3.32522 60.0871 3.57302 61.3701C3.76487 61.9216 4.08462 62.4252 4.43234 62.8888C5.33162 62.2773 6.10299 61.5059 6.97429 60.8585C7.2141 60.6866 7.41395 60.4708 7.58581 60.235C8.27326 60.9824 8.77687 61.9056 9.60021 62.5211C10.2757 62.1214 10.9631 61.7138 11.5586 61.1942C11.5586 61.1222 11.5586 60.9744 11.5586 60.9024C12.0102 61.2541 12.4819 61.5819 12.9175 61.9536C13.2892 62.2653 13.5291 62.717 13.9447 62.9847C14.3524 63.0247 14.6122 62.653 14.7241 62.3093C15.3556 60.7825 15.2436 59.1039 15.2556 57.4892C15.1637 52.9289 15.3955 48.3725 15.4355 43.8122C15.3836 41.5141 15.3995 39.2159 15.4075 36.9178C15.3675 35.475 15.3076 34.0201 15.4755 32.5813C17.3819 32.7452 25.6912 31.8859 25.6952 31.8539C25.1277 31.1544 22.7896 30.2352 22.0022 30.0354C22.1021 29.7076 26.3507 27.5254 26.079 27.3495C25.3875 26.9498 22.9455 26.1145 21.9743 25.503C23.1213 24.8435 24.5642 23.3248 25.0238 22.9371C24.0926 22.6693 16.9023 22.7013 15.3036 22.6693C14.836 20.4711 15.0438 18.2049 15.0997 15.9747C15.2157 14.1002 15.3875 12.2337 15.4795 10.3592C16.6505 10.3712 17.8176 10.5751 18.9847 10.4272C20.9271 10.3073 24.3284 10.0235 26.2668 9.87163C27.294 9.64382 28.9406 9.21216 29.9398 8.87643C29.752 8.56468 28.1453 7.42161 27.5498 7.01794C28.2372 6.34248 29.0646 5.83889 29.82 5.24737C30.0757 5.09948 30.0877 4.68382 29.7919 4.57591H29.7959Z"
            fill="white" />
    </g>
    <g id="horn-left" transform="translate(16.84, 13.24)">
        <path
            d="M4.24258 2.51431C4.89405 1.55908 5.82532 0.83966 6.80453 0.244141C6.33291 2.5223 6.32493 4.64059 6.26898 6.95472C5.37769 7.25848 4.29456 7.23849 3.46322 7.07063C4.26658 7.79005 5.34569 7.57422 6.29293 7.36639C6.64065 7.69013 7.02035 7.9779 7.44401 8.18972C8.53114 8.76126 9.67023 9.26486 10.6494 10.0202C10.1818 10.6517 9.65425 11.2393 9.20661 11.8907C8.4712 12.9339 7.1003 15.5158 7.25617 16.6789C6.09311 16.499 3.48721 15.4279 3.16746 15.0522C3.9948 14.2568 5.66143 12.858 5.43761 10.4599C5.04993 12.2345 3.79497 13.4455 2.67587 14.6006C2.07235 13.6933 1.42887 12.794 1.02519 11.7708C0.905288 11.4471 0.781374 11.1034 0.86131 10.7557C0.98521 10.0882 1.12909 9.42073 1.35691 8.78125C1.67665 7.86599 1.94045 6.92275 2.37211 6.05145C2.68386 5.41197 2.95161 4.7525 3.24338 4.10103C3.48718 3.52149 3.89086 3.03389 4.24258 2.51431Z"
            fill="white" />
    </g>
    <g id="horn-right" transform="translate(59.69, 11.72)">
        <path
            d="M6.11903 2.58329C5.37962 1.74796 4.40443 1.16843 3.39724 0.716797C4.12066 2.83908 4.63224 4.71757 4.68419 6.8998C5.60745 6.85584 6.59064 7.09964 7.5099 7.23154C6.59863 7.39141 5.59946 7.43537 4.68019 7.46335C4.44438 8.10683 2.21019 10.1132 0.691406 10.6408C1.21499 11.1923 1.98637 11.568 2.48996 12.1396C3.3173 13.0508 4.23253 13.9581 4.65219 15.1452C4.81606 15.5728 4.85605 16.0364 4.92799 16.4881C5.89122 16.1763 6.82246 15.7447 7.66178 15.1731C8.05746 14.9013 8.28927 14.8174 8.54906 14.4217C7.66177 13.2267 6.84245 11.6799 6.37083 10.2531C7.18617 11.5321 7.85362 12.9789 9.05666 13.9501C9.52828 13.0109 10.0319 12.0716 10.2957 11.0485C10.3716 10.7247 10.4516 10.381 10.3317 10.0573C10.1318 9.43376 9.91598 8.81426 9.62022 8.22673C9.20455 7.38741 8.84085 6.52011 8.32526 5.73674C7.94956 5.16121 7.61382 4.56169 7.2621 3.97417C6.95835 3.44659 6.51471 3.02693 6.11903 2.5753V2.58329Z"
            fill="white" />
    </g>
</svg>