<svg width="396" height="126" viewBox="0 0 396 126" fill="none" xmlns="http://www.w3.org/2000/svg">
<path d="M0.566243 63L15 77.4338L29.4338 63L15 48.5662L0.566243 63ZM15 65.5H15.0001V60.5H15V65.5Z" fill="white"/>
<rect x="15.0001" width="381" height="126" rx="25" fill="white"/>
<path d="M73.2481 50.92C71.9041 50.92 70.6561 50.72 69.5041 50.32C68.3521 49.92 67.3121 49.392 66.3841 48.736C65.4721 48.064 64.6721 47.344 63.9841 46.576L66.3841 42.76C66.5921 43.304 66.9361 43.824 67.4161 44.32C67.9121 44.816 68.4881 45.256 69.1441 45.64C69.8001 46.024 70.4881 46.328 71.2081 46.552C71.9441 46.776 72.6641 46.888 73.3681 46.888C74.4241 46.888 75.2641 46.72 75.8881 46.384C76.5121 46.032 76.8241 45.568 76.8241 44.992C76.8241 44.544 76.6801 44.176 76.3921 43.888C76.1201 43.584 75.8001 43.344 75.4321 43.168C75.0801 42.976 74.7761 42.808 74.5201 42.664C74.3281 42.568 73.9761 42.424 73.4641 42.232C72.9681 42.024 72.4081 41.8 71.7841 41.56C71.1601 41.32 70.5681 41.096 70.0081 40.888C69.4481 40.664 69.0081 40.48 68.6881 40.336C66.3041 39.264 65.1121 37.608 65.1121 35.368C65.1121 34.648 65.2481 33.944 65.5201 33.256C65.8081 32.552 66.2401 31.912 66.8161 31.336C67.3921 30.76 68.1281 30.304 69.0241 29.968C69.9201 29.632 70.9921 29.464 72.2401 29.464C73.6001 29.464 74.8081 29.616 75.8641 29.92C76.9201 30.208 77.8481 30.576 78.6481 31.024C79.4641 31.472 80.1601 31.944 80.7361 32.44L78.5281 36.136C76.7521 34.376 74.7441 33.496 72.5041 33.496C71.5601 33.496 70.8401 33.6 70.3441 33.808C69.8641 34 69.5361 34.224 69.3601 34.48C69.2001 34.72 69.1201 34.92 69.1201 35.08C69.1201 35.352 69.2161 35.624 69.4081 35.896C69.6161 36.168 70.0721 36.456 70.7761 36.76C71.0641 36.888 71.4481 37.048 71.9281 37.24C72.4241 37.416 72.9681 37.616 73.5601 37.84C74.1681 38.064 74.7601 38.304 75.3361 38.56C75.9281 38.8 76.4641 39.048 76.9441 39.304C77.5201 39.624 78.1121 40.016 78.7201 40.48C79.3281 40.944 79.8401 41.52 80.2561 42.208C80.6881 42.88 80.9041 43.704 80.9041 44.68C80.9041 45.272 80.7921 45.928 80.5681 46.648C80.3441 47.352 79.9521 48.032 79.3921 48.688C78.8321 49.344 78.0561 49.88 77.0641 50.296C76.0721 50.712 74.8001 50.92 73.2481 50.92ZM90.3376 50.776C90.2256 49.384 90.1456 48.032 90.0976 46.72C90.0656 45.408 90.0496 44.168 90.0496 43C90.0496 41.064 90.0896 39.328 90.1696 37.792C90.2496 36.24 90.3296 34.904 90.4096 33.784C89.0336 33.864 87.6976 33.968 86.4016 34.096C85.1056 34.224 83.9056 34.392 82.8016 34.6L82.8496 30.592C84.7216 30.256 86.6416 30.016 88.6096 29.872C90.5776 29.712 92.5456 29.632 94.5136 29.632C95.9216 29.632 97.2656 29.664 98.5456 29.728C99.8416 29.792 101.082 29.888 102.266 30.016L102.242 34.168C101.122 33.992 99.9056 33.872 98.5936 33.808C97.2976 33.728 95.9696 33.688 94.6096 33.688C94.5296 34.776 94.4576 35.992 94.3936 37.336C94.3296 38.664 94.2976 40.088 94.2976 41.608C94.2976 42.968 94.3296 44.4 94.3936 45.904C94.4736 47.408 94.5696 48.992 94.6816 50.656L90.3376 50.776ZM112.629 50.776C111.413 50.776 110.317 50.688 109.341 50.512C108.381 50.352 107.565 50.032 106.893 49.552C106.221 49.088 105.709 48.4 105.357 47.488C105.005 46.576 104.829 45.384 104.829 43.912C104.829 42.84 104.885 41.728 104.997 40.576C105.109 39.424 105.245 38.312 105.405 37.24C105.581 36.152 105.749 35.184 105.909 34.336C105.589 34.384 105.317 34.432 105.093 34.48L104.637 30.664C105.421 30.52 106.325 30.4 107.349 30.304C108.389 30.192 109.485 30.096 110.637 30.016C111.805 29.936 112.965 29.88 114.117 29.848C115.269 29.8 116.349 29.776 117.357 29.776C118.157 29.776 118.885 29.792 119.541 29.824C120.213 29.84 120.765 29.872 121.197 29.92L121.005 33.928C120.573 33.848 119.989 33.792 119.253 33.76C118.517 33.712 117.693 33.688 116.781 33.688C115.709 33.688 114.565 33.712 113.349 33.76C112.133 33.808 110.973 33.864 109.869 33.928C109.741 34.6 109.629 35.288 109.533 35.992C109.437 36.696 109.349 37.392 109.269 38.08C110.197 37.952 111.213 37.856 112.317 37.792C113.437 37.712 114.549 37.656 115.653 37.624C116.757 37.576 117.749 37.552 118.629 37.552C119.141 37.552 119.597 37.56 119.997 37.576C120.397 37.576 120.725 37.592 120.981 37.624L120.885 41.56C120.677 41.544 120.389 41.536 120.021 41.536C119.669 41.52 119.253 41.512 118.773 41.512C118.085 41.512 117.317 41.528 116.469 41.56C115.621 41.576 114.741 41.608 113.829 41.656C112.933 41.688 112.061 41.736 111.213 41.8C110.365 41.848 109.597 41.912 108.909 41.992C108.845 42.888 108.813 43.608 108.813 44.152C108.813 44.936 108.917 45.512 109.125 45.88C109.333 46.248 109.677 46.488 110.157 46.6C110.653 46.696 111.301 46.744 112.101 46.744C113.525 46.744 115.053 46.624 116.685 46.384C118.333 46.144 119.957 45.768 121.557 45.256L121.821 49.432C119.901 49.96 118.157 50.312 116.589 50.488C115.037 50.68 113.717 50.776 112.629 50.776ZM126.354 50.608C126.338 50.096 126.33 49.576 126.33 49.048C126.33 48.536 126.33 48.024 126.33 47.512C126.33 45.16 126.378 42.88 126.474 40.672C126.57 38.448 126.682 36.328 126.81 34.312C126.17 34.472 125.634 34.624 125.202 34.768L124.266 30.928C125.05 30.688 125.874 30.48 126.738 30.304C127.618 30.112 128.474 29.96 129.306 29.848C130.154 29.72 130.93 29.632 131.634 29.584C132.354 29.52 132.946 29.488 133.41 29.488C133.906 29.488 134.514 29.528 135.234 29.608C135.97 29.688 136.722 29.856 137.49 30.112C138.274 30.352 139.002 30.72 139.674 31.216C140.346 31.712 140.89 32.384 141.306 33.232C141.738 34.064 141.954 35.112 141.954 36.376C141.954 37.688 141.666 38.784 141.09 39.664C140.514 40.528 139.754 41.224 138.81 41.752C137.866 42.264 136.826 42.632 135.69 42.856C134.554 43.08 133.434 43.192 132.33 43.192C131.626 43.192 130.954 43.16 130.314 43.096C130.298 43.864 130.29 44.624 130.29 45.376C130.29 46.4 130.298 47.352 130.314 48.232C130.33 49.096 130.362 49.856 130.41 50.512L126.354 50.608ZM133.29 33.424C132.874 33.424 132.442 33.44 131.994 33.472C131.562 33.504 131.13 33.544 130.698 33.592C130.618 34.44 130.554 35.36 130.506 36.352C130.458 37.344 130.418 38.36 130.386 39.4C130.978 39.448 131.594 39.472 132.234 39.472C136.074 39.472 137.994 38.336 137.994 36.064C137.994 35.168 137.61 34.504 136.842 34.072C136.074 33.64 134.89 33.424 133.29 33.424ZM157.549 50.848C155.837 50.848 154.373 50.568 153.157 50.008C151.941 49.464 150.885 48.832 149.989 48.112L151.885 44.68C152.429 45.256 153.037 45.712 153.709 46.048C154.397 46.368 155.077 46.6 155.749 46.744C156.437 46.872 157.037 46.936 157.549 46.936C158.541 46.936 159.357 46.704 159.997 46.24C160.653 45.76 160.981 45.152 160.981 44.416C160.981 43.888 160.797 43.416 160.429 43C160.077 42.584 159.589 42.264 158.965 42.04C158.341 41.8 157.629 41.68 156.829 41.68H156.493C156.221 41.68 155.941 41.688 155.653 41.704C155.381 41.72 155.109 41.744 154.837 41.776L154.765 40L154.597 37.984C156.549 37.904 158.045 37.608 159.085 37.096C160.125 36.568 160.645 35.872 160.645 35.008C160.645 34.544 160.349 34.16 159.757 33.856C159.181 33.536 158.437 33.376 157.525 33.376C155.861 33.376 154.205 33.976 152.557 35.176L150.589 31.72C151.293 31.208 152.053 30.792 152.869 30.472C153.685 30.136 154.501 29.888 155.317 29.728C156.133 29.568 156.885 29.488 157.573 29.488C158.981 29.488 160.205 29.712 161.245 30.16C162.285 30.592 163.093 31.208 163.669 32.008C164.245 32.808 164.533 33.752 164.533 34.84C164.533 36.088 164.261 37.096 163.717 37.864C163.189 38.632 162.461 39.232 161.533 39.664C162.589 40.112 163.445 40.752 164.101 41.584C164.773 42.416 165.109 43.4 165.109 44.536C165.109 45.512 164.901 46.392 164.485 47.176C164.069 47.944 163.501 48.6 162.781 49.144C162.077 49.704 161.269 50.128 160.357 50.416C159.461 50.704 158.525 50.848 157.549 50.848ZM170.237 35.656C169.629 35.656 169.125 35.52 168.725 35.248C168.325 34.976 168.029 34.632 167.837 34.216C167.645 33.784 167.549 33.336 167.549 32.872C167.549 32.424 167.645 31.992 167.837 31.576C168.045 31.144 168.357 30.792 168.773 30.52C169.205 30.248 169.749 30.112 170.405 30.112C171.301 30.112 171.957 30.384 172.373 30.928C172.789 31.456 172.997 32.064 172.997 32.752C172.997 33.776 172.717 34.52 172.157 34.984C171.613 35.432 170.973 35.656 170.237 35.656ZM170.237 49.672C169.629 49.672 169.125 49.536 168.725 49.264C168.325 48.992 168.029 48.648 167.837 48.232C167.645 47.8 167.549 47.344 167.549 46.864C167.549 46.416 167.645 45.984 167.837 45.568C168.045 45.152 168.357 44.808 168.773 44.536C169.205 44.264 169.749 44.128 170.405 44.128C171.301 44.128 171.957 44.4 172.373 44.944C172.789 45.472 172.997 46.08 172.997 46.768C172.997 47.792 172.717 48.536 172.157 49C171.613 49.448 170.973 49.672 170.237 49.672Z" fill="black"/>
<path d="M65.9121 76.311C65.7675 76.311 65.6461 76.269 65.5481 76.185C65.4548 76.0963 65.4081 75.9797 65.4081 75.835L64.9181 75.45L65.4151 75.114H67.5571C68.0565 75.114 68.4601 75.0323 68.7681 74.869C69.0761 74.701 69.3025 74.4607 69.4471 74.148C69.5918 73.8307 69.6641 73.448 69.6641 73C69.6641 72.5473 69.5848 72.1787 69.4261 71.894C69.2721 71.6047 69.0341 71.3923 68.7121 71.257C68.3948 71.117 67.9888 71.047 67.4941 71.047H65.3731L64.7641 69.822C64.9275 69.822 65.1305 69.822 65.3731 69.822C65.6205 69.822 65.8748 69.822 66.1361 69.822C66.4021 69.822 66.6518 69.822 66.8851 69.822C67.1185 69.822 67.3075 69.822 67.4521 69.822C68.6608 69.822 69.5568 70.0787 70.1401 70.592C70.7235 71.1053 71.0151 71.8847 71.0151 72.93C71.0151 73.3873 70.9498 73.819 70.8191 74.225C70.6931 74.631 70.4925 74.9903 70.2171 75.303C69.9418 75.6157 69.5825 75.863 69.1391 76.045C68.6958 76.2223 68.1568 76.311 67.5221 76.311H65.9121ZM64.1061 80V69.822H65.4151V80H64.1061ZM74.8877 80.154C74.225 80.154 73.6883 79.93 73.2777 79.482C72.867 79.034 72.6617 78.4087 72.6617 77.606V72.356H73.9567V77.34C73.9567 77.872 74.0617 78.271 74.2717 78.537C74.4817 78.803 74.8223 78.936 75.2937 78.936C75.709 78.936 76.0707 78.824 76.3787 78.6C76.6913 78.3713 76.9527 78.0563 77.1627 77.655V72.356H78.4717V80H77.3517L77.2047 77.347L77.3447 77.697C77.2887 78.145 77.1627 78.5557 76.9667 78.929C76.7753 79.2977 76.507 79.594 76.1617 79.818C75.821 80.042 75.3963 80.154 74.8877 80.154ZM84.8362 80.105C84.3509 80.105 83.9332 80.028 83.5832 79.874C83.2379 79.72 82.9719 79.4797 82.7852 79.153C82.6032 78.8217 82.5122 78.3923 82.5122 77.865V74.498C82.5122 74.372 82.5332 74.239 82.5752 74.099C82.6172 73.959 82.6849 73.8353 82.7782 73.728C82.8762 73.6207 83.0045 73.5553 83.1632 73.532L82.5052 72.664L82.5332 72.426L82.8482 69.682H83.8632V77.662C83.8632 78.1567 83.9635 78.4857 84.1642 78.649C84.3695 78.8077 84.7079 78.887 85.1792 78.887C85.5012 78.887 85.7789 78.8683 86.0122 78.831C86.2502 78.7937 86.4602 78.7447 86.6422 78.684C86.8289 78.6233 87.0062 78.558 87.1742 78.488V79.734C86.8942 79.8367 86.5699 79.9253 86.2012 80C85.8372 80.07 85.3822 80.105 84.8362 80.105ZM80.7272 73.532V72.356H86.5232V73.532H80.7272ZM100.68 79.818V74.414C100.68 74.1807 100.722 73.9847 100.806 73.826C100.89 73.6627 101.054 73.5717 101.296 73.553L100.68 73.315L100.631 72.72L101.961 72.363L101.94 79.818H100.68ZM98.1882 80V78.943H104.215V80H98.1882ZM97.9782 73.553V72.363H101.961L101.632 73.553H97.9782ZM101.261 71.019C100.977 71.019 100.734 70.921 100.533 70.725C100.337 70.529 100.239 70.2747 100.239 69.962C100.239 69.6447 100.337 69.388 100.533 69.192C100.734 68.9913 100.977 68.891 101.261 68.891C101.546 68.891 101.786 68.9913 101.982 69.192C102.183 69.388 102.283 69.6447 102.283 69.962C102.283 70.2747 102.183 70.529 101.982 70.725C101.782 70.921 101.541 71.019 101.261 71.019ZM106.317 80V72.349H107.444L107.577 75.121L107.444 74.652C107.546 73.8633 107.812 73.259 108.242 72.839C108.671 72.4143 109.233 72.202 109.929 72.202C110.638 72.202 111.179 72.4307 111.553 72.888C111.931 73.3453 112.12 74.0033 112.12 74.862V80H110.818V75.289C110.818 74.6357 110.71 74.162 110.496 73.868C110.286 73.5693 109.943 73.42 109.467 73.42C109.07 73.42 108.711 73.5343 108.389 73.763C108.067 73.987 107.81 74.2997 107.619 74.701V80H106.317ZM126.809 80.105C126.324 80.105 125.906 80.028 125.556 79.874C125.211 79.72 124.945 79.4797 124.758 79.153C124.576 78.8217 124.485 78.3923 124.485 77.865V74.498C124.485 74.372 124.506 74.239 124.548 74.099C124.59 73.959 124.658 73.8353 124.751 73.728C124.849 73.6207 124.977 73.5553 125.136 73.532L124.478 72.664L124.506 72.426L124.821 69.682H125.836V77.662C125.836 78.1567 125.936 78.4857 126.137 78.649C126.342 78.8077 126.681 78.887 127.152 78.887C127.474 78.887 127.752 78.8683 127.985 78.831C128.223 78.7937 128.433 78.7447 128.615 78.684C128.802 78.6233 128.979 78.558 129.147 78.488V79.734C128.867 79.8367 128.543 79.9253 128.174 80C127.81 80.07 127.355 80.105 126.809 80.105ZM122.7 73.532V72.356H128.496V73.532H122.7ZM131.444 80V69.108H132.739V72.363L132.585 74.617L132.69 75.156L132.536 74.659C132.592 74.2343 132.714 73.8353 132.9 73.462C133.092 73.0887 133.362 72.7853 133.712 72.552C134.067 72.3187 134.517 72.202 135.063 72.202C135.787 72.202 136.337 72.4213 136.715 72.86C137.093 73.294 137.282 73.9427 137.282 74.806V80H135.987V75.233C135.987 74.6077 135.887 74.1503 135.686 73.861C135.49 73.567 135.136 73.42 134.622 73.42C134.198 73.42 133.831 73.5273 133.523 73.742C133.215 73.952 132.954 74.2693 132.739 74.694V80H131.444ZM142.989 80.105C142.359 80.105 141.785 79.9533 141.267 79.65C140.754 79.3467 140.343 78.901 140.035 78.313C139.732 77.7203 139.58 76.997 139.58 76.143C139.58 75.317 139.722 74.61 140.007 74.022C140.296 73.434 140.691 72.986 141.19 72.678C141.694 72.3653 142.266 72.209 142.905 72.209C143.838 72.209 144.587 72.5193 145.152 73.14C145.717 73.756 145.999 74.6287 145.999 75.758C145.999 75.9073 145.994 76.031 145.985 76.129C145.976 76.227 145.969 76.3297 145.964 76.437H140.854C140.863 77.011 140.968 77.4847 141.169 77.858C141.374 78.2313 141.638 78.5113 141.96 78.698C142.287 78.88 142.637 78.971 143.01 78.971C143.467 78.971 143.829 78.8823 144.095 78.705C144.361 78.5277 144.538 78.236 144.627 77.83H145.852C145.805 78.306 145.656 78.7143 145.404 79.055C145.157 79.391 144.828 79.65 144.417 79.832C144.006 80.014 143.53 80.105 142.989 80.105ZM140.854 75.954C140.891 75.758 140.973 75.6273 141.099 75.562C141.225 75.492 141.395 75.457 141.61 75.457H144.683C144.678 74.7617 144.529 74.2367 144.235 73.882C143.941 73.5227 143.502 73.343 142.919 73.343C142.247 73.343 141.736 73.5763 141.386 74.043C141.041 74.5097 140.863 75.1467 140.854 75.954ZM156.628 80V69.108H157.923V72.363L157.769 74.617L157.874 75.156L157.72 74.659C157.776 74.2343 157.897 73.8353 158.084 73.462C158.275 73.0887 158.546 72.7853 158.896 72.552C159.251 72.3187 159.701 72.202 160.247 72.202C160.97 72.202 161.521 72.4213 161.899 72.86C162.277 73.294 162.466 73.9427 162.466 74.806V80H161.171V75.233C161.171 74.6077 161.071 74.1503 160.87 73.861C160.674 73.567 160.319 73.42 159.806 73.42C159.381 73.42 159.015 73.5273 158.707 73.742C158.399 73.952 158.138 74.2693 157.923 74.694V80H156.628ZM167.836 79.818V74.414C167.836 74.1807 167.878 73.9847 167.962 73.826C168.046 73.6627 168.21 73.5717 168.452 73.553L167.836 73.315L167.787 72.72L169.117 72.363L169.096 79.818H167.836ZM165.344 80V78.943H171.371V80H165.344ZM165.134 73.553V72.363H169.117L168.788 73.553H165.134ZM168.417 71.019C168.133 71.019 167.89 70.921 167.689 70.725C167.493 70.529 167.395 70.2747 167.395 69.962C167.395 69.6447 167.493 69.388 167.689 69.192C167.89 68.9913 168.133 68.891 168.417 68.891C168.702 68.891 168.942 68.9913 169.138 69.192C169.339 69.388 169.439 69.6447 169.439 69.962C169.439 70.2747 169.339 70.529 169.138 70.725C168.938 70.921 168.697 71.019 168.417 71.019ZM176.413 80.119C176.049 80.119 175.69 80.0793 175.335 80C174.98 79.9253 174.654 79.8017 174.355 79.629C174.056 79.4517 173.811 79.2137 173.62 78.915C173.433 78.6163 173.321 78.243 173.284 77.795H174.628C174.675 78.2337 174.873 78.551 175.223 78.747C175.573 78.943 175.974 79.041 176.427 79.041C176.95 79.041 177.365 78.9687 177.673 78.824C177.986 78.6747 178.142 78.3923 178.142 77.977C178.142 77.7297 178.067 77.529 177.918 77.375C177.773 77.221 177.561 77.0927 177.281 76.99C177.006 76.8827 176.67 76.78 176.273 76.682C175.946 76.6027 175.622 76.514 175.3 76.416C174.983 76.3133 174.693 76.1803 174.432 76.017C174.175 75.8537 173.97 75.6367 173.816 75.366C173.662 75.0953 173.585 74.75 173.585 74.33C173.585 73.9147 173.695 73.5483 173.914 73.231C174.138 72.9137 174.46 72.6663 174.88 72.489C175.3 72.3117 175.809 72.223 176.406 72.223C176.887 72.223 177.332 72.2977 177.743 72.447C178.158 72.5917 178.497 72.8273 178.758 73.154C179.024 73.476 179.171 73.9053 179.199 74.442H177.89C177.876 74.218 177.815 74.0197 177.708 73.847C177.601 73.6743 177.44 73.539 177.225 73.441C177.01 73.343 176.735 73.294 176.399 73.294C176.091 73.294 175.82 73.3267 175.587 73.392C175.354 73.4573 175.172 73.5647 175.041 73.714C174.91 73.8633 174.845 74.064 174.845 74.316C174.845 74.5633 174.922 74.7663 175.076 74.925C175.235 75.0837 175.452 75.2143 175.727 75.317C176.002 75.415 176.317 75.5083 176.672 75.597C176.98 75.6717 177.297 75.7603 177.624 75.863C177.951 75.9657 178.252 76.0987 178.527 76.262C178.802 76.4253 179.024 76.6377 179.192 76.899C179.365 77.1557 179.451 77.48 179.451 77.872C179.446 78.544 179.201 79.0877 178.716 79.503C178.235 79.9137 177.468 80.119 176.413 80.119ZM185.571 80.105C185.085 80.105 184.668 80.028 184.318 79.874C183.972 79.72 183.706 79.4797 183.52 79.153C183.338 78.8217 183.247 78.3923 183.247 77.865V74.498C183.247 74.372 183.268 74.239 183.31 74.099C183.352 73.959 183.419 73.8353 183.513 73.728C183.611 73.6207 183.739 73.5553 183.898 73.532L183.24 72.664L183.268 72.426L183.583 69.682H184.598V77.662C184.598 78.1567 184.698 78.4857 184.899 78.649C185.104 78.8077 185.442 78.887 185.914 78.887C186.236 78.887 186.513 78.8683 186.747 78.831C186.985 78.7937 187.195 78.7447 187.377 78.684C187.563 78.6233 187.741 78.558 187.909 78.488V79.734C187.629 79.8367 187.304 79.9253 186.936 80C186.572 80.07 186.117 80.105 185.571 80.105ZM181.462 73.532V72.356H187.258V73.532H181.462ZM193.118 80.105C192.469 80.105 191.893 79.9533 191.389 79.65C190.89 79.342 190.498 78.894 190.213 78.306C189.928 77.7133 189.786 76.99 189.786 76.136C189.786 75.3147 189.933 74.6123 190.227 74.029C190.521 73.441 190.92 72.9907 191.424 72.678C191.928 72.3653 192.493 72.209 193.118 72.209C193.785 72.209 194.369 72.3653 194.868 72.678C195.367 72.9907 195.755 73.441 196.03 74.029C196.31 74.6123 196.45 75.3147 196.45 76.136C196.45 76.9947 196.301 77.7203 196.002 78.313C195.708 78.901 195.309 79.3467 194.805 79.65C194.301 79.9533 193.739 80.105 193.118 80.105ZM193.118 78.957C193.711 78.957 194.191 78.726 194.56 78.264C194.933 77.7973 195.12 77.088 195.12 76.136C195.12 75.2307 194.938 74.5423 194.574 74.071C194.215 73.595 193.729 73.357 193.118 73.357C192.525 73.357 192.042 73.595 191.669 74.071C191.3 74.5423 191.116 75.2307 191.116 76.136C191.116 77.0553 191.3 77.7553 191.669 78.236C192.042 78.7167 192.525 78.957 193.118 78.957ZM198.132 80V78.943H203.459V80H198.132ZM198.055 73.553V72.349H200.295L200.344 73.553H198.055ZM199.63 79.86V74.295C199.63 74.0383 199.672 73.8587 199.756 73.756C199.844 73.6533 199.987 73.5857 200.183 73.553L199.63 73.14V72.349H200.757L200.848 74.4C200.964 73.9613 201.149 73.5787 201.401 73.252C201.653 72.9207 201.949 72.664 202.29 72.482C202.63 72.2953 202.985 72.202 203.354 72.202C203.988 72.202 204.481 72.4377 204.831 72.909C205.181 73.3757 205.344 74.0897 205.321 75.051H204.047C204.037 74.4583 203.937 74.0383 203.746 73.791C203.559 73.5437 203.258 73.42 202.843 73.42C202.469 73.42 202.103 73.5647 201.744 73.854C201.384 74.1387 201.114 74.484 200.932 74.89V78.39C200.932 78.5393 200.897 78.6607 200.827 78.754C200.761 78.8427 200.654 78.9057 200.505 78.943L200.932 79.202V79.86H199.63ZM207.24 83.017V81.792H207.842C208.201 81.792 208.479 81.75 208.675 81.666C208.871 81.582 209.018 81.463 209.116 81.309C209.219 81.155 209.303 80.9753 209.368 80.77C209.443 80.5367 209.506 80.3617 209.557 80.245C209.608 80.1283 209.688 80.0467 209.795 80H209.361L206.582 72.363H208.059L209.116 75.786L210.096 78.677H210.145L211.069 75.786L212.119 72.363H213.582L210.845 80C210.677 80.462 210.516 80.8773 210.362 81.246C210.213 81.6193 210.035 81.9367 209.83 82.198C209.625 82.464 209.363 82.667 209.046 82.807C208.733 82.947 208.332 83.017 207.842 83.017H207.24ZM225.954 80.084C225.236 80.084 224.666 79.8927 224.246 79.51C223.831 79.1227 223.623 78.6023 223.623 77.949C223.623 77.3797 223.808 76.9153 224.176 76.556C224.55 76.192 225.117 75.9377 225.877 75.793C226.171 75.737 226.47 75.6903 226.773 75.653C227.077 75.6157 227.371 75.5853 227.655 75.562C227.94 75.534 228.199 75.5153 228.432 75.506V74.918C228.432 74.344 228.299 73.9333 228.033 73.686C227.772 73.4387 227.364 73.315 226.808 73.315C226.225 73.315 225.784 73.4363 225.485 73.679C225.191 73.917 225.054 74.3277 225.072 74.911H223.854C223.798 74.3697 223.885 73.8983 224.113 73.497C224.347 73.091 224.694 72.776 225.156 72.552C225.623 72.328 226.176 72.216 226.815 72.216C227.758 72.216 228.472 72.4493 228.957 72.916C229.443 73.378 229.685 74.0593 229.685 74.96V80H228.439L228.432 78.341C228.334 78.6817 228.166 78.985 227.928 79.251C227.69 79.5123 227.401 79.7177 227.06 79.867C226.724 80.0117 226.356 80.084 225.954 80.084ZM226.325 79.055C226.638 79.055 226.944 78.9967 227.242 78.88C227.546 78.7587 227.807 78.6023 228.026 78.411C228.246 78.215 228.381 78.005 228.432 77.781V76.297C228.264 76.3063 228.068 76.325 227.844 76.353C227.625 76.3763 227.406 76.4067 227.186 76.444C226.967 76.4767 226.773 76.5117 226.605 76.549C226.008 76.6797 225.59 76.8477 225.352 77.053C225.114 77.2583 224.995 77.5337 224.995 77.879C224.995 78.243 225.11 78.53 225.338 78.74C225.572 78.9453 225.901 79.0503 226.325 79.055ZM232.235 80V72.349H233.362L233.495 75.121L233.362 74.652C233.464 73.8633 233.73 73.259 234.16 72.839C234.589 72.4143 235.151 72.202 235.847 72.202C236.556 72.202 237.097 72.4307 237.471 72.888C237.849 73.3453 238.038 74.0033 238.038 74.862V80H236.736V75.289C236.736 74.6357 236.628 74.162 236.414 73.868C236.204 73.5693 235.861 73.42 235.385 73.42C234.988 73.42 234.629 73.5343 234.307 73.763C233.985 73.987 233.728 74.2997 233.537 74.701V80H232.235ZM243.1 80.084C242.531 80.084 242.027 79.9253 241.588 79.608C241.154 79.2907 240.814 78.8403 240.566 78.257C240.324 77.669 240.202 76.969 240.202 76.157C240.202 75.3497 240.34 74.652 240.615 74.064C240.895 73.4713 241.273 73.0163 241.749 72.699C242.23 72.377 242.771 72.216 243.373 72.216C243.695 72.216 243.989 72.2837 244.255 72.419C244.526 72.5497 244.752 72.7293 244.934 72.958C245.121 73.1867 245.247 73.4503 245.312 73.749L245.718 73.98L245.256 74.505C245.186 74.2437 245.067 74.029 244.899 73.861C244.736 73.6883 244.549 73.56 244.339 73.476C244.134 73.392 243.929 73.35 243.723 73.35C243.075 73.35 242.547 73.595 242.141 74.085C241.74 74.575 241.539 75.2727 241.539 76.178C241.539 76.7333 241.616 77.221 241.77 77.641C241.924 78.061 242.146 78.39 242.435 78.628C242.729 78.8613 243.084 78.978 243.499 78.978C243.733 78.978 243.966 78.929 244.199 78.831C244.433 78.7283 244.64 78.5743 244.822 78.369C245.009 78.1637 245.142 77.907 245.221 77.599L245.291 78.012L245.228 78.271C245.177 78.621 245.046 78.9337 244.836 79.209C244.626 79.4797 244.37 79.6943 244.066 79.853C243.763 80.007 243.441 80.084 243.1 80.084ZM245.235 80L245.221 77.599V69.108H246.516L246.523 80H245.235ZM256.627 80L256.655 72.356H257.691L257.803 74.652L257.705 74.729C257.771 73.9357 257.957 73.3173 258.265 72.874C258.578 72.426 259.01 72.202 259.56 72.202C259.859 72.202 260.109 72.2697 260.309 72.405C260.51 72.5357 260.659 72.7573 260.757 73.07C260.86 73.3827 260.911 73.8143 260.911 74.365L260.918 74.421V80H259.77V74.645C259.77 74.1877 259.712 73.8703 259.595 73.693C259.479 73.511 259.306 73.42 259.077 73.42C258.877 73.42 258.662 73.497 258.433 73.651C258.209 73.8003 258.004 74.1037 257.817 74.561L257.789 80H256.627ZM262.864 80V74.596C262.864 74.19 262.806 73.8937 262.689 73.707C262.577 73.5157 262.393 73.42 262.136 73.42C261.852 73.42 261.611 73.5203 261.415 73.721C261.219 73.917 261.054 74.197 260.918 74.561L260.764 75.002L260.827 74.638C260.916 73.8447 261.117 73.2403 261.429 72.825C261.742 72.4097 262.157 72.202 262.675 72.202C263.123 72.202 263.459 72.3747 263.683 72.72C263.912 73.0653 264.026 73.6323 264.026 74.421V80H262.864ZM267.927 80.084C267.208 80.084 266.639 79.8927 266.219 79.51C265.804 79.1227 265.596 78.6023 265.596 77.949C265.596 77.3797 265.78 76.9153 266.149 76.556C266.522 76.192 267.089 75.9377 267.85 75.793C268.144 75.737 268.443 75.6903 268.746 75.653C269.049 75.6157 269.343 75.5853 269.628 75.562C269.913 75.534 270.172 75.5153 270.405 75.506V74.918C270.405 74.344 270.272 73.9333 270.006 73.686C269.745 73.4387 269.336 73.315 268.781 73.315C268.198 73.315 267.757 73.4363 267.458 73.679C267.164 73.917 267.026 74.3277 267.045 74.911H265.827C265.771 74.3697 265.857 73.8983 266.086 73.497C266.319 73.091 266.667 72.776 267.129 72.552C267.596 72.328 268.149 72.216 268.788 72.216C269.731 72.216 270.445 72.4493 270.93 72.916C271.415 73.378 271.658 74.0593 271.658 74.96V80H270.412L270.405 78.341C270.307 78.6817 270.139 78.985 269.901 79.251C269.663 79.5123 269.374 79.7177 269.033 79.867C268.697 80.0117 268.328 80.084 267.927 80.084ZM268.298 79.055C268.611 79.055 268.916 78.9967 269.215 78.88C269.518 78.7587 269.78 78.6023 269.999 78.411C270.218 78.215 270.354 78.005 270.405 77.781V76.297C270.237 76.3063 270.041 76.325 269.817 76.353C269.598 76.3763 269.378 76.4067 269.159 76.444C268.94 76.4767 268.746 76.5117 268.578 76.549C267.981 76.6797 267.563 76.8477 267.325 77.053C267.087 77.2583 266.968 77.5337 266.968 77.879C266.968 78.243 267.082 78.53 267.311 78.74C267.544 78.9453 267.873 79.0503 268.298 79.055ZM273.682 80V78.943H279.009V80H273.682ZM273.605 73.553V72.349H275.845L275.894 73.553H273.605ZM275.18 79.86V74.295C275.18 74.0383 275.222 73.8587 275.306 73.756C275.395 73.6533 275.537 73.5857 275.733 73.553L275.18 73.14V72.349H276.307L276.398 74.4C276.515 73.9613 276.699 73.5787 276.951 73.252C277.203 72.9207 277.5 72.664 277.84 72.482C278.181 72.2953 278.536 72.202 278.904 72.202C279.539 72.202 280.031 72.4377 280.381 72.909C280.731 73.3757 280.895 74.0897 280.871 75.051H279.597C279.588 74.4583 279.488 74.0383 279.296 73.791C279.11 73.5437 278.809 73.42 278.393 73.42C278.02 73.42 277.654 73.5647 277.294 73.854C276.935 74.1387 276.664 74.484 276.482 74.89V78.39C276.482 78.5393 276.447 78.6607 276.377 78.754C276.312 78.8427 276.205 78.9057 276.055 78.943L276.482 79.202V79.86H275.18ZM287.488 80L283.967 75.835L285.192 75.646L286.039 76.444L289.217 80H287.488ZM282.77 80V69.108H284.072V74.792L284.002 75.814V75.87L284.072 76.934V80H282.77ZM285.199 76.052L283.967 75.835L285.612 73.98L287.103 72.363H288.909L286.116 75.156L285.199 76.052ZM302.247 80.105C301.598 80.105 301.022 79.9533 300.518 79.65C300.019 79.342 299.627 78.894 299.342 78.306C299.057 77.7133 298.915 76.99 298.915 76.136C298.915 75.3147 299.062 74.6123 299.356 74.029C299.65 73.441 300.049 72.9907 300.553 72.678C301.057 72.3653 301.622 72.209 302.247 72.209C302.914 72.209 303.498 72.3653 303.997 72.678C304.496 72.9907 304.884 73.441 305.159 74.029C305.439 74.6123 305.579 75.3147 305.579 76.136C305.579 76.9947 305.43 77.7203 305.131 78.313C304.837 78.901 304.438 79.3467 303.934 79.65C303.43 79.9533 302.868 80.105 302.247 80.105ZM302.247 78.957C302.84 78.957 303.32 78.726 303.689 78.264C304.062 77.7973 304.249 77.088 304.249 76.136C304.249 75.2307 304.067 74.5423 303.703 74.071C303.344 73.595 302.858 73.357 302.247 73.357C301.654 73.357 301.171 73.595 300.798 74.071C300.429 74.5423 300.245 75.2307 300.245 76.136C300.245 77.0553 300.429 77.7553 300.798 78.236C301.171 78.7167 301.654 78.957 302.247 78.957ZM309.935 80.154C309.272 80.154 308.735 79.93 308.325 79.482C307.914 79.034 307.709 78.4087 307.709 77.606V72.356H309.004V77.34C309.004 77.872 309.109 78.271 309.319 78.537C309.529 78.803 309.869 78.936 310.341 78.936C310.756 78.936 311.118 78.824 311.426 78.6C311.738 78.3713 312 78.0563 312.21 77.655V72.356H313.519V80H312.399L312.252 77.347L312.392 77.697C312.336 78.145 312.21 78.5557 312.014 78.929C311.822 79.2977 311.554 79.594 311.209 79.818C310.868 80.042 310.443 80.154 309.935 80.154ZM315.655 80V78.943H320.982V80H315.655ZM315.578 73.553V72.349H317.818L317.867 73.553H315.578ZM317.153 79.86V74.295C317.153 74.0383 317.195 73.8587 317.279 73.756C317.368 73.6533 317.51 73.5857 317.706 73.553L317.153 73.14V72.349H318.28L318.371 74.4C318.488 73.9613 318.672 73.5787 318.924 73.252C319.176 72.9207 319.472 72.664 319.813 72.482C320.154 72.2953 320.508 72.202 320.877 72.202C321.512 72.202 322.004 72.4377 322.354 72.909C322.704 73.3757 322.867 74.0897 322.844 75.051H321.57C321.561 74.4583 321.46 74.0383 321.269 73.791C321.082 73.5437 320.781 73.42 320.366 73.42C319.993 73.42 319.626 73.5647 319.267 73.854C318.908 74.1387 318.637 74.484 318.455 74.89V78.39C318.455 78.5393 318.42 78.6607 318.35 78.754C318.285 78.8427 318.177 78.9057 318.028 78.943L318.455 79.202V79.86H317.153ZM66.4581 98.084C65.7395 98.084 65.1701 97.8927 64.7501 97.51C64.3348 97.1227 64.1271 96.6023 64.1271 95.949C64.1271 95.3797 64.3115 94.9153 64.6801 94.556C65.0535 94.192 65.6205 93.9377 66.3811 93.793C66.6751 93.737 66.9738 93.6903 67.2771 93.653C67.5805 93.6157 67.8745 93.5853 68.1591 93.562C68.4438 93.534 68.7028 93.5153 68.9361 93.506V92.918C68.9361 92.344 68.8031 91.9333 68.5371 91.686C68.2758 91.4387 67.8675 91.315 67.3121 91.315C66.7288 91.315 66.2878 91.4363 65.9891 91.679C65.6951 91.917 65.5575 92.3277 65.5761 92.911H64.3581C64.3021 92.3697 64.3885 91.8983 64.6171 91.497C64.8505 91.091 65.1981 90.776 65.6601 90.552C66.1268 90.328 66.6798 90.216 67.3191 90.216C68.2618 90.216 68.9758 90.4493 69.4611 90.916C69.9465 91.378 70.1891 92.0593 70.1891 92.96V98H68.9431L68.9361 96.341C68.8381 96.6817 68.6701 96.985 68.4321 97.251C68.1941 97.5123 67.9048 97.7177 67.5641 97.867C67.2281 98.0117 66.8595 98.084 66.4581 98.084ZM66.8291 97.055C67.1418 97.055 67.4475 96.9967 67.7461 96.88C68.0495 96.7587 68.3108 96.6023 68.5301 96.411C68.7495 96.215 68.8848 96.005 68.9361 95.781V94.297C68.7681 94.3063 68.5721 94.325 68.3481 94.353C68.1288 94.3763 67.9095 94.4067 67.6901 94.444C67.4708 94.4767 67.2771 94.5117 67.1091 94.549C66.5118 94.6797 66.0941 94.8477 65.8561 95.053C65.6181 95.2583 65.4991 95.5337 65.4991 95.879C65.4991 96.243 65.6135 96.53 65.8421 96.74C66.0755 96.9453 66.4045 97.0503 66.8291 97.055ZM75.8257 98.126C75.135 98.126 74.5353 97.965 74.0267 97.643C73.518 97.3163 73.1213 96.859 72.8367 96.271C72.5567 95.6783 72.4167 94.9807 72.4167 94.178C72.4167 93.3333 72.559 92.617 72.8437 92.029C73.133 91.4363 73.5297 90.986 74.0337 90.678C74.5423 90.37 75.121 90.216 75.7697 90.216C76.409 90.216 76.9503 90.3513 77.3937 90.622C77.837 90.8927 78.1753 91.252 78.4087 91.7C78.642 92.148 78.7633 92.638 78.7727 93.17H77.4777C77.4683 92.946 77.4287 92.7267 77.3587 92.512C77.2933 92.2927 77.1907 92.0967 77.0507 91.924C76.9153 91.7467 76.7403 91.6067 76.5257 91.504C76.311 91.4013 76.0497 91.35 75.7417 91.35C75.065 91.3453 74.561 91.5927 74.2297 92.092C73.8983 92.5867 73.7327 93.268 73.7327 94.136C73.7327 95.06 73.9123 95.767 74.2717 96.257C74.6357 96.7423 75.1677 96.985 75.8677 96.985C76.213 96.985 76.5 96.9337 76.7287 96.831C76.9573 96.7237 77.1323 96.5837 77.2537 96.411C77.375 96.2337 77.4473 96.0423 77.4707 95.837H78.7377C78.7237 96.2757 78.5883 96.6677 78.3317 97.013C78.0797 97.3583 77.7367 97.6313 77.3027 97.832C76.8733 98.028 76.381 98.126 75.8257 98.126ZM84.2202 98.126C83.5295 98.126 82.9299 97.965 82.4212 97.643C81.9125 97.3163 81.5159 96.859 81.2312 96.271C80.9512 95.6783 80.8112 94.9807 80.8112 94.178C80.8112 93.3333 80.9535 92.617 81.2382 92.029C81.5275 91.4363 81.9242 90.986 82.4282 90.678C82.9369 90.37 83.5155 90.216 84.1642 90.216C84.8035 90.216 85.3449 90.3513 85.7882 90.622C86.2315 90.8927 86.5699 91.252 86.8032 91.7C87.0365 92.148 87.1579 92.638 87.1672 93.17H85.8722C85.8629 92.946 85.8232 92.7267 85.7532 92.512C85.6879 92.2927 85.5852 92.0967 85.4452 91.924C85.3099 91.7467 85.1349 91.6067 84.9202 91.504C84.7055 91.4013 84.4442 91.35 84.1362 91.35C83.4595 91.3453 82.9555 91.5927 82.6242 92.092C82.2929 92.5867 82.1272 93.268 82.1272 94.136C82.1272 95.06 82.3069 95.767 82.6662 96.257C83.0302 96.7423 83.5622 96.985 84.2622 96.985C84.6075 96.985 84.8945 96.9337 85.1232 96.831C85.3519 96.7237 85.5269 96.5837 85.6482 96.411C85.7695 96.2337 85.8419 96.0423 85.8652 95.837H87.1322C87.1182 96.2757 86.9829 96.6677 86.7262 97.013C86.4742 97.3583 86.1312 97.6313 85.6972 97.832C85.2679 98.028 84.7755 98.126 84.2202 98.126ZM92.3837 98.105C91.735 98.105 91.1587 97.9533 90.6547 97.65C90.1554 97.342 89.7634 96.894 89.4787 96.306C89.194 95.7133 89.0517 94.99 89.0517 94.136C89.0517 93.3147 89.1987 92.6123 89.4927 92.029C89.7867 91.441 90.1857 90.9907 90.6897 90.678C91.1937 90.3653 91.7584 90.209 92.3837 90.209C93.051 90.209 93.6344 90.3653 94.1337 90.678C94.633 90.9907 95.0204 91.441 95.2957 92.029C95.5757 92.6123 95.7157 93.3147 95.7157 94.136C95.7157 94.9947 95.5664 95.7203 95.2677 96.313C94.9737 96.901 94.5747 97.3467 94.0707 97.65C93.5667 97.9533 93.0044 98.105 92.3837 98.105ZM92.3837 96.957C92.9764 96.957 93.457 96.726 93.8257 96.264C94.199 95.7973 94.3857 95.088 94.3857 94.136C94.3857 93.2307 94.2037 92.5423 93.8397 92.071C93.4804 91.595 92.995 91.357 92.3837 91.357C91.791 91.357 91.308 91.595 90.9347 92.071C90.566 92.5423 90.3817 93.2307 90.3817 94.136C90.3817 95.0553 90.566 95.7553 90.9347 96.236C91.308 96.7167 91.791 96.957 92.3837 96.957ZM100.071 98.154C99.4086 98.154 98.8719 97.93 98.4612 97.482C98.0506 97.034 97.8452 96.4087 97.8452 95.606V90.356H99.1402V95.34C99.1402 95.872 99.2452 96.271 99.4552 96.537C99.6652 96.803 100.006 96.936 100.477 96.936C100.893 96.936 101.254 96.824 101.562 96.6C101.875 96.3713 102.136 96.0563 102.346 95.655V90.356H103.655V98H102.535L102.388 95.347L102.528 95.697C102.472 96.145 102.346 96.5557 102.15 96.929C101.959 97.2977 101.691 97.594 101.345 97.818C101.005 98.042 100.58 98.154 100.071 98.154ZM106.317 98V90.349H107.444L107.577 93.121L107.444 92.652C107.546 91.8633 107.812 91.259 108.242 90.839C108.671 90.4143 109.233 90.202 109.929 90.202C110.638 90.202 111.179 90.4307 111.553 90.888C111.931 91.3453 112.12 92.0033 112.12 92.862V98H110.818V93.289C110.818 92.6357 110.71 92.162 110.496 91.868C110.286 91.5693 109.943 91.42 109.467 91.42C109.07 91.42 108.711 91.5343 108.389 91.763C108.067 91.987 107.81 92.2997 107.619 92.701V98H106.317ZM118.414 98.105C117.929 98.105 117.511 98.028 117.161 97.874C116.816 97.72 116.55 97.4797 116.363 97.153C116.181 96.8217 116.09 96.3923 116.09 95.865V92.498C116.09 92.372 116.111 92.239 116.153 92.099C116.195 91.959 116.263 91.8353 116.356 91.728C116.454 91.6207 116.583 91.5553 116.741 91.532L116.083 90.664L116.111 90.426L116.426 87.682H117.441V95.662C117.441 96.1567 117.542 96.4857 117.742 96.649C117.948 96.8077 118.286 96.887 118.757 96.887C119.079 96.887 119.357 96.8683 119.59 96.831C119.828 96.7937 120.038 96.7447 120.22 96.684C120.407 96.6233 120.584 96.558 120.752 96.488V97.734C120.472 97.8367 120.148 97.9253 119.779 98C119.415 98.07 118.96 98.105 118.414 98.105ZM114.305 91.532V90.356H120.101V91.532H114.305ZM126.046 98.119C125.682 98.119 125.323 98.0793 124.968 98C124.613 97.9253 124.287 97.8017 123.988 97.629C123.689 97.4517 123.444 97.2137 123.253 96.915C123.066 96.6163 122.954 96.243 122.917 95.795H124.261C124.308 96.2337 124.506 96.551 124.856 96.747C125.206 96.943 125.607 97.041 126.06 97.041C126.583 97.041 126.998 96.9687 127.306 96.824C127.619 96.6747 127.775 96.3923 127.775 95.977C127.775 95.7297 127.7 95.529 127.551 95.375C127.406 95.221 127.194 95.0927 126.914 94.99C126.639 94.8827 126.303 94.78 125.906 94.682C125.579 94.6027 125.255 94.514 124.933 94.416C124.616 94.3133 124.326 94.1803 124.065 94.017C123.808 93.8537 123.603 93.6367 123.449 93.366C123.295 93.0953 123.218 92.75 123.218 92.33C123.218 91.9147 123.328 91.5483 123.547 91.231C123.771 90.9137 124.093 90.6663 124.513 90.489C124.933 90.3117 125.442 90.223 126.039 90.223C126.52 90.223 126.965 90.2977 127.376 90.447C127.791 90.5917 128.13 90.8273 128.391 91.154C128.657 91.476 128.804 91.9053 128.832 92.442H127.523C127.509 92.218 127.448 92.0197 127.341 91.847C127.234 91.6743 127.073 91.539 126.858 91.441C126.643 91.343 126.368 91.294 126.032 91.294C125.724 91.294 125.453 91.3267 125.22 91.392C124.987 91.4573 124.805 91.5647 124.674 91.714C124.543 91.8633 124.478 92.064 124.478 92.316C124.478 92.5633 124.555 92.7663 124.709 92.925C124.868 93.0837 125.085 93.2143 125.36 93.317C125.635 93.415 125.95 93.5083 126.305 93.597C126.613 93.6717 126.93 93.7603 127.257 93.863C127.584 93.9657 127.885 94.0987 128.16 94.262C128.435 94.4253 128.657 94.6377 128.825 94.899C128.998 95.1557 129.084 95.48 129.084 95.872C129.079 96.544 128.834 97.0877 128.349 97.503C127.868 97.9137 127.101 98.119 126.046 98.119ZM138.565 98L141.862 87.822H143.654L146.937 98H145.565L144.613 94.941L145.362 95.473H140.301L140.791 94.332H145.012L144.592 94.871L143.346 90.818L142.772 88.767H142.73L142.163 90.818L139.944 98H138.565ZM147.764 98V96.943H153.091V98H147.764ZM147.687 91.553V90.349H149.927L149.976 91.553H147.687ZM149.262 97.86V92.295C149.262 92.0383 149.304 91.8587 149.388 91.756C149.477 91.6533 149.619 91.5857 149.815 91.553L149.262 91.14V90.349H150.389L150.48 92.4C150.597 91.9613 150.781 91.5787 151.033 91.252C151.285 90.9207 151.582 90.664 151.922 90.482C152.263 90.2953 152.618 90.202 152.986 90.202C153.621 90.202 154.113 90.4377 154.463 90.909C154.813 91.3757 154.977 92.0897 154.953 93.051H153.679C153.67 92.4583 153.57 92.0383 153.378 91.791C153.192 91.5437 152.891 91.42 152.475 91.42C152.102 91.42 151.736 91.5647 151.376 91.854C151.017 92.1387 150.746 92.484 150.564 92.89V96.39C150.564 96.5393 150.529 96.6607 150.459 96.754C150.394 96.8427 150.287 96.9057 150.137 96.943L150.564 97.202V97.86H149.262ZM159.771 98.126C159.08 98.126 158.481 97.965 157.972 97.643C157.463 97.3163 157.067 96.859 156.782 96.271C156.502 95.6783 156.362 94.9807 156.362 94.178C156.362 93.3333 156.504 92.617 156.789 92.029C157.078 91.4363 157.475 90.986 157.979 90.678C158.488 90.37 159.066 90.216 159.715 90.216C160.354 90.216 160.896 90.3513 161.339 90.622C161.782 90.8927 162.121 91.252 162.354 91.7C162.587 92.148 162.709 92.638 162.718 93.17H161.423C161.414 92.946 161.374 92.7267 161.304 92.512C161.239 92.2927 161.136 92.0967 160.996 91.924C160.861 91.7467 160.686 91.6067 160.471 91.504C160.256 91.4013 159.995 91.35 159.687 91.35C159.01 91.3453 158.506 91.5927 158.175 92.092C157.844 92.5867 157.678 93.268 157.678 94.136C157.678 95.06 157.858 95.767 158.217 96.257C158.581 96.7423 159.113 96.985 159.813 96.985C160.158 96.985 160.445 96.9337 160.674 96.831C160.903 96.7237 161.078 96.5837 161.199 96.411C161.32 96.2337 161.393 96.0423 161.416 95.837H162.683C162.669 96.2757 162.534 96.6677 162.277 97.013C162.025 97.3583 161.682 97.6313 161.248 97.832C160.819 98.028 160.326 98.126 159.771 98.126ZM167.192 98.084C166.474 98.084 165.904 97.8927 165.484 97.51C165.069 97.1227 164.861 96.6023 164.861 95.949C164.861 95.3797 165.046 94.9153 165.414 94.556C165.788 94.192 166.355 93.9377 167.115 93.793C167.409 93.737 167.708 93.6903 168.011 93.653C168.315 93.6157 168.609 93.5853 168.893 93.562C169.178 93.534 169.437 93.5153 169.67 93.506V92.918C169.67 92.344 169.537 91.9333 169.271 91.686C169.01 91.4387 168.602 91.315 168.046 91.315C167.463 91.315 167.022 91.4363 166.723 91.679C166.429 91.917 166.292 92.3277 166.31 92.911H165.092C165.036 92.3697 165.123 91.8983 165.351 91.497C165.585 91.091 165.932 90.776 166.394 90.552C166.861 90.328 167.414 90.216 168.053 90.216C168.996 90.216 169.71 90.4493 170.195 90.916C170.681 91.378 170.923 92.0593 170.923 92.96V98H169.677L169.67 96.341C169.572 96.6817 169.404 96.985 169.166 97.251C168.928 97.5123 168.639 97.7177 168.298 97.867C167.962 98.0117 167.594 98.084 167.192 98.084ZM167.563 97.055C167.876 97.055 168.182 96.9967 168.48 96.88C168.784 96.7587 169.045 96.6023 169.264 96.411C169.484 96.215 169.619 96.005 169.67 95.781V94.297C169.502 94.3063 169.306 94.325 169.082 94.353C168.863 94.3763 168.644 94.4067 168.424 94.444C168.205 94.4767 168.011 94.5117 167.843 94.549C167.246 94.6797 166.828 94.8477 166.59 95.053C166.352 95.2583 166.233 95.5337 166.233 95.879C166.233 96.243 166.348 96.53 166.576 96.74C166.81 96.9453 167.139 97.0503 167.563 97.055ZM173.473 98V90.349H174.6L174.733 93.121L174.6 92.652C174.703 91.8633 174.969 91.259 175.398 90.839C175.827 90.4143 176.39 90.202 177.085 90.202C177.794 90.202 178.336 90.4307 178.709 90.888C179.087 91.3453 179.276 92.0033 179.276 92.862V98H177.974V93.289C177.974 92.6357 177.867 92.162 177.652 91.868C177.442 91.5693 177.099 91.42 176.623 91.42C176.226 91.42 175.867 91.5343 175.545 91.763C175.223 91.987 174.966 92.2997 174.775 92.701V98H173.473ZM184.962 98.105C184.332 98.105 183.758 97.9533 183.24 97.65C182.726 97.3467 182.316 96.901 182.008 96.313C181.704 95.7203 181.553 94.997 181.553 94.143C181.553 93.317 181.695 92.61 181.98 92.022C182.269 91.434 182.663 90.986 183.163 90.678C183.667 90.3653 184.238 90.209 184.878 90.209C185.811 90.209 186.56 90.5193 187.125 91.14C187.689 91.756 187.972 92.6287 187.972 93.758C187.972 93.9073 187.967 94.031 187.958 94.129C187.948 94.227 187.941 94.3297 187.937 94.437H182.827C182.836 95.011 182.941 95.4847 183.142 95.858C183.347 96.2313 183.611 96.5113 183.933 96.698C184.259 96.88 184.609 96.971 184.983 96.971C185.44 96.971 185.802 96.8823 186.068 96.705C186.334 96.5277 186.511 96.236 186.6 95.83H187.825C187.778 96.306 187.629 96.7143 187.377 97.055C187.129 97.391 186.8 97.65 186.39 97.832C185.979 98.014 185.503 98.105 184.962 98.105ZM182.827 93.954C182.864 93.758 182.946 93.6273 183.072 93.562C183.198 93.492 183.368 93.457 183.583 93.457H186.656C186.651 92.7617 186.502 92.2367 186.208 91.882C185.914 91.5227 185.475 91.343 184.892 91.343C184.22 91.343 183.709 91.5763 183.359 92.043C183.013 92.5097 182.836 93.1467 182.827 93.954ZM198.769 98L197.257 87.822H198.636L199.35 94.241C199.41 94.6797 199.469 95.1043 199.525 95.515C199.581 95.921 199.632 96.3737 199.679 96.873H199.728L200.12 94.157L200.771 90.272H202.262L202.913 94.157L203.284 96.873H203.34C203.386 96.3737 203.44 95.921 203.501 95.515C203.561 95.1043 203.62 94.6797 203.676 94.241L204.397 87.822H205.769L204.264 98H202.64L201.968 94.444C201.87 93.9027 201.788 93.3963 201.723 92.925C201.662 92.449 201.599 91.9403 201.534 91.399H201.492C201.431 91.9403 201.368 92.449 201.303 92.925C201.237 93.3963 201.156 93.9027 201.058 94.444L200.4 98H198.769ZM209.907 98.105C209.258 98.105 208.682 97.9533 208.178 97.65C207.679 97.342 207.287 96.894 207.002 96.306C206.717 95.7133 206.575 94.99 206.575 94.136C206.575 93.3147 206.722 92.6123 207.016 92.029C207.31 91.441 207.709 90.9907 208.213 90.678C208.717 90.3653 209.282 90.209 209.907 90.209C210.574 90.209 211.158 90.3653 211.657 90.678C212.156 90.9907 212.544 91.441 212.819 92.029C213.099 92.6123 213.239 93.3147 213.239 94.136C213.239 94.9947 213.09 95.7203 212.791 96.313C212.497 96.901 212.098 97.3467 211.594 97.65C211.09 97.9533 210.528 98.105 209.907 98.105ZM209.907 96.957C210.5 96.957 210.98 96.726 211.349 96.264C211.722 95.7973 211.909 95.088 211.909 94.136C211.909 93.2307 211.727 92.5423 211.363 92.071C211.004 91.595 210.518 91.357 209.907 91.357C209.314 91.357 208.831 91.595 208.458 92.071C208.089 92.5423 207.905 93.2307 207.905 94.136C207.905 95.0553 208.089 95.7553 208.458 96.236C208.831 96.7167 209.314 96.957 209.907 96.957ZM214.921 98V96.943H220.248V98H214.921ZM214.844 91.553V90.349H217.084L217.133 91.553H214.844ZM216.419 97.86V92.295C216.419 92.0383 216.461 91.8587 216.545 91.756C216.633 91.6533 216.776 91.5857 216.972 91.553L216.419 91.14V90.349H217.546L217.637 92.4C217.753 91.9613 217.938 91.5787 218.19 91.252C218.442 90.9207 218.738 90.664 219.079 90.482C219.419 90.2953 219.774 90.202 220.143 90.202C220.777 90.202 221.27 90.4377 221.62 90.909C221.97 91.3757 222.133 92.0897 222.11 93.051H220.836C220.826 92.4583 220.726 92.0383 220.535 91.791C220.348 91.5437 220.047 91.42 219.632 91.42C219.258 91.42 218.892 91.5647 218.533 91.854C218.173 92.1387 217.903 92.484 217.721 92.89V96.39C217.721 96.5393 217.686 96.6607 217.616 96.754C217.55 96.8427 217.443 96.9057 217.294 96.943L217.721 97.202V97.86H216.419ZM226.311 98.084C225.742 98.084 225.238 97.9253 224.799 97.608C224.365 97.2907 224.025 96.8403 223.777 96.257C223.535 95.669 223.413 94.969 223.413 94.157C223.413 93.3497 223.551 92.652 223.826 92.064C224.106 91.4713 224.484 91.0163 224.96 90.699C225.441 90.377 225.982 90.216 226.584 90.216C226.906 90.216 227.2 90.2837 227.466 90.419C227.737 90.5497 227.963 90.7293 228.145 90.958C228.332 91.1867 228.458 91.4503 228.523 91.749L228.929 91.98L228.467 92.505C228.397 92.2437 228.278 92.029 228.11 91.861C227.947 91.6883 227.76 91.56 227.55 91.476C227.345 91.392 227.14 91.35 226.934 91.35C226.286 91.35 225.758 91.595 225.352 92.085C224.951 92.575 224.75 93.2727 224.75 94.178C224.75 94.7333 224.827 95.221 224.981 95.641C225.135 96.061 225.357 96.39 225.646 96.628C225.94 96.8613 226.295 96.978 226.71 96.978C226.944 96.978 227.177 96.929 227.41 96.831C227.644 96.7283 227.851 96.5743 228.033 96.369C228.22 96.1637 228.353 95.907 228.432 95.599L228.502 96.012L228.439 96.271C228.388 96.621 228.257 96.9337 228.047 97.209C227.837 97.4797 227.581 97.6943 227.277 97.853C226.974 98.007 226.652 98.084 226.311 98.084ZM228.446 98L228.432 95.599V87.108H229.727L229.734 98H228.446ZM235.175 98.119C234.811 98.119 234.451 98.0793 234.097 98C233.742 97.9253 233.415 97.8017 233.117 97.629C232.818 97.4517 232.573 97.2137 232.382 96.915C232.195 96.6163 232.083 96.243 232.046 95.795H233.39C233.436 96.2337 233.635 96.551 233.985 96.747C234.335 96.943 234.736 97.041 235.189 97.041C235.711 97.041 236.127 96.9687 236.435 96.824C236.747 96.6747 236.904 96.3923 236.904 95.977C236.904 95.7297 236.829 95.529 236.68 95.375C236.535 95.221 236.323 95.0927 236.043 94.99C235.767 94.8827 235.431 94.78 235.035 94.682C234.708 94.6027 234.384 94.514 234.062 94.416C233.744 94.3133 233.455 94.1803 233.194 94.017C232.937 93.8537 232.732 93.6367 232.578 93.366C232.424 93.0953 232.347 92.75 232.347 92.33C232.347 91.9147 232.456 91.5483 232.676 91.231C232.9 90.9137 233.222 90.6663 233.642 90.489C234.062 90.3117 234.57 90.223 235.168 90.223C235.648 90.223 236.094 90.2977 236.505 90.447C236.92 90.5917 237.258 90.8273 237.52 91.154C237.786 91.476 237.933 91.9053 237.961 92.442H236.652C236.638 92.218 236.577 92.0197 236.47 91.847C236.362 91.6743 236.201 91.539 235.987 91.441C235.772 91.343 235.497 91.294 235.161 91.294C234.853 91.294 234.582 91.3267 234.349 91.392C234.115 91.4573 233.933 91.5647 233.803 91.714C233.672 91.8633 233.607 92.064 233.607 92.316C233.607 92.5633 233.684 92.7663 233.838 92.925C233.996 93.0837 234.213 93.2143 234.489 93.317C234.764 93.415 235.079 93.5083 235.434 93.597C235.742 93.6717 236.059 93.7603 236.386 93.863C236.712 93.9657 237.013 94.0987 237.289 94.262C237.564 94.4253 237.786 94.6377 237.954 94.899C238.126 95.1557 238.213 95.48 238.213 95.872C238.208 96.544 237.963 97.0877 237.478 97.503C236.997 97.9137 236.229 98.119 235.175 98.119ZM251.138 98.084C250.419 98.084 249.85 97.8927 249.43 97.51C249.014 97.1227 248.807 96.6023 248.807 95.949C248.807 95.3797 248.991 94.9153 249.36 94.556C249.733 94.192 250.3 93.9377 251.061 93.793C251.355 93.737 251.653 93.6903 251.957 93.653C252.26 93.6157 252.554 93.5853 252.839 93.562C253.123 93.534 253.382 93.5153 253.616 93.506V92.918C253.616 92.344 253.483 91.9333 253.217 91.686C252.955 91.4387 252.547 91.315 251.992 91.315C251.408 91.315 250.967 91.4363 250.669 91.679C250.375 91.917 250.237 92.3277 250.256 92.911H249.038C248.982 92.3697 249.068 91.8983 249.297 91.497C249.53 91.091 249.878 90.776 250.34 90.552C250.806 90.328 251.359 90.216 251.999 90.216C252.941 90.216 253.655 90.4493 254.141 90.916C254.626 91.378 254.869 92.0593 254.869 92.96V98H253.623L253.616 96.341C253.518 96.6817 253.35 96.985 253.112 97.251C252.874 97.5123 252.584 97.7177 252.244 97.867C251.908 98.0117 251.539 98.084 251.138 98.084ZM251.509 97.055C251.821 97.055 252.127 96.9967 252.426 96.88C252.729 96.7587 252.99 96.6023 253.21 96.411C253.429 96.215 253.564 96.005 253.616 95.781V94.297C253.448 94.3063 253.252 94.325 253.028 94.353C252.808 94.3763 252.589 94.4067 252.37 94.444C252.15 94.4767 251.957 94.5117 251.789 94.549C251.191 94.6797 250.774 94.8477 250.536 95.053C250.298 95.2583 250.179 95.5337 250.179 95.879C250.179 96.243 250.293 96.53 250.522 96.74C250.755 96.9453 251.084 97.0503 251.509 97.055ZM257.418 98V90.349H258.545L258.678 93.121L258.545 92.652C258.648 91.8633 258.914 91.259 259.343 90.839C259.773 90.4143 260.335 90.202 261.03 90.202C261.74 90.202 262.281 90.4307 262.654 90.888C263.032 91.3453 263.221 92.0033 263.221 92.862V98H261.919V93.289C261.919 92.6357 261.812 92.162 261.597 91.868C261.387 91.5693 261.044 91.42 260.568 91.42C260.172 91.42 259.812 91.5343 259.49 91.763C259.168 91.987 258.912 92.2997 258.72 92.701V98H257.418ZM268.284 98.084C267.715 98.084 267.211 97.9253 266.772 97.608C266.338 97.2907 265.997 96.8403 265.75 96.257C265.507 95.669 265.386 94.969 265.386 94.157C265.386 93.3497 265.524 92.652 265.799 92.064C266.079 91.4713 266.457 91.0163 266.933 90.699C267.414 90.377 267.955 90.216 268.557 90.216C268.879 90.216 269.173 90.2837 269.439 90.419C269.71 90.5497 269.936 90.7293 270.118 90.958C270.305 91.1867 270.431 91.4503 270.496 91.749L270.902 91.98L270.44 92.505C270.37 92.2437 270.251 92.029 270.083 91.861C269.92 91.6883 269.733 91.56 269.523 91.476C269.318 91.392 269.112 91.35 268.907 91.35C268.258 91.35 267.731 91.595 267.325 92.085C266.924 92.575 266.723 93.2727 266.723 94.178C266.723 94.7333 266.8 95.221 266.954 95.641C267.108 96.061 267.33 96.39 267.619 96.628C267.913 96.8613 268.268 96.978 268.683 96.978C268.916 96.978 269.15 96.929 269.383 96.831C269.616 96.7283 269.824 96.5743 270.006 96.369C270.193 96.1637 270.326 95.907 270.405 95.599L270.475 96.012L270.412 96.271C270.361 96.621 270.23 96.9337 270.02 97.209C269.81 97.4797 269.553 97.6943 269.25 97.853C268.947 98.007 268.625 98.084 268.284 98.084ZM270.419 98L270.405 95.599V87.108H271.7L271.707 98H270.419ZM282.448 98V87.822H288.629V88.949H283.218L283.764 88.403V92.645L283.253 92.267H288.034V93.394H283.547L283.764 93.086V98H282.448ZM290.842 98V87.822H297.023V88.949H291.612L292.158 88.403V92.645L291.647 92.267H296.428V93.394H291.941L292.158 93.086V98H290.842ZM302.296 98.14C301.596 98.14 300.973 98.028 300.427 97.804C299.886 97.58 299.459 97.2323 299.146 96.761C298.833 96.2897 298.672 95.6807 298.663 94.934H299.951C299.96 95.438 300.077 95.8393 300.301 96.138C300.525 96.432 300.817 96.6443 301.176 96.775C301.54 96.901 301.93 96.964 302.345 96.964C302.826 96.964 303.222 96.894 303.535 96.754C303.852 96.6093 304.09 96.4203 304.249 96.187C304.408 95.9537 304.487 95.704 304.487 95.438C304.487 95.0553 304.389 94.745 304.193 94.507C303.997 94.269 303.717 94.0707 303.353 93.912C302.989 93.7487 302.557 93.5877 302.058 93.429C301.507 93.2517 301.006 93.0277 300.553 92.757C300.105 92.4863 299.748 92.155 299.482 91.763C299.216 91.3663 299.083 90.8973 299.083 90.356C299.083 89.7587 299.23 89.2617 299.524 88.865C299.818 88.4637 300.21 88.1627 300.7 87.962C301.195 87.7613 301.738 87.661 302.331 87.661C303.218 87.661 303.941 87.8967 304.501 88.368C305.061 88.8347 305.399 89.5463 305.516 90.503H304.27C304.228 90.1857 304.132 89.901 303.983 89.649C303.838 89.397 303.628 89.1987 303.353 89.054C303.078 88.9047 302.723 88.83 302.289 88.83C301.692 88.83 301.218 88.9607 300.868 89.222C300.518 89.4833 300.343 89.845 300.343 90.307C300.343 90.6337 300.406 90.9137 300.532 91.147C300.663 91.3757 300.887 91.5857 301.204 91.777C301.526 91.9637 301.969 92.1597 302.534 92.365C302.94 92.5097 303.334 92.6613 303.717 92.82C304.104 92.9787 304.45 93.1677 304.753 93.387C305.061 93.6017 305.306 93.87 305.488 94.192C305.67 94.5093 305.761 94.9037 305.761 95.375C305.766 95.9537 305.623 96.4507 305.334 96.866C305.049 97.2767 304.646 97.5917 304.123 97.811C303.605 98.0303 302.996 98.14 302.296 98.14Z" fill="black"/>
</svg>
