<svg width="435" height="334" viewBox="0 0 435 334" fill="none" xmlns="http://www.w3.org/2000/svg">
<g filter="url(#filter0_d_658_1703)">
<rect x="31" y="10" width="388.001" height="302" rx="24" fill="white"/>
<path d="M31 173L16 161L31 149L31 173Z" fill="white"/>
<path d="M65.249 54.92C63.905 54.92 62.657 54.72 61.505 54.32C60.353 53.92 59.313 53.392 58.385 52.736C57.473 52.064 56.673 51.344 55.985 50.576L58.385 46.76C58.593 47.304 58.937 47.824 59.417 48.32C59.913 48.816 60.489 49.256 61.145 49.64C61.801 50.024 62.489 50.328 63.209 50.552C63.945 50.776 64.665 50.888 65.369 50.888C66.425 50.888 67.265 50.72 67.889 50.384C68.513 50.032 68.825 49.568 68.825 48.992C68.825 48.544 68.681 48.176 68.393 47.888C68.121 47.584 67.801 47.344 67.433 47.168C67.081 46.976 66.777 46.808 66.521 46.664C66.329 46.568 65.977 46.424 65.465 46.232C64.969 46.024 64.409 45.8 63.785 45.56C63.161 45.32 62.569 45.096 62.009 44.888C61.449 44.664 61.009 44.48 60.689 44.336C58.305 43.264 57.113 41.608 57.113 39.368C57.113 38.648 57.249 37.944 57.521 37.256C57.809 36.552 58.241 35.912 58.817 35.336C59.393 34.76 60.129 34.304 61.025 33.968C61.921 33.632 62.993 33.464 64.241 33.464C65.601 33.464 66.809 33.616 67.865 33.92C68.921 34.208 69.849 34.576 70.649 35.024C71.465 35.472 72.161 35.944 72.737 36.44L70.529 40.136C68.753 38.376 66.745 37.496 64.505 37.496C63.561 37.496 62.841 37.6 62.345 37.808C61.865 38 61.537 38.224 61.361 38.48C61.201 38.72 61.121 38.92 61.121 39.08C61.121 39.352 61.217 39.624 61.409 39.896C61.617 40.168 62.073 40.456 62.777 40.76C63.065 40.888 63.449 41.048 63.929 41.24C64.425 41.416 64.969 41.616 65.561 41.84C66.169 42.064 66.761 42.304 67.337 42.56C67.929 42.8 68.465 43.048 68.945 43.304C69.521 43.624 70.113 44.016 70.721 44.48C71.329 44.944 71.841 45.52 72.257 46.208C72.689 46.88 72.905 47.704 72.905 48.68C72.905 49.272 72.793 49.928 72.569 50.648C72.345 51.352 71.953 52.032 71.393 52.688C70.833 53.344 70.057 53.88 69.065 54.296C68.073 54.712 66.801 54.92 65.249 54.92ZM82.3385 54.776C82.2265 53.384 82.1465 52.032 82.0985 50.72C82.0665 49.408 82.0505 48.168 82.0505 47C82.0505 45.064 82.0905 43.328 82.1705 41.792C82.2505 40.24 82.3305 38.904 82.4105 37.784C81.0345 37.864 79.6985 37.968 78.4025 38.096C77.1065 38.224 75.9065 38.392 74.8025 38.6L74.8505 34.592C76.7225 34.256 78.6425 34.016 80.6105 33.872C82.5785 33.712 84.5465 33.632 86.5145 33.632C87.9225 33.632 89.2665 33.664 90.5465 33.728C91.8425 33.792 93.0825 33.888 94.2665 34.016L94.2425 38.168C93.1225 37.992 91.9065 37.872 90.5945 37.808C89.2985 37.728 87.9705 37.688 86.6105 37.688C86.5305 38.776 86.4585 39.992 86.3945 41.336C86.3305 42.664 86.2985 44.088 86.2985 45.608C86.2985 46.968 86.3305 48.4 86.3945 49.904C86.4745 51.408 86.5705 52.992 86.6825 54.656L82.3385 54.776ZM104.63 54.776C103.414 54.776 102.318 54.688 101.342 54.512C100.382 54.352 99.566 54.032 98.894 53.552C98.222 53.088 97.71 52.4 97.358 51.488C97.006 50.576 96.83 49.384 96.83 47.912C96.83 46.84 96.886 45.728 96.998 44.576C97.11 43.424 97.246 42.312 97.406 41.24C97.582 40.152 97.75 39.184 97.91 38.336C97.59 38.384 97.318 38.432 97.094 38.48L96.638 34.664C97.422 34.52 98.326 34.4 99.35 34.304C100.39 34.192 101.486 34.096 102.638 34.016C103.806 33.936 104.966 33.88 106.118 33.848C107.27 33.8 108.35 33.776 109.358 33.776C110.158 33.776 110.886 33.792 111.542 33.824C112.214 33.84 112.766 33.872 113.198 33.92L113.006 37.928C112.574 37.848 111.99 37.792 111.254 37.76C110.518 37.712 109.694 37.688 108.782 37.688C107.71 37.688 106.566 37.712 105.35 37.76C104.134 37.808 102.974 37.864 101.87 37.928C101.742 38.6 101.63 39.288 101.534 39.992C101.438 40.696 101.35 41.392 101.27 42.08C102.198 41.952 103.214 41.856 104.318 41.792C105.438 41.712 106.55 41.656 107.654 41.624C108.758 41.576 109.75 41.552 110.63 41.552C111.142 41.552 111.598 41.56 111.998 41.576C112.398 41.576 112.726 41.592 112.982 41.624L112.886 45.56C112.678 45.544 112.39 45.536 112.022 45.536C111.67 45.52 111.254 45.512 110.774 45.512C110.086 45.512 109.318 45.528 108.47 45.56C107.622 45.576 106.742 45.608 105.83 45.656C104.934 45.688 104.062 45.736 103.214 45.8C102.366 45.848 101.598 45.912 100.91 45.992C100.846 46.888 100.814 47.608 100.814 48.152C100.814 48.936 100.918 49.512 101.126 49.88C101.334 50.248 101.678 50.488 102.158 50.6C102.654 50.696 103.302 50.744 104.102 50.744C105.526 50.744 107.054 50.624 108.686 50.384C110.334 50.144 111.958 49.768 113.558 49.256L113.822 53.432C111.902 53.96 110.158 54.312 108.59 54.488C107.038 54.68 105.718 54.776 104.63 54.776ZM118.355 54.608C118.339 54.096 118.331 53.576 118.331 53.048C118.331 52.536 118.331 52.024 118.331 51.512C118.331 49.16 118.379 46.88 118.475 44.672C118.571 42.448 118.683 40.328 118.811 38.312C118.171 38.472 117.635 38.624 117.203 38.768L116.267 34.928C117.051 34.688 117.875 34.48 118.739 34.304C119.619 34.112 120.475 33.96 121.307 33.848C122.155 33.72 122.931 33.632 123.635 33.584C124.355 33.52 124.947 33.488 125.411 33.488C125.907 33.488 126.515 33.528 127.235 33.608C127.971 33.688 128.723 33.856 129.491 34.112C130.275 34.352 131.003 34.72 131.675 35.216C132.347 35.712 132.891 36.384 133.307 37.232C133.739 38.064 133.955 39.112 133.955 40.376C133.955 41.688 133.667 42.784 133.091 43.664C132.515 44.528 131.755 45.224 130.811 45.752C129.867 46.264 128.827 46.632 127.691 46.856C126.555 47.08 125.435 47.192 124.331 47.192C123.627 47.192 122.955 47.16 122.315 47.096C122.299 47.864 122.291 48.624 122.291 49.376C122.291 50.4 122.299 51.352 122.315 52.232C122.331 53.096 122.363 53.856 122.411 54.512L118.355 54.608ZM125.291 37.424C124.875 37.424 124.443 37.44 123.995 37.472C123.563 37.504 123.131 37.544 122.699 37.592C122.619 38.44 122.555 39.36 122.507 40.352C122.459 41.344 122.419 42.36 122.387 43.4C122.979 43.448 123.595 43.472 124.235 43.472C128.075 43.472 129.995 42.336 129.995 40.064C129.995 39.168 129.611 38.504 128.843 38.072C128.075 37.64 126.891 37.424 125.291 37.424ZM150.822 54.776L146.91 54.416C146.99 53.488 147.062 52.448 147.126 51.296C147.206 50.144 147.27 48.96 147.318 47.744C147.366 46.528 147.398 45.36 147.414 44.24C147.446 43.12 147.47 42.128 147.486 41.264C147.502 40.4 147.51 39.744 147.51 39.296C147.51 39.136 147.494 39.056 147.462 39.056C147.414 39.056 147.334 39.144 147.222 39.32C147.062 39.576 146.894 39.88 146.718 40.232C146.542 40.568 146.39 40.872 146.262 41.144L143.478 38.384C144.422 36.832 145.35 35.632 146.262 34.784C147.19 33.92 148.022 33.488 148.758 33.488C149.366 33.488 149.838 33.632 150.174 33.92C150.51 34.208 150.758 34.592 150.918 35.072C151.094 35.552 151.198 36.08 151.23 36.656C151.278 37.232 151.302 37.808 151.302 38.384C151.302 38.64 151.294 39.168 151.278 39.968C151.278 40.752 151.27 41.72 151.254 42.872C151.238 44.024 151.214 45.28 151.182 46.64C151.15 47.984 151.102 49.36 151.038 50.768C150.974 52.16 150.902 53.496 150.822 54.776ZM159.965 39.656C159.357 39.656 158.853 39.52 158.453 39.248C158.053 38.976 157.757 38.632 157.565 38.216C157.373 37.784 157.277 37.336 157.277 36.872C157.277 36.424 157.373 35.992 157.565 35.576C157.773 35.144 158.085 34.792 158.501 34.52C158.933 34.248 159.477 34.112 160.133 34.112C161.029 34.112 161.685 34.384 162.101 34.928C162.517 35.456 162.725 36.064 162.725 36.752C162.725 37.776 162.445 38.52 161.885 38.984C161.341 39.432 160.701 39.656 159.965 39.656ZM159.965 53.672C159.357 53.672 158.853 53.536 158.453 53.264C158.053 52.992 157.757 52.648 157.565 52.232C157.373 51.8 157.277 51.344 157.277 50.864C157.277 50.416 157.373 49.984 157.565 49.568C157.773 49.152 158.085 48.808 158.501 48.536C158.933 48.264 159.477 48.128 160.133 48.128C161.029 48.128 161.685 48.4 162.101 48.944C162.517 49.472 162.725 50.08 162.725 50.768C162.725 51.792 162.445 52.536 161.885 53C161.341 53.448 160.701 53.672 159.965 53.672Z" fill="black"/>
<path d="M59.25 85.14C58.55 85.14 57.927 85.028 57.381 84.804C56.8396 84.58 56.4126 84.2323 56.1 83.761C55.7873 83.2897 55.6263 82.6807 55.617 81.934H56.905C56.9143 82.438 57.031 82.8393 57.255 83.138C57.479 83.432 57.7706 83.6443 58.13 83.775C58.494 83.901 58.8836 83.964 59.299 83.964C59.7796 83.964 60.1763 83.894 60.489 83.754C60.8063 83.6093 61.0443 83.4203 61.203 83.187C61.3616 82.9537 61.441 82.704 61.441 82.438C61.441 82.0553 61.343 81.745 61.147 81.507C60.951 81.269 60.671 81.0707 60.307 80.912C59.943 80.7487 59.5113 80.5877 59.012 80.429C58.4613 80.2517 57.9596 80.0277 57.507 79.757C57.059 79.4863 56.702 79.155 56.436 78.763C56.17 78.3663 56.037 77.8973 56.037 77.356C56.037 76.7587 56.184 76.2617 56.478 75.865C56.772 75.4637 57.164 75.1627 57.654 74.962C58.1486 74.7613 58.6923 74.661 59.285 74.661C60.1716 74.661 60.895 74.8967 61.455 75.368C62.015 75.8347 62.3533 76.5463 62.47 77.503H61.224C61.182 77.1857 61.0863 76.901 60.937 76.649C60.7923 76.397 60.5823 76.1987 60.307 76.054C60.0316 75.9047 59.677 75.83 59.243 75.83C58.6456 75.83 58.172 75.9607 57.822 76.222C57.472 76.4833 57.297 76.845 57.297 77.307C57.297 77.6337 57.36 77.9137 57.486 78.147C57.6166 78.3757 57.8406 78.5857 58.158 78.777C58.48 78.9637 58.9233 79.1597 59.488 79.365C59.894 79.5097 60.2883 79.6613 60.671 79.82C61.0583 79.9787 61.4036 80.1677 61.707 80.387C62.015 80.6017 62.26 80.87 62.442 81.192C62.624 81.5093 62.715 81.9037 62.715 82.375C62.7196 82.9537 62.5773 83.4507 62.288 83.866C62.0033 84.2767 61.5996 84.5917 61.077 84.811C60.559 85.0303 59.95 85.14 59.25 85.14ZM66.8885 85.154C66.2258 85.154 65.6892 84.93 65.2785 84.482C64.8678 84.034 64.6625 83.4087 64.6625 82.606V77.356H65.9575V82.34C65.9575 82.872 66.0625 83.271 66.2725 83.537C66.4825 83.803 66.8232 83.936 67.2945 83.936C67.7098 83.936 68.0715 83.824 68.3795 83.6C68.6922 83.3713 68.9535 83.0563 69.1635 82.655V77.356H70.4725V85H69.3525L69.2055 82.347L69.3455 82.697C69.2895 83.145 69.1635 83.5557 68.9675 83.929C68.7762 84.2977 68.5078 84.594 68.1625 84.818C67.8218 85.042 67.3972 85.154 66.8885 85.154ZM76.221 85.084C75.9457 85.084 75.6657 85.021 75.381 84.895C75.101 84.7643 74.856 84.587 74.646 84.363C74.436 84.1343 74.2984 83.873 74.233 83.579L73.827 83.376L74.289 82.893C74.359 83.1497 74.4804 83.3573 74.653 83.516C74.8304 83.6747 75.031 83.789 75.255 83.859C75.4837 83.929 75.7054 83.964 75.92 83.964C76.326 83.964 76.6877 83.8497 77.005 83.621C77.3224 83.3923 77.572 83.0563 77.754 82.613C77.936 82.165 78.027 81.6143 78.027 80.961C78.027 80.1257 77.8824 79.4817 77.593 79.029C77.3084 78.5763 76.8627 78.35 76.256 78.35C76.018 78.35 75.7637 78.399 75.493 78.497C75.227 78.595 74.9867 78.7467 74.772 78.952C74.5574 79.1573 74.408 79.4233 74.324 79.75L74.254 79.281L74.317 79.029C74.373 78.679 74.513 78.3687 74.737 78.098C74.961 77.8227 75.241 77.608 75.577 77.454C75.913 77.2953 76.2747 77.216 76.662 77.216C77.2127 77.216 77.6887 77.3607 78.09 77.65C78.496 77.9347 78.8087 78.357 79.028 78.917C79.252 79.4723 79.364 80.156 79.364 80.968C79.364 81.822 79.2194 82.557 78.93 83.173C78.6407 83.789 78.258 84.2627 77.782 84.594C77.306 84.9207 76.7857 85.084 76.221 85.084ZM73.036 85L73.029 74.108H74.324V77.524V83.432L74.45 83.684L74.317 83.796L74.275 85H73.036ZM84.4686 85.119C84.1046 85.119 83.7452 85.0793 83.3906 85C83.0359 84.9253 82.7092 84.8017 82.4106 84.629C82.1119 84.4517 81.8669 84.2137 81.6756 83.915C81.4889 83.6163 81.3769 83.243 81.3396 82.795H82.6836C82.7302 83.2337 82.9286 83.551 83.2786 83.747C83.6286 83.943 84.0299 84.041 84.4826 84.041C85.0052 84.041 85.4206 83.9687 85.7286 83.824C86.0412 83.6747 86.1976 83.3923 86.1976 82.977C86.1976 82.7297 86.1229 82.529 85.9736 82.375C85.8289 82.221 85.6166 82.0927 85.3366 81.99C85.0612 81.8827 84.7252 81.78 84.3286 81.682C84.0019 81.6027 83.6776 81.514 83.3556 81.416C83.0382 81.3133 82.7489 81.1803 82.4876 81.017C82.2309 80.8537 82.0256 80.6367 81.8716 80.366C81.7176 80.0953 81.6406 79.75 81.6406 79.33C81.6406 78.9147 81.7502 78.5483 81.9696 78.231C82.1936 77.9137 82.5156 77.6663 82.9356 77.489C83.3556 77.3117 83.8642 77.223 84.4616 77.223C84.9422 77.223 85.3879 77.2977 85.7986 77.447C86.2139 77.5917 86.5522 77.8273 86.8136 78.154C87.0796 78.476 87.2266 78.9053 87.2546 79.442H85.9456C85.9316 79.218 85.8709 79.0197 85.7636 78.847C85.6562 78.6743 85.4952 78.539 85.2806 78.441C85.0659 78.343 84.7906 78.294 84.4546 78.294C84.1466 78.294 83.8759 78.3267 83.6426 78.392C83.4092 78.4573 83.2272 78.5647 83.0966 78.714C82.9659 78.8633 82.9006 79.064 82.9006 79.316C82.9006 79.5633 82.9776 79.7663 83.1316 79.925C83.2902 80.0837 83.5072 80.2143 83.7826 80.317C84.0579 80.415 84.3729 80.5083 84.7276 80.597C85.0356 80.6717 85.3529 80.7603 85.6796 80.863C86.0062 80.9657 86.3072 81.0987 86.5826 81.262C86.8579 81.4253 87.0796 81.6377 87.2476 81.899C87.4202 82.1557 87.5066 82.48 87.5066 82.872C87.5019 83.544 87.2569 84.0877 86.7716 84.503C86.2909 84.9137 85.5232 85.119 84.4686 85.119ZM93.0101 85.126C92.3194 85.126 91.7198 84.965 91.2111 84.643C90.7024 84.3163 90.3058 83.859 90.0211 83.271C89.7411 82.6783 89.6011 81.9807 89.6011 81.178C89.6011 80.3333 89.7434 79.617 90.0281 79.029C90.3174 78.4363 90.7141 77.986 91.2181 77.678C91.7268 77.37 92.3054 77.216 92.9541 77.216C93.5934 77.216 94.1348 77.3513 94.5781 77.622C95.0214 77.8927 95.3598 78.252 95.5931 78.7C95.8264 79.148 95.9478 79.638 95.9571 80.17H94.6621C94.6528 79.946 94.6131 79.7267 94.5431 79.512C94.4778 79.2927 94.3751 79.0967 94.2351 78.924C94.0998 78.7467 93.9248 78.6067 93.7101 78.504C93.4954 78.4013 93.2341 78.35 92.9261 78.35C92.2494 78.3453 91.7454 78.5927 91.4141 79.092C91.0828 79.5867 90.9171 80.268 90.9171 81.136C90.9171 82.06 91.0968 82.767 91.4561 83.257C91.8201 83.7423 92.3521 83.985 93.0521 83.985C93.3974 83.985 93.6844 83.9337 93.9131 83.831C94.1418 83.7237 94.3168 83.5837 94.4381 83.411C94.5594 83.2337 94.6318 83.0423 94.6551 82.837H95.9221C95.9081 83.2757 95.7728 83.6677 95.5161 84.013C95.2641 84.3583 94.9211 84.6313 94.4871 84.832C94.0578 85.028 93.5654 85.126 93.0101 85.126ZM97.7926 85V83.943H103.12V85H97.7926ZM97.7156 78.553V77.349H99.9556L100.005 78.553H97.7156ZM99.2906 84.86V79.295C99.2906 79.0383 99.3326 78.8587 99.4166 78.756C99.5053 78.6533 99.6476 78.5857 99.8436 78.553L99.2906 78.14V77.349H100.418L100.509 79.4C100.625 78.9613 100.81 78.5787 101.062 78.252C101.314 77.9207 101.61 77.664 101.951 77.482C102.291 77.2953 102.646 77.202 103.015 77.202C103.649 77.202 104.142 77.4377 104.492 77.909C104.842 78.3757 105.005 79.0897 104.982 80.051H103.708C103.698 79.4583 103.598 79.0383 103.407 78.791C103.22 78.5437 102.919 78.42 102.504 78.42C102.13 78.42 101.764 78.5647 101.405 78.854C101.045 79.1387 100.775 79.484 100.593 79.89V83.39C100.593 83.5393 100.558 83.6607 100.488 83.754C100.422 83.8427 100.315 83.9057 100.166 83.943L100.593 84.202V84.86H99.2906ZM109.47 84.818V79.414C109.47 79.1807 109.512 78.9847 109.596 78.826C109.68 78.6627 109.843 78.5717 110.086 78.553L109.47 78.315L109.421 77.72L110.751 77.363L110.73 84.818H109.47ZM106.978 85V83.943H113.005V85H106.978ZM106.768 78.553V77.363H110.751L110.422 78.553H106.768ZM110.051 76.019C109.766 76.019 109.524 75.921 109.323 75.725C109.127 75.529 109.029 75.2747 109.029 74.962C109.029 74.6447 109.127 74.388 109.323 74.192C109.524 73.9913 109.766 73.891 110.051 73.891C110.336 73.891 110.576 73.9913 110.772 74.192C110.973 74.388 111.073 74.6447 111.073 74.962C111.073 75.2747 110.973 75.529 110.772 75.725C110.571 75.921 110.331 76.019 110.051 76.019ZM118.194 85.084C117.918 85.084 117.638 85.021 117.354 84.895C117.074 84.7643 116.829 84.587 116.619 84.363C116.409 84.1343 116.271 83.873 116.206 83.579L115.8 83.376L116.262 82.893C116.332 83.1497 116.453 83.3573 116.626 83.516C116.803 83.6747 117.004 83.789 117.228 83.859C117.456 83.929 117.678 83.964 117.893 83.964C118.299 83.964 118.66 83.8497 118.978 83.621C119.295 83.3923 119.545 83.0563 119.727 82.613C119.909 82.165 120 81.6143 120 80.961C120 80.1257 119.855 79.4817 119.566 79.029C119.281 78.5763 118.835 78.35 118.229 78.35C117.991 78.35 117.736 78.399 117.466 78.497C117.2 78.595 116.959 78.7467 116.745 78.952C116.53 79.1573 116.381 79.4233 116.297 79.75L116.227 79.281L116.29 79.029C116.346 78.679 116.486 78.3687 116.71 78.098C116.934 77.8227 117.214 77.608 117.55 77.454C117.886 77.2953 118.247 77.216 118.635 77.216C119.185 77.216 119.661 77.3607 120.063 77.65C120.469 77.9347 120.781 78.357 121.001 78.917C121.225 79.4723 121.337 80.156 121.337 80.968C121.337 81.822 121.192 82.557 120.903 83.173C120.613 83.789 120.231 84.2627 119.755 84.594C119.279 84.9207 118.758 85.084 118.194 85.084ZM115.009 85L115.002 74.108H116.297V77.524V83.432L116.423 83.684L116.29 83.796L116.248 85H115.009ZM126.595 85.105C125.965 85.105 125.391 84.9533 124.873 84.65C124.36 84.3467 123.949 83.901 123.641 83.313C123.338 82.7203 123.186 81.997 123.186 81.143C123.186 80.317 123.329 79.61 123.613 79.022C123.903 78.434 124.297 77.986 124.796 77.678C125.3 77.3653 125.872 77.209 126.511 77.209C127.445 77.209 128.194 77.5193 128.758 78.14C129.323 78.756 129.605 79.6287 129.605 80.758C129.605 80.9073 129.601 81.031 129.591 81.129C129.582 81.227 129.575 81.3297 129.57 81.437H124.46C124.47 82.011 124.575 82.4847 124.775 82.858C124.981 83.2313 125.244 83.5113 125.566 83.698C125.893 83.88 126.243 83.971 126.616 83.971C127.074 83.971 127.435 83.8823 127.701 83.705C127.967 83.5277 128.145 83.236 128.233 82.83H129.458C129.412 83.306 129.262 83.7143 129.01 84.055C128.763 84.391 128.434 84.65 128.023 84.832C127.613 85.014 127.137 85.105 126.595 85.105ZM124.46 80.954C124.498 80.758 124.579 80.6273 124.705 80.562C124.831 80.492 125.002 80.457 125.216 80.457H128.289C128.285 79.7617 128.135 79.2367 127.841 78.882C127.547 78.5227 127.109 78.343 126.525 78.343C125.853 78.343 125.342 78.5763 124.992 79.043C124.647 79.5097 124.47 80.1467 124.46 80.954ZM143.993 85.105C143.508 85.105 143.09 85.028 142.74 84.874C142.395 84.72 142.129 84.4797 141.942 84.153C141.76 83.8217 141.669 83.3923 141.669 82.865V79.498C141.669 79.372 141.69 79.239 141.732 79.099C141.774 78.959 141.842 78.8353 141.935 78.728C142.033 78.6207 142.162 78.5553 142.32 78.532L141.662 77.664L141.69 77.426L142.005 74.682H143.02V82.662C143.02 83.1567 143.121 83.4857 143.321 83.649C143.527 83.8077 143.865 83.887 144.336 83.887C144.658 83.887 144.936 83.8683 145.169 83.831C145.407 83.7937 145.617 83.7447 145.799 83.684C145.986 83.6233 146.163 83.558 146.331 83.488V84.734C146.051 84.8367 145.727 84.9253 145.358 85C144.994 85.07 144.539 85.105 143.993 85.105ZM139.884 78.532V77.356H145.68V78.532H139.884ZM151.541 85.105C150.892 85.105 150.316 84.9533 149.812 84.65C149.312 84.342 148.92 83.894 148.636 83.306C148.351 82.7133 148.209 81.99 148.209 81.136C148.209 80.3147 148.356 79.6123 148.65 79.029C148.944 78.441 149.343 77.9907 149.847 77.678C150.351 77.3653 150.915 77.209 151.541 77.209C152.208 77.209 152.791 77.3653 153.291 77.678C153.79 77.9907 154.177 78.441 154.453 79.029C154.733 79.6123 154.873 80.3147 154.873 81.136C154.873 81.9947 154.723 82.7203 154.425 83.313C154.131 83.901 153.732 84.3467 153.228 84.65C152.724 84.9533 152.161 85.105 151.541 85.105ZM151.541 83.957C152.133 83.957 152.614 83.726 152.983 83.264C153.356 82.7973 153.543 82.088 153.543 81.136C153.543 80.2307 153.361 79.5423 152.997 79.071C152.637 78.595 152.152 78.357 151.541 78.357C150.948 78.357 150.465 78.595 150.092 79.071C149.723 79.5423 149.539 80.2307 149.539 81.136C149.539 82.0553 149.723 82.7553 150.092 83.236C150.465 83.7167 150.948 83.957 151.541 83.957ZM168.33 85.105C167.681 85.105 167.105 84.9533 166.601 84.65C166.102 84.342 165.71 83.894 165.425 83.306C165.14 82.7133 164.998 81.99 164.998 81.136C164.998 80.3147 165.145 79.6123 165.439 79.029C165.733 78.441 166.132 77.9907 166.636 77.678C167.14 77.3653 167.705 77.209 168.33 77.209C168.997 77.209 169.581 77.3653 170.08 77.678C170.579 77.9907 170.967 78.441 171.242 79.029C171.522 79.6123 171.662 80.3147 171.662 81.136C171.662 81.9947 171.513 82.7203 171.214 83.313C170.92 83.901 170.521 84.3467 170.017 84.65C169.513 84.9533 168.951 85.105 168.33 85.105ZM168.33 83.957C168.923 83.957 169.403 83.726 169.772 83.264C170.145 82.7973 170.332 82.088 170.332 81.136C170.332 80.2307 170.15 79.5423 169.786 79.071C169.427 78.595 168.941 78.357 168.33 78.357C167.737 78.357 167.254 78.595 166.881 79.071C166.512 79.5423 166.328 80.2307 166.328 81.136C166.328 82.0553 166.512 82.7553 166.881 83.236C167.254 83.7167 167.737 83.957 168.33 83.957ZM176.017 85.154C175.355 85.154 174.818 84.93 174.407 84.482C173.997 84.034 173.791 83.4087 173.791 82.606V77.356H175.086V82.34C175.086 82.872 175.191 83.271 175.401 83.537C175.611 83.803 175.952 83.936 176.423 83.936C176.839 83.936 177.2 83.824 177.508 83.6C177.821 83.3713 178.082 83.0563 178.292 82.655V77.356H179.601V85H178.481L178.334 82.347L178.474 82.697C178.418 83.145 178.292 83.5557 178.096 83.929C177.905 84.2977 177.637 84.594 177.291 84.818C176.951 85.042 176.526 85.154 176.017 85.154ZM181.738 85V83.943H187.065V85H181.738ZM181.661 78.553V77.349H183.901L183.95 78.553H181.661ZM183.236 84.86V79.295C183.236 79.0383 183.278 78.8587 183.362 78.756C183.451 78.6533 183.593 78.5857 183.789 78.553L183.236 78.14V77.349H184.363L184.454 79.4C184.571 78.9613 184.755 78.5787 185.007 78.252C185.259 77.9207 185.555 77.664 185.896 77.482C186.237 77.2953 186.591 77.202 186.96 77.202C187.595 77.202 188.087 77.4377 188.437 77.909C188.787 78.3757 188.95 79.0897 188.927 80.051H187.653C187.644 79.4583 187.543 79.0383 187.352 78.791C187.165 78.5437 186.864 78.42 186.449 78.42C186.076 78.42 185.709 78.5647 185.35 78.854C184.991 79.1387 184.72 79.484 184.538 79.89V83.39C184.538 83.5393 184.503 83.6607 184.433 83.754C184.368 83.8427 184.26 83.9057 184.111 83.943L184.538 84.202V84.86H183.236ZM201.81 84.818V79.414C201.81 79.1807 201.852 78.9847 201.936 78.826C202.02 78.6627 202.183 78.5717 202.426 78.553L201.81 78.315L201.761 77.72L203.091 77.363L203.07 84.818H201.81ZM199.318 85V83.943H205.345V85H199.318ZM199.108 78.553V77.363H203.091L202.762 78.553H199.108ZM202.391 76.019C202.106 76.019 201.864 75.921 201.663 75.725C201.467 75.529 201.369 75.2747 201.369 74.962C201.369 74.6447 201.467 74.388 201.663 74.192C201.864 73.9913 202.106 73.891 202.391 73.891C202.676 73.891 202.916 73.9913 203.112 74.192C203.313 74.388 203.413 74.6447 203.413 74.962C203.413 75.2747 203.313 75.529 203.112 75.725C202.911 75.921 202.671 76.019 202.391 76.019ZM207.447 85V77.349H208.574L208.707 80.121L208.574 79.652C208.676 78.8633 208.942 78.259 209.372 77.839C209.801 77.4143 210.363 77.202 211.059 77.202C211.768 77.202 212.309 77.4307 212.683 77.888C213.061 78.3453 213.25 79.0033 213.25 79.862V85H211.948V80.289C211.948 79.6357 211.84 79.162 211.626 78.868C211.416 78.5693 211.073 78.42 210.597 78.42C210.2 78.42 209.841 78.5343 209.519 78.763C209.197 78.987 208.94 79.2997 208.749 79.701V85H207.447ZM218.781 85.119C218.417 85.119 218.058 85.0793 217.703 85C217.348 84.9253 217.022 84.8017 216.723 84.629C216.424 84.4517 216.179 84.2137 215.988 83.915C215.801 83.6163 215.689 83.243 215.652 82.795H216.996C217.043 83.2337 217.241 83.551 217.591 83.747C217.941 83.943 218.342 84.041 218.795 84.041C219.318 84.041 219.733 83.9687 220.041 83.824C220.354 83.6747 220.51 83.3923 220.51 82.977C220.51 82.7297 220.435 82.529 220.286 82.375C220.141 82.221 219.929 82.0927 219.649 81.99C219.374 81.8827 219.038 81.78 218.641 81.682C218.314 81.6027 217.99 81.514 217.668 81.416C217.351 81.3133 217.061 81.1803 216.8 81.017C216.543 80.8537 216.338 80.6367 216.184 80.366C216.03 80.0953 215.953 79.75 215.953 79.33C215.953 78.9147 216.063 78.5483 216.282 78.231C216.506 77.9137 216.828 77.6663 217.248 77.489C217.668 77.3117 218.177 77.223 218.774 77.223C219.255 77.223 219.7 77.2977 220.111 77.447C220.526 77.5917 220.865 77.8273 221.126 78.154C221.392 78.476 221.539 78.9053 221.567 79.442H220.258C220.244 79.218 220.183 79.0197 220.076 78.847C219.969 78.6743 219.808 78.539 219.593 78.441C219.378 78.343 219.103 78.294 218.767 78.294C218.459 78.294 218.188 78.3267 217.955 78.392C217.722 78.4573 217.54 78.5647 217.409 78.714C217.278 78.8633 217.213 79.064 217.213 79.316C217.213 79.5633 217.29 79.7663 217.444 79.925C217.603 80.0837 217.82 80.2143 218.095 80.317C218.37 80.415 218.685 80.5083 219.04 80.597C219.348 80.6717 219.665 80.7603 219.992 80.863C220.319 80.9657 220.62 81.0987 220.895 81.262C221.17 81.4253 221.392 81.6377 221.56 81.899C221.733 82.1557 221.819 82.48 221.819 82.872C221.814 83.544 221.569 84.0877 221.084 84.503C220.603 84.9137 219.836 85.119 218.781 85.119ZM227.939 85.105C227.453 85.105 227.036 85.028 226.686 84.874C226.34 84.72 226.074 84.4797 225.888 84.153C225.706 83.8217 225.615 83.3923 225.615 82.865V79.498C225.615 79.372 225.636 79.239 225.678 79.099C225.72 78.959 225.787 78.8353 225.881 78.728C225.979 78.6207 226.107 78.5553 226.266 78.532L225.608 77.664L225.636 77.426L225.951 74.682H226.966V82.662C226.966 83.1567 227.066 83.4857 227.267 83.649C227.472 83.8077 227.81 83.887 228.282 83.887C228.604 83.887 228.881 83.8683 229.115 83.831C229.353 83.7937 229.563 83.7447 229.745 83.684C229.931 83.6233 230.109 83.558 230.277 83.488V84.734C229.997 84.8367 229.672 84.9253 229.304 85C228.94 85.07 228.485 85.105 227.939 85.105ZM223.83 78.532V77.356H229.626V78.532H223.83ZM234.744 85.084C234.025 85.084 233.456 84.8927 233.036 84.51C232.621 84.1227 232.413 83.6023 232.413 82.949C232.413 82.3797 232.597 81.9153 232.966 81.556C233.339 81.192 233.906 80.9377 234.667 80.793C234.961 80.737 235.26 80.6903 235.563 80.653C235.866 80.6157 236.16 80.5853 236.445 80.562C236.73 80.534 236.989 80.5153 237.222 80.506V79.918C237.222 79.344 237.089 78.9333 236.823 78.686C236.562 78.4387 236.153 78.315 235.598 78.315C235.015 78.315 234.574 78.4363 234.275 78.679C233.981 78.917 233.843 79.3277 233.862 79.911H232.644C232.588 79.3697 232.674 78.8983 232.903 78.497C233.136 78.091 233.484 77.776 233.946 77.552C234.413 77.328 234.966 77.216 235.605 77.216C236.548 77.216 237.262 77.4493 237.747 77.916C238.232 78.378 238.475 79.0593 238.475 79.96V85H237.229L237.222 83.341C237.124 83.6817 236.956 83.985 236.718 84.251C236.48 84.5123 236.191 84.7177 235.85 84.867C235.514 85.0117 235.145 85.084 234.744 85.084ZM235.115 84.055C235.428 84.055 235.733 83.9967 236.032 83.88C236.335 83.7587 236.597 83.6023 236.816 83.411C237.035 83.215 237.171 83.005 237.222 82.781V81.297C237.054 81.3063 236.858 81.325 236.634 81.353C236.415 81.3763 236.195 81.4067 235.976 81.444C235.757 81.4767 235.563 81.5117 235.395 81.549C234.798 81.6797 234.38 81.8477 234.142 82.053C233.904 82.2583 233.785 82.5337 233.785 82.879C233.785 83.243 233.899 83.53 234.128 83.74C234.361 83.9453 234.69 84.0503 235.115 84.055ZM244.035 88.171C243.325 88.171 242.7 88.08 242.159 87.898C241.622 87.716 241.202 87.457 240.899 87.121C240.595 86.7897 240.444 86.3977 240.444 85.945C240.444 85.6277 240.514 85.35 240.654 85.112C240.798 84.8787 240.999 84.692 241.256 84.552C241.512 84.4073 241.809 84.3233 242.145 84.3L242.439 84.335C242.322 84.4097 242.208 84.5007 242.096 84.608C241.988 84.7153 241.9 84.853 241.83 85.021C241.76 85.1937 241.725 85.4083 241.725 85.665C241.725 85.917 241.792 86.148 241.928 86.358C242.068 86.568 242.306 86.736 242.642 86.862C242.978 86.9927 243.437 87.058 244.021 87.058C244.781 87.058 245.332 86.9413 245.673 86.708C246.013 86.4747 246.184 86.1457 246.184 85.721C246.184 85.4457 246.093 85.2427 245.911 85.112C245.729 84.9813 245.372 84.881 244.84 84.811L243.027 84.573C242.411 84.4937 241.951 84.3747 241.648 84.216C241.349 84.0527 241.151 83.8777 241.053 83.691C240.959 83.4997 240.913 83.3247 240.913 83.166C240.913 82.9373 240.971 82.746 241.088 82.592C241.209 82.438 241.361 82.3167 241.543 82.228C241.729 82.1347 241.921 82.0717 242.117 82.039C242.317 82.0017 242.495 81.99 242.649 82.004C242.49 82.0693 242.362 82.1603 242.264 82.277C242.166 82.389 242.117 82.5477 242.117 82.753C242.117 82.9723 242.205 83.138 242.383 83.25C242.565 83.3573 242.87 83.439 243.3 83.495L245.12 83.719C245.764 83.803 246.256 83.9477 246.597 84.153C246.942 84.3537 247.178 84.5893 247.304 84.86C247.43 85.1307 247.493 85.413 247.493 85.707C247.493 86.113 247.409 86.47 247.241 86.778C247.077 87.086 246.842 87.3427 246.534 87.548C246.23 87.7533 245.866 87.9073 245.442 88.01C245.022 88.1173 244.553 88.171 244.035 88.171ZM243.986 82.312C243.099 82.312 242.394 82.0833 241.872 81.626C241.349 81.1687 241.088 80.5527 241.088 79.778C241.088 78.9893 241.351 78.3663 241.879 77.909C242.411 77.447 243.118 77.2207 244 77.23C244.574 77.2347 245.075 77.3397 245.505 77.545C245.939 77.7503 246.277 78.042 246.52 78.42C246.762 78.798 246.884 79.2507 246.884 79.778C246.884 80.5573 246.622 81.1757 246.1 81.633C245.582 82.0857 244.877 82.312 243.986 82.312ZM244 81.255C244.55 81.255 244.966 81.129 245.246 80.877C245.526 80.6203 245.666 80.2517 245.666 79.771C245.666 79.2997 245.523 78.9357 245.239 78.679C244.954 78.4177 244.532 78.287 243.972 78.287C243.407 78.287 242.987 78.413 242.712 78.665C242.441 78.917 242.306 79.2833 242.306 79.764C242.306 80.24 242.448 80.6087 242.733 80.87C243.017 81.1267 243.44 81.255 244 81.255ZM244.833 77.503L244.742 77.433C244.784 77.0643 244.893 76.761 245.071 76.523C245.253 76.2803 245.474 76.1007 245.736 75.984C245.997 75.8627 246.268 75.802 246.548 75.802C246.692 75.802 246.807 75.8067 246.891 75.816C246.979 75.8253 247.052 75.8417 247.108 75.865V77.118C246.963 77.0947 246.828 77.076 246.702 77.062C246.576 77.048 246.424 77.041 246.247 77.041C246.06 77.041 245.885 77.0527 245.722 77.076C245.558 77.0993 245.404 77.1437 245.26 77.209C245.115 77.2743 244.973 77.3723 244.833 77.503ZM248.894 85V83.943H254.221V85H248.894ZM248.817 78.553V77.349H251.057L251.106 78.553H248.817ZM250.392 84.86V79.295C250.392 79.0383 250.434 78.8587 250.518 78.756C250.607 78.6533 250.749 78.5857 250.945 78.553L250.392 78.14V77.349H251.519L251.61 79.4C251.727 78.9613 251.911 78.5787 252.163 78.252C252.415 77.9207 252.712 77.664 253.052 77.482C253.393 77.2953 253.748 77.202 254.116 77.202C254.751 77.202 255.243 77.4377 255.593 77.909C255.943 78.3757 256.107 79.0897 256.083 80.051H254.809C254.8 79.4583 254.7 79.0383 254.508 78.791C254.322 78.5437 254.021 78.42 253.605 78.42C253.232 78.42 252.866 78.5647 252.506 78.854C252.147 79.1387 251.876 79.484 251.694 79.89V83.39C251.694 83.5393 251.659 83.6607 251.589 83.754C251.524 83.8427 251.417 83.9057 251.267 83.943L251.694 84.202V84.86H250.392ZM259.928 85.084C259.209 85.084 258.64 84.8927 258.22 84.51C257.804 84.1227 257.597 83.6023 257.597 82.949C257.597 82.3797 257.781 81.9153 258.15 81.556C258.523 81.192 259.09 80.9377 259.851 80.793C260.145 80.737 260.443 80.6903 260.747 80.653C261.05 80.6157 261.344 80.5853 261.629 80.562C261.913 80.534 262.172 80.5153 262.406 80.506V79.918C262.406 79.344 262.273 78.9333 262.007 78.686C261.745 78.4387 261.337 78.315 260.782 78.315C260.198 78.315 259.757 78.4363 259.459 78.679C259.165 78.917 259.027 79.3277 259.046 79.911H257.828C257.772 79.3697 257.858 78.8983 258.087 78.497C258.32 78.091 258.668 77.776 259.13 77.552C259.596 77.328 260.149 77.216 260.789 77.216C261.731 77.216 262.445 77.4493 262.931 77.916C263.416 78.378 263.659 79.0593 263.659 79.96V85H262.413L262.406 83.341C262.308 83.6817 262.14 83.985 261.902 84.251C261.664 84.5123 261.374 84.7177 261.034 84.867C260.698 85.0117 260.329 85.084 259.928 85.084ZM260.299 84.055C260.611 84.055 260.917 83.9967 261.216 83.88C261.519 83.7587 261.78 83.6023 262 83.411C262.219 83.215 262.354 83.005 262.406 82.781V81.297C262.238 81.3063 262.042 81.325 261.818 81.353C261.598 81.3763 261.379 81.4067 261.16 81.444C260.94 81.4767 260.747 81.5117 260.579 81.549C259.981 81.6797 259.564 81.8477 259.326 82.053C259.088 82.2583 258.969 82.5337 258.969 82.879C258.969 83.243 259.083 83.53 259.312 83.74C259.545 83.9453 259.874 84.0503 260.299 84.055ZM265.417 85L265.445 77.356H266.481L266.593 79.652L266.495 79.729C266.561 78.9357 266.747 78.3173 267.055 77.874C267.368 77.426 267.8 77.202 268.35 77.202C268.649 77.202 268.899 77.2697 269.099 77.405C269.3 77.5357 269.449 77.7573 269.547 78.07C269.65 78.3827 269.701 78.8143 269.701 79.365L269.708 79.421V85H268.56V79.645C268.56 79.1877 268.502 78.8703 268.385 78.693C268.269 78.511 268.096 78.42 267.867 78.42C267.667 78.42 267.452 78.497 267.223 78.651C266.999 78.8003 266.794 79.1037 266.607 79.561L266.579 85H265.417ZM271.654 85V79.596C271.654 79.19 271.596 78.8937 271.479 78.707C271.367 78.5157 271.183 78.42 270.926 78.42C270.642 78.42 270.401 78.5203 270.205 78.721C270.009 78.917 269.844 79.197 269.708 79.561L269.554 80.002L269.617 79.638C269.706 78.8447 269.907 78.2403 270.219 77.825C270.532 77.4097 270.947 77.202 271.465 77.202C271.913 77.202 272.249 77.3747 272.473 77.72C272.702 78.0653 272.816 78.6323 272.816 79.421V85H271.654ZM282.892 87.821V77.356H284.173L284.187 78.392V83.271L284.096 83.642L284.187 85.007V87.821H282.892ZM286.525 77.216C287.076 77.216 287.552 77.3607 287.953 77.65C288.359 77.9347 288.672 78.357 288.891 78.917C289.115 79.4723 289.227 80.156 289.227 80.968C289.227 81.822 289.083 82.557 288.793 83.173C288.504 83.789 288.121 84.2627 287.645 84.594C287.169 84.9207 286.649 85.084 286.084 85.084C285.809 85.084 285.529 85.021 285.244 84.895C284.964 84.7643 284.719 84.587 284.509 84.363C284.299 84.1343 284.162 83.873 284.096 83.579L283.69 83.376L284.152 82.893C284.222 83.1497 284.344 83.3573 284.516 83.516C284.694 83.6747 284.894 83.789 285.118 83.859C285.347 83.929 285.569 83.964 285.783 83.964C286.189 83.964 286.551 83.8497 286.868 83.621C287.186 83.3923 287.435 83.0563 287.617 82.613C287.799 82.165 287.89 81.6143 287.89 80.961C287.89 80.1257 287.743 79.4817 287.449 79.029C287.16 78.5763 286.703 78.35 286.077 78.35C285.853 78.35 285.611 78.399 285.349 78.497C285.088 78.595 284.85 78.7467 284.635 78.952C284.421 79.1573 284.271 79.4233 284.187 79.75L284.117 79.281L284.18 79.029C284.236 78.679 284.376 78.3687 284.6 78.098C284.824 77.8227 285.104 77.608 285.44 77.454C285.776 77.2953 286.138 77.216 286.525 77.216ZM293.506 85.084C292.787 85.084 292.218 84.8927 291.798 84.51C291.383 84.1227 291.175 83.6023 291.175 82.949C291.175 82.3797 291.359 81.9153 291.728 81.556C292.101 81.192 292.668 80.9377 293.429 80.793C293.723 80.737 294.022 80.6903 294.325 80.653C294.628 80.6157 294.922 80.5853 295.207 80.562C295.492 80.534 295.751 80.5153 295.984 80.506V79.918C295.984 79.344 295.851 78.9333 295.585 78.686C295.324 78.4387 294.915 78.315 294.36 78.315C293.777 78.315 293.336 78.4363 293.037 78.679C292.743 78.917 292.605 79.3277 292.624 79.911H291.406C291.35 79.3697 291.436 78.8983 291.665 78.497C291.898 78.091 292.246 77.776 292.708 77.552C293.175 77.328 293.728 77.216 294.367 77.216C295.31 77.216 296.024 77.4493 296.509 77.916C296.994 78.378 297.237 79.0593 297.237 79.96V85H295.991L295.984 83.341C295.886 83.6817 295.718 83.985 295.48 84.251C295.242 84.5123 294.953 84.7177 294.612 84.867C294.276 85.0117 293.907 85.084 293.506 85.084ZM293.877 84.055C294.19 84.055 294.495 83.9967 294.794 83.88C295.097 83.7587 295.359 83.6023 295.578 83.411C295.797 83.215 295.933 83.005 295.984 82.781V81.297C295.816 81.3063 295.62 81.325 295.396 81.353C295.177 81.3763 294.957 81.4067 294.738 81.444C294.519 81.4767 294.325 81.5117 294.157 81.549C293.56 81.6797 293.142 81.8477 292.904 82.053C292.666 82.2583 292.547 82.5337 292.547 82.879C292.547 83.243 292.661 83.53 292.89 83.74C293.123 83.9453 293.452 84.0503 293.877 84.055ZM302.796 88.171C302.087 88.171 301.462 88.08 300.92 87.898C300.384 87.716 299.964 87.457 299.66 87.121C299.357 86.7897 299.205 86.3977 299.205 85.945C299.205 85.6277 299.275 85.35 299.415 85.112C299.56 84.8787 299.761 84.692 300.017 84.552C300.274 84.4073 300.57 84.3233 300.906 84.3L301.2 84.335C301.084 84.4097 300.969 84.5007 300.857 84.608C300.75 84.7153 300.661 84.853 300.591 85.021C300.521 85.1937 300.486 85.4083 300.486 85.665C300.486 85.917 300.554 86.148 300.689 86.358C300.829 86.568 301.067 86.736 301.403 86.862C301.739 86.9927 302.199 87.058 302.782 87.058C303.543 87.058 304.094 86.9413 304.434 86.708C304.775 86.4747 304.945 86.1457 304.945 85.721C304.945 85.4457 304.854 85.2427 304.672 85.112C304.49 84.9813 304.133 84.881 303.601 84.811L301.788 84.573C301.172 84.4937 300.713 84.3747 300.409 84.216C300.111 84.0527 299.912 83.8777 299.814 83.691C299.721 83.4997 299.674 83.3247 299.674 83.166C299.674 82.9373 299.733 82.746 299.849 82.592C299.971 82.438 300.122 82.3167 300.304 82.228C300.491 82.1347 300.682 82.0717 300.878 82.039C301.079 82.0017 301.256 81.99 301.41 82.004C301.252 82.0693 301.123 82.1603 301.025 82.277C300.927 82.389 300.878 82.5477 300.878 82.753C300.878 82.9723 300.967 83.138 301.144 83.25C301.326 83.3573 301.632 83.439 302.061 83.495L303.881 83.719C304.525 83.803 305.018 83.9477 305.358 84.153C305.704 84.3537 305.939 84.5893 306.065 84.86C306.191 85.1307 306.254 85.413 306.254 85.707C306.254 86.113 306.17 86.47 306.002 86.778C305.839 87.086 305.603 87.3427 305.295 87.548C304.992 87.7533 304.628 87.9073 304.203 88.01C303.783 88.1173 303.314 88.171 302.796 88.171ZM302.747 82.312C301.861 82.312 301.156 82.0833 300.633 81.626C300.111 81.1687 299.849 80.5527 299.849 79.778C299.849 78.9893 300.113 78.3663 300.64 77.909C301.172 77.447 301.879 77.2207 302.761 77.23C303.335 77.2347 303.837 77.3397 304.266 77.545C304.7 77.7503 305.039 78.042 305.281 78.42C305.524 78.798 305.645 79.2507 305.645 79.778C305.645 80.5573 305.384 81.1757 304.861 81.633C304.343 82.0857 303.639 82.312 302.747 82.312ZM302.761 81.255C303.312 81.255 303.727 81.129 304.007 80.877C304.287 80.6203 304.427 80.2517 304.427 79.771C304.427 79.2997 304.285 78.9357 304 78.679C303.716 78.4177 303.293 78.287 302.733 78.287C302.169 78.287 301.749 78.413 301.473 78.665C301.203 78.917 301.067 79.2833 301.067 79.764C301.067 80.24 301.21 80.6087 301.494 80.87C301.779 81.1267 302.201 81.255 302.761 81.255ZM303.594 77.503L303.503 77.433C303.545 77.0643 303.655 76.761 303.832 76.523C304.014 76.2803 304.236 76.1007 304.497 75.984C304.759 75.8627 305.029 75.802 305.309 75.802C305.454 75.802 305.568 75.8067 305.652 75.816C305.741 75.8253 305.813 75.8417 305.869 75.865V77.118C305.725 77.0947 305.589 77.076 305.463 77.062C305.337 77.048 305.186 77.041 305.008 77.041C304.822 77.041 304.647 77.0527 304.483 77.076C304.32 77.0993 304.166 77.1437 304.021 77.209C303.877 77.2743 303.734 77.3723 303.594 77.503ZM311.275 85.105C310.645 85.105 310.071 84.9533 309.553 84.65C309.04 84.3467 308.629 83.901 308.321 83.313C308.018 82.7203 307.866 81.997 307.866 81.143C307.866 80.317 308.008 79.61 308.293 79.022C308.582 78.434 308.977 77.986 309.476 77.678C309.98 77.3653 310.552 77.209 311.191 77.209C312.124 77.209 312.873 77.5193 313.438 78.14C314.003 78.756 314.285 79.6287 314.285 80.758C314.285 80.9073 314.28 81.031 314.271 81.129C314.262 81.227 314.255 81.3297 314.25 81.437H309.14C309.149 82.011 309.254 82.4847 309.455 82.858C309.66 83.2313 309.924 83.5113 310.246 83.698C310.573 83.88 310.923 83.971 311.296 83.971C311.753 83.971 312.115 83.8823 312.381 83.705C312.647 83.5277 312.824 83.236 312.913 82.83H314.138C314.091 83.306 313.942 83.7143 313.69 84.055C313.443 84.391 313.114 84.65 312.703 84.832C312.292 85.014 311.816 85.105 311.275 85.105ZM309.14 80.954C309.177 80.758 309.259 80.6273 309.385 80.562C309.511 80.492 309.681 80.457 309.896 80.457H312.969C312.964 79.7617 312.815 79.2367 312.521 78.882C312.227 78.5227 311.788 78.343 311.205 78.343C310.533 78.343 310.022 78.5763 309.672 79.043C309.327 79.5097 309.149 80.1467 309.14 80.954ZM319.515 85.119C319.151 85.119 318.792 85.0793 318.437 85C318.083 84.9253 317.756 84.8017 317.457 84.629C317.159 84.4517 316.914 84.2137 316.722 83.915C316.536 83.6163 316.424 83.243 316.386 82.795H317.73C317.777 83.2337 317.975 83.551 318.325 83.747C318.675 83.943 319.077 84.041 319.529 84.041C320.052 84.041 320.467 83.9687 320.775 83.824C321.088 83.6747 321.244 83.3923 321.244 82.977C321.244 82.7297 321.17 82.529 321.02 82.375C320.876 82.221 320.663 82.0927 320.383 81.99C320.108 81.8827 319.772 81.78 319.375 81.682C319.049 81.6027 318.724 81.514 318.402 81.416C318.085 81.3133 317.796 81.1803 317.534 81.017C317.278 80.8537 317.072 80.6367 316.918 80.366C316.764 80.0953 316.687 79.75 316.687 79.33C316.687 78.9147 316.797 78.5483 317.016 78.231C317.24 77.9137 317.562 77.6663 317.982 77.489C318.402 77.3117 318.911 77.223 319.508 77.223C319.989 77.223 320.435 77.2977 320.845 77.447C321.261 77.5917 321.599 77.8273 321.86 78.154C322.126 78.476 322.273 78.9053 322.301 79.442H320.992C320.978 79.218 320.918 79.0197 320.81 78.847C320.703 78.6743 320.542 78.539 320.327 78.441C320.113 78.343 319.837 78.294 319.501 78.294C319.193 78.294 318.923 78.3267 318.689 78.392C318.456 78.4573 318.274 78.5647 318.143 78.714C318.013 78.8633 317.947 79.064 317.947 79.316C317.947 79.5633 318.024 79.7663 318.178 79.925C318.337 80.0837 318.554 80.2143 318.829 80.317C319.105 80.415 319.42 80.5083 319.774 80.597C320.082 80.6717 320.4 80.7603 320.726 80.863C321.053 80.9657 321.354 81.0987 321.629 81.262C321.905 81.4253 322.126 81.6377 322.294 81.899C322.467 82.1557 322.553 82.48 322.553 82.872C322.549 83.544 322.304 84.0877 321.818 84.503C321.338 84.9137 320.57 85.119 319.515 85.119ZM327.826 85.203C327.499 85.203 327.229 85.0933 327.014 84.874C326.799 84.65 326.692 84.356 326.692 83.992C326.692 83.6327 326.799 83.341 327.014 83.117C327.229 82.893 327.499 82.781 327.826 82.781C328.153 82.781 328.423 82.893 328.638 83.117C328.853 83.341 328.96 83.6327 328.96 83.992C328.96 84.356 328.853 84.65 328.638 84.874C328.423 85.0933 328.153 85.203 327.826 85.203ZM327.826 80.044C327.499 80.044 327.229 79.9343 327.014 79.715C326.799 79.491 326.692 79.197 326.692 78.833C326.692 78.4737 326.799 78.182 327.014 77.958C327.229 77.734 327.499 77.622 327.826 77.622C328.153 77.622 328.423 77.734 328.638 77.958C328.853 78.182 328.96 78.4737 328.96 78.833C328.96 79.197 328.853 79.491 328.638 79.715C328.423 79.9343 328.153 80.044 327.826 80.044Z" fill="black"/>
<rect x="55.001" y="102" width="218.148" height="36" rx="18" fill="black" fill-opacity="0.1"/>
<g clip-path="url(#clip0_658_1703)">
<path d="M83.001 110.161C86.2072 110.161 86.5869 110.175 87.8479 110.231C89.0197 110.283 89.6525 110.48 90.0744 110.644C90.6322 110.859 91.0354 111.122 91.4525 111.539C91.8744 111.961 92.1322 112.359 92.3479 112.917C92.5119 113.339 92.7088 113.977 92.7604 115.144C92.8166 116.409 92.8307 116.789 92.8307 119.991C92.8307 123.197 92.8166 123.577 92.7604 124.838C92.7088 126.009 92.5119 126.642 92.3479 127.064C92.1322 127.622 91.8697 128.025 91.4525 128.442C91.0307 128.864 90.6322 129.122 90.0744 129.338C89.6525 129.502 89.015 129.698 87.8479 129.75C86.5822 129.806 86.2025 129.82 83.001 129.82C79.7947 129.82 79.415 129.806 78.1541 129.75C76.9822 129.698 76.3494 129.502 75.9275 129.338C75.3697 129.122 74.9666 128.859 74.5494 128.442C74.1275 128.02 73.8697 127.622 73.6541 127.064C73.49 126.642 73.2932 126.005 73.2416 124.838C73.1854 123.572 73.1713 123.192 73.1713 119.991C73.1713 116.784 73.1854 116.405 73.2416 115.144C73.2932 113.972 73.49 113.339 73.6541 112.917C73.8697 112.359 74.1322 111.956 74.5494 111.539C74.9713 111.117 75.3697 110.859 75.9275 110.644C76.3494 110.48 76.9869 110.283 78.1541 110.231C79.415 110.175 79.7947 110.161 83.001 110.161ZM83.001 108C79.7432 108 79.3354 108.014 78.0557 108.07C76.7807 108.127 75.9041 108.333 75.1447 108.628C74.3525 108.937 73.6822 109.345 73.0166 110.016C72.3463 110.681 71.9385 111.352 71.6291 112.139C71.3338 112.903 71.1275 113.775 71.0713 115.05C71.015 116.334 71.001 116.742 71.001 120C71.001 123.258 71.015 123.666 71.0713 124.945C71.1275 126.22 71.3338 127.097 71.6291 127.856C71.9385 128.648 72.3463 129.319 73.0166 129.984C73.6822 130.65 74.3525 131.062 75.14 131.367C75.9041 131.663 76.776 131.869 78.051 131.925C79.3307 131.981 79.7385 131.995 82.9963 131.995C86.2541 131.995 86.6619 131.981 87.9416 131.925C89.2166 131.869 90.0932 131.663 90.8525 131.367C91.64 131.062 92.3104 130.65 92.976 129.984C93.6416 129.319 94.0541 128.648 94.3588 127.861C94.6541 127.097 94.8604 126.225 94.9166 124.95C94.9729 123.67 94.9869 123.263 94.9869 120.005C94.9869 116.747 94.9729 116.339 94.9166 115.059C94.8604 113.784 94.6541 112.908 94.3588 112.148C94.0635 111.352 93.6557 110.681 92.9854 110.016C92.3197 109.35 91.6494 108.938 90.8619 108.633C90.0979 108.337 89.226 108.131 87.951 108.075C86.6666 108.014 86.2588 108 83.001 108Z" fill="black"/>
<path d="M83.001 113.836C79.5979 113.836 76.8369 116.597 76.8369 120C76.8369 123.403 79.5979 126.164 83.001 126.164C86.4041 126.164 89.165 123.403 89.165 120C89.165 116.597 86.4041 113.836 83.001 113.836ZM83.001 123.998C80.7932 123.998 79.0025 122.208 79.0025 120C79.0025 117.792 80.7932 116.002 83.001 116.002C85.2088 116.002 86.9994 117.792 86.9994 120C86.9994 122.208 85.2088 123.998 83.001 123.998Z" fill="black"/>
<path d="M90.8479 113.592C90.8479 114.389 90.201 115.031 89.4088 115.031C88.6119 115.031 87.9697 114.385 87.9697 113.592C87.9697 112.796 88.6166 112.153 89.4088 112.153C90.201 112.153 90.8479 112.8 90.8479 113.592Z" fill="black"/>
</g>
<rect x="55.001" y="154" width="155.148" height="36" rx="18" fill="black" fill-opacity="0.1"/>
<g clip-path="url(#clip1_658_1703)">
<path d="M83.001 162.161C86.2072 162.161 86.5869 162.175 87.8479 162.231C89.0197 162.283 89.6525 162.48 90.0744 162.644C90.6322 162.859 91.0354 163.122 91.4525 163.539C91.8744 163.961 92.1322 164.359 92.3479 164.917C92.5119 165.339 92.7088 165.977 92.7604 167.144C92.8166 168.409 92.8307 168.789 92.8307 171.991C92.8307 175.197 92.8166 175.577 92.7604 176.838C92.7088 178.009 92.5119 178.642 92.3479 179.064C92.1322 179.622 91.8697 180.025 91.4525 180.442C91.0307 180.864 90.6322 181.122 90.0744 181.338C89.6525 181.502 89.015 181.698 87.8479 181.75C86.5822 181.806 86.2025 181.82 83.001 181.82C79.7947 181.82 79.415 181.806 78.1541 181.75C76.9822 181.698 76.3494 181.502 75.9275 181.338C75.3697 181.122 74.9666 180.859 74.5494 180.442C74.1275 180.02 73.8697 179.622 73.6541 179.064C73.49 178.642 73.2932 178.005 73.2416 176.838C73.1854 175.572 73.1713 175.192 73.1713 171.991C73.1713 168.784 73.1854 168.405 73.2416 167.144C73.2932 165.972 73.49 165.339 73.6541 164.917C73.8697 164.359 74.1322 163.956 74.5494 163.539C74.9713 163.117 75.3697 162.859 75.9275 162.644C76.3494 162.48 76.9869 162.283 78.1541 162.231C79.415 162.175 79.7947 162.161 83.001 162.161ZM83.001 160C79.7432 160 79.3354 160.014 78.0557 160.07C76.7807 160.127 75.9041 160.333 75.1447 160.628C74.3525 160.937 73.6822 161.345 73.0166 162.016C72.3463 162.681 71.9385 163.352 71.6291 164.139C71.3338 164.903 71.1275 165.775 71.0713 167.05C71.015 168.334 71.001 168.742 71.001 172C71.001 175.258 71.015 175.666 71.0713 176.945C71.1275 178.22 71.3338 179.097 71.6291 179.856C71.9385 180.648 72.3463 181.319 73.0166 181.984C73.6822 182.65 74.3525 183.062 75.14 183.367C75.9041 183.663 76.776 183.869 78.051 183.925C79.3307 183.981 79.7385 183.995 82.9963 183.995C86.2541 183.995 86.6619 183.981 87.9416 183.925C89.2166 183.869 90.0932 183.663 90.8525 183.367C91.64 183.062 92.3104 182.65 92.976 181.984C93.6416 181.319 94.0541 180.648 94.3588 179.861C94.6541 179.097 94.8604 178.225 94.9166 176.95C94.9729 175.67 94.9869 175.263 94.9869 172.005C94.9869 168.747 94.9729 168.339 94.9166 167.059C94.8604 165.784 94.6541 164.908 94.3588 164.148C94.0635 163.352 93.6557 162.681 92.9854 162.016C92.3197 161.35 91.6494 160.938 90.8619 160.633C90.0979 160.337 89.226 160.131 87.951 160.075C86.6666 160.014 86.2588 160 83.001 160Z" fill="black"/>
<path d="M83.001 165.836C79.5979 165.836 76.8369 168.597 76.8369 172C76.8369 175.403 79.5979 178.164 83.001 178.164C86.4041 178.164 89.165 175.403 89.165 172C89.165 168.597 86.4041 165.836 83.001 165.836ZM83.001 175.998C80.7932 175.998 79.0025 174.208 79.0025 172C79.0025 169.792 80.7932 168.002 83.001 168.002C85.2088 168.002 86.9994 169.792 86.9994 172C86.9994 174.208 85.2088 175.998 83.001 175.998Z" fill="black"/>
<path d="M90.8479 165.592C90.8479 166.389 90.201 167.031 89.4088 167.031C88.6119 167.031 87.9697 166.385 87.9697 165.592C87.9697 164.796 88.6166 164.153 89.4088 164.153C90.201 164.153 90.8479 164.8 90.8479 165.592Z" fill="black"/>
</g>
<rect x="55.001" y="206" width="272.148" height="36" rx="18" fill="black" fill-opacity="0.1"/>
<g clip-path="url(#clip2_658_1703)">
<path d="M83.001 214.161C86.2072 214.161 86.5869 214.175 87.8479 214.231C89.0197 214.283 89.6525 214.48 90.0744 214.644C90.6322 214.859 91.0354 215.122 91.4525 215.539C91.8744 215.961 92.1322 216.359 92.3479 216.917C92.5119 217.339 92.7088 217.977 92.7604 219.144C92.8166 220.409 92.8307 220.789 92.8307 223.991C92.8307 227.197 92.8166 227.577 92.7604 228.838C92.7088 230.009 92.5119 230.642 92.3479 231.064C92.1322 231.622 91.8697 232.025 91.4525 232.442C91.0307 232.864 90.6322 233.122 90.0744 233.338C89.6525 233.502 89.015 233.698 87.8479 233.75C86.5822 233.806 86.2025 233.82 83.001 233.82C79.7947 233.82 79.415 233.806 78.1541 233.75C76.9822 233.698 76.3494 233.502 75.9275 233.338C75.3697 233.122 74.9666 232.859 74.5494 232.442C74.1275 232.02 73.8697 231.622 73.6541 231.064C73.49 230.642 73.2932 230.005 73.2416 228.838C73.1854 227.572 73.1713 227.192 73.1713 223.991C73.1713 220.784 73.1854 220.405 73.2416 219.144C73.2932 217.972 73.49 217.339 73.6541 216.917C73.8697 216.359 74.1322 215.956 74.5494 215.539C74.9713 215.117 75.3697 214.859 75.9275 214.644C76.3494 214.48 76.9869 214.283 78.1541 214.231C79.415 214.175 79.7947 214.161 83.001 214.161ZM83.001 212C79.7432 212 79.3354 212.014 78.0557 212.07C76.7807 212.127 75.9041 212.333 75.1447 212.628C74.3525 212.937 73.6822 213.345 73.0166 214.016C72.3463 214.681 71.9385 215.352 71.6291 216.139C71.3338 216.903 71.1275 217.775 71.0713 219.05C71.015 220.334 71.001 220.742 71.001 224C71.001 227.258 71.015 227.666 71.0713 228.945C71.1275 230.22 71.3338 231.097 71.6291 231.856C71.9385 232.648 72.3463 233.319 73.0166 233.984C73.6822 234.65 74.3525 235.062 75.14 235.367C75.9041 235.663 76.776 235.869 78.051 235.925C79.3307 235.981 79.7385 235.995 82.9963 235.995C86.2541 235.995 86.6619 235.981 87.9416 235.925C89.2166 235.869 90.0932 235.663 90.8525 235.367C91.64 235.062 92.3104 234.65 92.976 233.984C93.6416 233.319 94.0541 232.648 94.3588 231.861C94.6541 231.097 94.8604 230.225 94.9166 228.95C94.9729 227.67 94.9869 227.263 94.9869 224.005C94.9869 220.747 94.9729 220.339 94.9166 219.059C94.8604 217.784 94.6541 216.908 94.3588 216.148C94.0635 215.352 93.6557 214.681 92.9854 214.016C92.3197 213.35 91.6494 212.938 90.8619 212.633C90.0979 212.337 89.226 212.131 87.951 212.075C86.6666 212.014 86.2588 212 83.001 212Z" fill="black"/>
<path d="M83.001 217.836C79.5979 217.836 76.8369 220.597 76.8369 224C76.8369 227.403 79.5979 230.164 83.001 230.164C86.4041 230.164 89.165 227.403 89.165 224C89.165 220.597 86.4041 217.836 83.001 217.836ZM83.001 227.998C80.7932 227.998 79.0025 226.208 79.0025 224C79.0025 221.792 80.7932 220.002 83.001 220.002C85.2088 220.002 86.9994 221.792 86.9994 224C86.9994 226.208 85.2088 227.998 83.001 227.998Z" fill="black"/>
<path d="M90.8479 217.592C90.8479 218.389 90.201 219.031 89.4088 219.031C88.6119 219.031 87.9697 218.385 87.9697 217.592C87.9697 216.796 88.6166 216.153 89.4088 216.153C90.201 216.153 90.8479 216.8 90.8479 217.592Z" fill="black"/>
</g>
<rect x="55.001" y="258" width="245.148" height="36" rx="18" fill="black" fill-opacity="0.1"/>
<g clip-path="url(#clip3_658_1703)">
<path d="M83.001 266.161C86.2072 266.161 86.5869 266.175 87.8479 266.231C89.0197 266.283 89.6525 266.48 90.0744 266.644C90.6322 266.859 91.0354 267.122 91.4525 267.539C91.8744 267.961 92.1322 268.359 92.3479 268.917C92.5119 269.339 92.7088 269.977 92.7604 271.144C92.8166 272.409 92.8307 272.789 92.8307 275.991C92.8307 279.197 92.8166 279.577 92.7604 280.838C92.7088 282.009 92.5119 282.642 92.3479 283.064C92.1322 283.622 91.8697 284.025 91.4525 284.442C91.0307 284.864 90.6322 285.122 90.0744 285.338C89.6525 285.502 89.015 285.698 87.8479 285.75C86.5822 285.806 86.2025 285.82 83.001 285.82C79.7947 285.82 79.415 285.806 78.1541 285.75C76.9822 285.698 76.3494 285.502 75.9275 285.338C75.3697 285.122 74.9666 284.859 74.5494 284.442C74.1275 284.02 73.8697 283.622 73.6541 283.064C73.49 282.642 73.2932 282.005 73.2416 280.838C73.1854 279.572 73.1713 279.192 73.1713 275.991C73.1713 272.784 73.1854 272.405 73.2416 271.144C73.2932 269.972 73.49 269.339 73.6541 268.917C73.8697 268.359 74.1322 267.956 74.5494 267.539C74.9713 267.117 75.3697 266.859 75.9275 266.644C76.3494 266.48 76.9869 266.283 78.1541 266.231C79.415 266.175 79.7947 266.161 83.001 266.161ZM83.001 264C79.7432 264 79.3354 264.014 78.0557 264.07C76.7807 264.127 75.9041 264.333 75.1447 264.628C74.3525 264.937 73.6822 265.345 73.0166 266.016C72.3463 266.681 71.9385 267.352 71.6291 268.139C71.3338 268.903 71.1275 269.775 71.0713 271.05C71.015 272.334 71.001 272.742 71.001 276C71.001 279.258 71.015 279.666 71.0713 280.945C71.1275 282.22 71.3338 283.097 71.6291 283.856C71.9385 284.648 72.3463 285.319 73.0166 285.984C73.6822 286.65 74.3525 287.062 75.14 287.367C75.9041 287.663 76.776 287.869 78.051 287.925C79.3307 287.981 79.7385 287.995 82.9963 287.995C86.2541 287.995 86.6619 287.981 87.9416 287.925C89.2166 287.869 90.0932 287.663 90.8525 287.367C91.64 287.062 92.3104 286.65 92.976 285.984C93.6416 285.319 94.0541 284.648 94.3588 283.861C94.6541 283.097 94.8604 282.225 94.9166 280.95C94.9729 279.67 94.9869 279.263 94.9869 276.005C94.9869 272.747 94.9729 272.339 94.9166 271.059C94.8604 269.784 94.6541 268.908 94.3588 268.148C94.0635 267.352 93.6557 266.681 92.9854 266.016C92.3197 265.35 91.6494 264.938 90.8619 264.633C90.0979 264.337 89.226 264.131 87.951 264.075C86.6666 264.014 86.2588 264 83.001 264Z" fill="black"/>
<path d="M83.001 269.836C79.5979 269.836 76.8369 272.597 76.8369 276C76.8369 279.403 79.5979 282.164 83.001 282.164C86.4041 282.164 89.165 279.403 89.165 276C89.165 272.597 86.4041 269.836 83.001 269.836ZM83.001 279.998C80.7932 279.998 79.0025 278.208 79.0025 276C79.0025 273.792 80.7932 272.002 83.001 272.002C85.2088 272.002 86.9994 273.792 86.9994 276C86.9994 278.208 85.2088 279.998 83.001 279.998Z" fill="black"/>
<path d="M90.8479 269.592C90.8479 270.389 90.201 271.031 89.4088 271.031C88.6119 271.031 87.9697 270.385 87.9697 269.592C87.9697 268.796 88.6166 268.153 89.4088 268.153C90.201 268.153 90.8479 268.8 90.8479 269.592Z" fill="black"/>
</g>
</g>
<defs>
<filter id="filter0_d_658_1703" x="0" y="0" width="435.001" height="334" filterUnits="userSpaceOnUse" color-interpolation-filters="sRGB">
<feFlood flood-opacity="0" result="BackgroundImageFix"/>
<feColorMatrix in="SourceAlpha" type="matrix" values="0 0 0 0 0 0 0 0 0 0 0 0 0 0 0 0 0 0 127 0" result="hardAlpha"/>
<feOffset dy="6"/>
<feGaussianBlur stdDeviation="8"/>
<feColorMatrix type="matrix" values="0 0 0 0 0 0 0 0 0 0 0 0 0 0 0 0 0 0 0.36 0"/>
<feBlend mode="normal" in2="BackgroundImageFix" result="effect1_dropShadow_658_1703"/>
<feBlend mode="normal" in="SourceGraphic" in2="effect1_dropShadow_658_1703" result="shape"/>
</filter>
<clipPath id="clip0_658_1703">
<rect width="24" height="24" fill="white" transform="translate(71.001 108)"/>
</clipPath>
<clipPath id="clip1_658_1703">
<rect width="24" height="24" fill="white" transform="translate(71.001 160)"/>
</clipPath>
<clipPath id="clip2_658_1703">
<rect width="24" height="24" fill="white" transform="translate(71.001 212)"/>
</clipPath>
<clipPath id="clip3_658_1703">
<rect width="24" height="24" fill="white" transform="translate(71.001 264)"/>
</clipPath>
</defs>
</svg>
