<svg width="388" height="126" viewBox="0 0 388 126" fill="none" xmlns="http://www.w3.org/2000/svg">
<path d="M0.566243 63L15 77.4338L29.4338 63L15 48.5662L0.566243 63ZM29.4339 63L15.0001 48.5662L0.566343 63L15.0001 77.4338L29.4339 63ZM15 65.5H15.0001V60.5H15V65.5Z" fill="white"/>
<rect x="15" width="373" height="126" rx="25" fill="white"/>
<path d="M73.248 50.92C71.904 50.92 70.656 50.72 69.504 50.32C68.352 49.92 67.312 49.392 66.384 48.736C65.472 48.064 64.672 47.344 63.984 46.576L66.384 42.76C66.592 43.304 66.936 43.824 67.416 44.32C67.912 44.816 68.488 45.256 69.144 45.64C69.8 46.024 70.488 46.328 71.208 46.552C71.944 46.776 72.664 46.888 73.368 46.888C74.424 46.888 75.264 46.72 75.888 46.384C76.512 46.032 76.824 45.568 76.824 44.992C76.824 44.544 76.68 44.176 76.392 43.888C76.12 43.584 75.8 43.344 75.432 43.168C75.08 42.976 74.776 42.808 74.52 42.664C74.328 42.568 73.976 42.424 73.464 42.232C72.968 42.024 72.408 41.8 71.784 41.56C71.16 41.32 70.568 41.096 70.008 40.888C69.448 40.664 69.008 40.48 68.688 40.336C66.304 39.264 65.112 37.608 65.112 35.368C65.112 34.648 65.248 33.944 65.52 33.256C65.808 32.552 66.24 31.912 66.816 31.336C67.392 30.76 68.128 30.304 69.024 29.968C69.92 29.632 70.992 29.464 72.24 29.464C73.6 29.464 74.808 29.616 75.864 29.92C76.92 30.208 77.848 30.576 78.648 31.024C79.464 31.472 80.16 31.944 80.736 32.44L78.528 36.136C76.752 34.376 74.744 33.496 72.504 33.496C71.56 33.496 70.84 33.6 70.344 33.808C69.864 34 69.536 34.224 69.36 34.48C69.2 34.72 69.12 34.92 69.12 35.08C69.12 35.352 69.216 35.624 69.408 35.896C69.616 36.168 70.072 36.456 70.776 36.76C71.064 36.888 71.448 37.048 71.928 37.24C72.424 37.416 72.968 37.616 73.56 37.84C74.168 38.064 74.76 38.304 75.336 38.56C75.928 38.8 76.464 39.048 76.944 39.304C77.52 39.624 78.112 40.016 78.72 40.48C79.328 40.944 79.84 41.52 80.256 42.208C80.688 42.88 80.904 43.704 80.904 44.68C80.904 45.272 80.792 45.928 80.568 46.648C80.344 47.352 79.952 48.032 79.392 48.688C78.832 49.344 78.056 49.88 77.064 50.296C76.072 50.712 74.8 50.92 73.248 50.92ZM90.3375 50.776C90.2255 49.384 90.1455 48.032 90.0975 46.72C90.0655 45.408 90.0495 44.168 90.0495 43C90.0495 41.064 90.0895 39.328 90.1695 37.792C90.2495 36.24 90.3295 34.904 90.4095 33.784C89.0335 33.864 87.6975 33.968 86.4015 34.096C85.1055 34.224 83.9055 34.392 82.8015 34.6L82.8495 30.592C84.7215 30.256 86.6415 30.016 88.6095 29.872C90.5775 29.712 92.5455 29.632 94.5135 29.632C95.9215 29.632 97.2655 29.664 98.5455 29.728C99.8415 29.792 101.082 29.888 102.266 30.016L102.242 34.168C101.122 33.992 99.9055 33.872 98.5935 33.808C97.2975 33.728 95.9695 33.688 94.6095 33.688C94.5295 34.776 94.4575 35.992 94.3935 37.336C94.3295 38.664 94.2975 40.088 94.2975 41.608C94.2975 42.968 94.3295 44.4 94.3935 45.904C94.4735 47.408 94.5695 48.992 94.6815 50.656L90.3375 50.776ZM112.629 50.776C111.413 50.776 110.317 50.688 109.341 50.512C108.381 50.352 107.565 50.032 106.893 49.552C106.221 49.088 105.709 48.4 105.357 47.488C105.005 46.576 104.829 45.384 104.829 43.912C104.829 42.84 104.885 41.728 104.997 40.576C105.109 39.424 105.245 38.312 105.405 37.24C105.581 36.152 105.749 35.184 105.909 34.336C105.589 34.384 105.317 34.432 105.093 34.48L104.637 30.664C105.421 30.52 106.325 30.4 107.349 30.304C108.389 30.192 109.485 30.096 110.637 30.016C111.805 29.936 112.965 29.88 114.117 29.848C115.269 29.8 116.349 29.776 117.357 29.776C118.157 29.776 118.885 29.792 119.541 29.824C120.213 29.84 120.765 29.872 121.197 29.92L121.005 33.928C120.573 33.848 119.989 33.792 119.253 33.76C118.517 33.712 117.693 33.688 116.781 33.688C115.709 33.688 114.565 33.712 113.349 33.76C112.133 33.808 110.973 33.864 109.869 33.928C109.741 34.6 109.629 35.288 109.533 35.992C109.437 36.696 109.349 37.392 109.269 38.08C110.197 37.952 111.213 37.856 112.317 37.792C113.437 37.712 114.549 37.656 115.653 37.624C116.757 37.576 117.749 37.552 118.629 37.552C119.141 37.552 119.597 37.56 119.997 37.576C120.397 37.576 120.725 37.592 120.981 37.624L120.885 41.56C120.677 41.544 120.389 41.536 120.021 41.536C119.669 41.52 119.253 41.512 118.773 41.512C118.085 41.512 117.317 41.528 116.469 41.56C115.621 41.576 114.741 41.608 113.829 41.656C112.933 41.688 112.061 41.736 111.213 41.8C110.365 41.848 109.597 41.912 108.909 41.992C108.845 42.888 108.813 43.608 108.813 44.152C108.813 44.936 108.917 45.512 109.125 45.88C109.333 46.248 109.677 46.488 110.157 46.6C110.653 46.696 111.301 46.744 112.101 46.744C113.525 46.744 115.053 46.624 116.685 46.384C118.333 46.144 119.957 45.768 121.557 45.256L121.821 49.432C119.901 49.96 118.157 50.312 116.589 50.488C115.037 50.68 113.717 50.776 112.629 50.776ZM126.354 50.608C126.338 50.096 126.33 49.576 126.33 49.048C126.33 48.536 126.33 48.024 126.33 47.512C126.33 45.16 126.378 42.88 126.474 40.672C126.57 38.448 126.682 36.328 126.81 34.312C126.17 34.472 125.634 34.624 125.202 34.768L124.266 30.928C125.05 30.688 125.874 30.48 126.738 30.304C127.618 30.112 128.474 29.96 129.306 29.848C130.154 29.72 130.93 29.632 131.634 29.584C132.354 29.52 132.946 29.488 133.41 29.488C133.906 29.488 134.514 29.528 135.234 29.608C135.97 29.688 136.722 29.856 137.49 30.112C138.274 30.352 139.002 30.72 139.674 31.216C140.346 31.712 140.89 32.384 141.306 33.232C141.738 34.064 141.954 35.112 141.954 36.376C141.954 37.688 141.666 38.784 141.09 39.664C140.514 40.528 139.754 41.224 138.81 41.752C137.866 42.264 136.826 42.632 135.69 42.856C134.554 43.08 133.434 43.192 132.33 43.192C131.626 43.192 130.954 43.16 130.314 43.096C130.298 43.864 130.29 44.624 130.29 45.376C130.29 46.4 130.298 47.352 130.314 48.232C130.33 49.096 130.362 49.856 130.41 50.512L126.354 50.608ZM133.29 33.424C132.874 33.424 132.442 33.44 131.994 33.472C131.562 33.504 131.13 33.544 130.698 33.592C130.618 34.44 130.554 35.36 130.506 36.352C130.458 37.344 130.418 38.36 130.386 39.4C130.978 39.448 131.594 39.472 132.234 39.472C136.074 39.472 137.994 38.336 137.994 36.064C137.994 35.168 137.61 34.504 136.842 34.072C136.074 33.64 134.89 33.424 133.29 33.424ZM150.877 50.824C150.717 50.2 150.541 49.56 150.349 48.904C150.173 48.248 150.013 47.672 149.869 47.176C151.645 46.184 153.189 45.112 154.501 43.96C155.829 42.808 156.917 41.664 157.765 40.528C158.629 39.392 159.269 38.36 159.685 37.432C160.117 36.504 160.333 35.776 160.333 35.248C160.333 34.64 160.125 34.168 159.709 33.832C159.309 33.48 158.765 33.304 158.077 33.304C157.133 33.304 156.173 33.64 155.197 34.312C154.237 34.984 153.341 35.936 152.509 37.168L149.989 34.144C150.709 33.28 151.469 32.504 152.269 31.816C153.085 31.128 153.957 30.584 154.885 30.184C155.813 29.768 156.805 29.56 157.861 29.56C159.013 29.56 160.069 29.76 161.029 30.16C161.989 30.56 162.757 31.16 163.333 31.96C163.909 32.76 164.197 33.752 164.197 34.936C164.197 36.056 163.909 37.272 163.333 38.584C162.757 39.88 161.957 41.184 160.933 42.496C159.909 43.792 158.741 45 157.429 46.12C157.957 46.104 158.493 46.096 159.037 46.096C160.093 46.096 161.061 46.16 161.941 46.288C162.821 46.4 163.733 46.576 164.677 46.816L163.885 50.512C163.101 50.32 162.269 50.16 161.389 50.032C160.509 49.904 159.501 49.84 158.365 49.84C157.021 49.84 155.685 49.912 154.357 50.056C153.029 50.216 151.869 50.472 150.877 50.824ZM169.581 35.656C168.973 35.656 168.469 35.52 168.069 35.248C167.669 34.976 167.373 34.632 167.181 34.216C166.989 33.784 166.893 33.336 166.893 32.872C166.893 32.424 166.989 31.992 167.181 31.576C167.389 31.144 167.701 30.792 168.117 30.52C168.549 30.248 169.093 30.112 169.749 30.112C170.645 30.112 171.301 30.384 171.717 30.928C172.133 31.456 172.341 32.064 172.341 32.752C172.341 33.776 172.061 34.52 171.501 34.984C170.957 35.432 170.317 35.656 169.581 35.656ZM169.581 49.672C168.973 49.672 168.469 49.536 168.069 49.264C167.669 48.992 167.373 48.648 167.181 48.232C166.989 47.8 166.893 47.344 166.893 46.864C166.893 46.416 166.989 45.984 167.181 45.568C167.389 45.152 167.701 44.808 168.117 44.536C168.549 44.264 169.093 44.128 169.749 44.128C170.645 44.128 171.301 44.4 171.717 44.944C172.133 45.472 172.341 46.08 172.341 46.768C172.341 47.792 172.061 48.536 171.501 49C170.957 49.448 170.317 49.672 169.581 49.672Z" fill="black"/>
<path d="M63.602 80L63.819 69.822H65.695L66.808 73.959L67.2 75.716H67.221L67.62 73.959L68.698 69.822H70.581L70.798 80H69.608L69.496 75.968L69.545 70.844H69.461L68.866 73.161L67.641 77.291H66.815L65.527 73.161L64.939 70.844H64.848L64.904 75.968L64.792 80H63.602ZM74.8525 80.084C74.1339 80.084 73.5645 79.8927 73.1445 79.51C72.7292 79.1227 72.5215 78.6023 72.5215 77.949C72.5215 77.3797 72.7059 76.9153 73.0745 76.556C73.4479 76.192 74.0149 75.9377 74.7755 75.793C75.0695 75.737 75.3682 75.6903 75.6715 75.653C75.9749 75.6157 76.2689 75.5853 76.5535 75.562C76.8382 75.534 77.0972 75.5153 77.3305 75.506V74.918C77.3305 74.344 77.1975 73.9333 76.9315 73.686C76.6702 73.4387 76.2619 73.315 75.7065 73.315C75.1232 73.315 74.6822 73.4363 74.3835 73.679C74.0895 73.917 73.9519 74.3277 73.9705 74.911H72.7525C72.6965 74.3697 72.7829 73.8983 73.0115 73.497C73.2449 73.091 73.5925 72.776 74.0545 72.552C74.5212 72.328 75.0742 72.216 75.7135 72.216C76.6562 72.216 77.3702 72.4493 77.8555 72.916C78.3409 73.378 78.5835 74.0593 78.5835 74.96V80H77.3375L77.3305 78.341C77.2325 78.6817 77.0645 78.985 76.8265 79.251C76.5885 79.5123 76.2992 79.7177 75.9585 79.867C75.6225 80.0117 75.2539 80.084 74.8525 80.084ZM75.2235 79.055C75.5362 79.055 75.8419 78.9967 76.1405 78.88C76.4439 78.7587 76.7052 78.6023 76.9245 78.411C77.1439 78.215 77.2792 78.005 77.3305 77.781V76.297C77.1625 76.3063 76.9665 76.325 76.7425 76.353C76.5232 76.3763 76.3039 76.4067 76.0845 76.444C75.8652 76.4767 75.6715 76.5117 75.5035 76.549C74.9062 76.6797 74.4885 76.8477 74.2505 77.053C74.0125 77.2583 73.8935 77.5337 73.8935 77.879C73.8935 78.243 74.0079 78.53 74.2365 78.74C74.4699 78.9453 74.7989 79.0503 75.2235 79.055ZM86.0191 80L82.4981 75.835L83.7231 75.646L84.5701 76.444L87.7481 80H86.0191ZM81.3011 80V69.108H82.6031V74.792L82.5331 75.814V75.87L82.6031 76.934V80H81.3011ZM83.7301 76.052L82.4981 75.835L84.1431 73.98L85.6341 72.363H87.4401L84.6471 75.156L83.7301 76.052ZM92.6216 80.105C91.9916 80.105 91.4176 79.9533 90.8996 79.65C90.3863 79.3467 89.9756 78.901 89.6676 78.313C89.3643 77.7203 89.2126 76.997 89.2126 76.143C89.2126 75.317 89.3549 74.61 89.6396 74.022C89.9289 73.434 90.3233 72.986 90.8226 72.678C91.3266 72.3653 91.8983 72.209 92.5376 72.209C93.4709 72.209 94.2199 72.5193 94.7846 73.14C95.3493 73.756 95.6316 74.6287 95.6316 75.758C95.6316 75.9073 95.6269 76.031 95.6176 76.129C95.6083 76.227 95.6013 76.3297 95.5966 76.437H90.4866C90.4959 77.011 90.6009 77.4847 90.8016 77.858C91.0069 78.2313 91.2706 78.5113 91.5926 78.698C91.9193 78.88 92.2693 78.971 92.6426 78.971C93.0999 78.971 93.4616 78.8823 93.7276 78.705C93.9936 78.5277 94.1709 78.236 94.2596 77.83H95.4846C95.4379 78.306 95.2886 78.7143 95.0366 79.055C94.7893 79.391 94.4603 79.65 94.0496 79.832C93.6389 80.014 93.1629 80.105 92.6216 80.105ZM90.4866 75.954C90.5239 75.758 90.6056 75.6273 90.7316 75.562C90.8576 75.492 91.0279 75.457 91.2426 75.457H94.3156C94.3109 74.7617 94.1616 74.2367 93.8676 73.882C93.5736 73.5227 93.1349 73.343 92.5516 73.343C91.8796 73.343 91.3686 73.5763 91.0186 74.043C90.6733 74.5097 90.4959 75.1467 90.4866 75.954ZM108.431 80.084C107.712 80.084 107.143 79.8927 106.723 79.51C106.307 79.1227 106.1 78.6023 106.1 77.949C106.1 77.3797 106.284 76.9153 106.653 76.556C107.026 76.192 107.593 75.9377 108.354 75.793C108.648 75.737 108.946 75.6903 109.25 75.653C109.553 75.6157 109.847 75.5853 110.132 75.562C110.416 75.534 110.675 75.5153 110.909 75.506V74.918C110.909 74.344 110.776 73.9333 110.51 73.686C110.248 73.4387 109.84 73.315 109.285 73.315C108.701 73.315 108.26 73.4363 107.962 73.679C107.668 73.917 107.53 74.3277 107.549 74.911H106.331C106.275 74.3697 106.361 73.8983 106.59 73.497C106.823 73.091 107.171 72.776 107.633 72.552C108.099 72.328 108.652 72.216 109.292 72.216C110.234 72.216 110.948 72.4493 111.434 72.916C111.919 73.378 112.162 74.0593 112.162 74.96V80H110.916L110.909 78.341C110.811 78.6817 110.643 78.985 110.405 79.251C110.167 79.5123 109.877 79.7177 109.537 79.867C109.201 80.0117 108.832 80.084 108.431 80.084ZM108.802 79.055C109.114 79.055 109.42 78.9967 109.719 78.88C110.022 78.7587 110.283 78.6023 110.503 78.411C110.722 78.215 110.857 78.005 110.909 77.781V76.297C110.741 76.3063 110.545 76.325 110.321 76.353C110.101 76.3763 109.882 76.4067 109.663 76.444C109.443 76.4767 109.25 76.5117 109.082 76.549C108.484 76.6797 108.067 76.8477 107.829 77.053C107.591 77.2583 107.472 77.5337 107.472 77.879C107.472 78.243 107.586 78.53 107.815 78.74C108.048 78.9453 108.377 79.0503 108.802 79.055ZM126.046 80.119C125.682 80.119 125.322 80.0793 124.968 80C124.613 79.9253 124.286 79.8017 123.988 79.629C123.689 79.4517 123.444 79.2137 123.253 78.915C123.066 78.6163 122.954 78.243 122.917 77.795H124.261C124.307 78.2337 124.506 78.551 124.856 78.747C125.206 78.943 125.607 79.041 126.06 79.041C126.582 79.041 126.998 78.9687 127.306 78.824C127.618 78.6747 127.775 78.3923 127.775 77.977C127.775 77.7297 127.7 77.529 127.551 77.375C127.406 77.221 127.194 77.0927 126.914 76.99C126.638 76.8827 126.302 76.78 125.906 76.682C125.579 76.6027 125.255 76.514 124.933 76.416C124.615 76.3133 124.326 76.1803 124.065 76.017C123.808 75.8537 123.603 75.6367 123.449 75.366C123.295 75.0953 123.218 74.75 123.218 74.33C123.218 73.9147 123.327 73.5483 123.547 73.231C123.771 72.9137 124.093 72.6663 124.513 72.489C124.933 72.3117 125.441 72.223 126.039 72.223C126.519 72.223 126.965 72.2977 127.376 72.447C127.791 72.5917 128.129 72.8273 128.391 73.154C128.657 73.476 128.804 73.9053 128.832 74.442H127.523C127.509 74.218 127.448 74.0197 127.341 73.847C127.233 73.6743 127.072 73.539 126.858 73.441C126.643 73.343 126.368 73.294 126.032 73.294C125.724 73.294 125.453 73.3267 125.22 73.392C124.986 73.4573 124.804 73.5647 124.674 73.714C124.543 73.8633 124.478 74.064 124.478 74.316C124.478 74.5633 124.555 74.7663 124.709 74.925C124.867 75.0837 125.084 75.2143 125.36 75.317C125.635 75.415 125.95 75.5083 126.305 75.597C126.613 75.6717 126.93 75.7603 127.257 75.863C127.583 75.9657 127.884 76.0987 128.16 76.262C128.435 76.4253 128.657 76.6377 128.825 76.899C128.997 77.1557 129.084 77.48 129.084 77.872C129.079 78.544 128.834 79.0877 128.349 79.503C127.868 79.9137 127.1 80.119 126.046 80.119ZM134.587 80.126C133.897 80.126 133.297 79.965 132.788 79.643C132.28 79.3163 131.883 78.859 131.598 78.271C131.318 77.6783 131.178 76.9807 131.178 76.178C131.178 75.3333 131.321 74.617 131.605 74.029C131.895 73.4363 132.291 72.986 132.795 72.678C133.304 72.37 133.883 72.216 134.531 72.216C135.171 72.216 135.712 72.3513 136.155 72.622C136.599 72.8927 136.937 73.252 137.17 73.7C137.404 74.148 137.525 74.638 137.534 75.17H136.239C136.23 74.946 136.19 74.7267 136.12 74.512C136.055 74.2927 135.952 74.0967 135.812 73.924C135.677 73.7467 135.502 73.6067 135.287 73.504C135.073 73.4013 134.811 73.35 134.503 73.35C133.827 73.3453 133.323 73.5927 132.991 74.092C132.66 74.5867 132.494 75.268 132.494 76.136C132.494 77.06 132.674 77.767 133.033 78.257C133.397 78.7423 133.929 78.985 134.629 78.985C134.975 78.985 135.262 78.9337 135.49 78.831C135.719 78.7237 135.894 78.5837 136.015 78.411C136.137 78.2337 136.209 78.0423 136.232 77.837H137.499C137.485 78.2757 137.35 78.6677 137.093 79.013C136.841 79.3583 136.498 79.6313 136.064 79.832C135.635 80.028 135.143 80.126 134.587 80.126ZM139.37 80V78.943H144.697V80H139.37ZM139.293 73.553V72.349H141.533L141.582 73.553H139.293ZM140.868 79.86V74.295C140.868 74.0383 140.91 73.8587 140.994 73.756C141.082 73.6533 141.225 73.5857 141.421 73.553L140.868 73.14V72.349H141.995L142.086 74.4C142.202 73.9613 142.387 73.5787 142.639 73.252C142.891 72.9207 143.187 72.664 143.528 72.482C143.868 72.2953 144.223 72.202 144.592 72.202C145.226 72.202 145.719 72.4377 146.069 72.909C146.419 73.3757 146.582 74.0897 146.559 75.051H145.285C145.275 74.4583 145.175 74.0383 144.984 73.791C144.797 73.5437 144.496 73.42 144.081 73.42C143.707 73.42 143.341 73.5647 142.982 73.854C142.622 74.1387 142.352 74.484 142.17 74.89V78.39C142.17 78.5393 142.135 78.6607 142.065 78.754C141.999 78.8427 141.892 78.9057 141.743 78.943L142.17 79.202V79.86H140.868ZM151.383 80.105C150.753 80.105 150.179 79.9533 149.661 79.65C149.148 79.3467 148.737 78.901 148.429 78.313C148.126 77.7203 147.974 76.997 147.974 76.143C147.974 75.317 148.117 74.61 148.401 74.022C148.691 73.434 149.085 72.986 149.584 72.678C150.088 72.3653 150.66 72.209 151.299 72.209C152.233 72.209 152.982 72.5193 153.546 73.14C154.111 73.756 154.393 74.6287 154.393 75.758C154.393 75.9073 154.389 76.031 154.379 76.129C154.37 76.227 154.363 76.3297 154.358 76.437H149.248C149.258 77.011 149.363 77.4847 149.563 77.858C149.769 78.2313 150.032 78.5113 150.354 78.698C150.681 78.88 151.031 78.971 151.404 78.971C151.862 78.971 152.223 78.8823 152.489 78.705C152.755 78.5277 152.933 78.236 153.021 77.83H154.246C154.2 78.306 154.05 78.7143 153.798 79.055C153.551 79.391 153.222 79.65 152.811 79.832C152.401 80.014 151.925 80.105 151.383 80.105ZM149.248 75.954C149.286 75.758 149.367 75.6273 149.493 75.562C149.619 75.492 149.79 75.457 150.004 75.457H153.077C153.073 74.7617 152.923 74.2367 152.629 73.882C152.335 73.5227 151.897 73.343 151.313 73.343C150.641 73.343 150.13 73.5763 149.78 74.043C149.435 74.5097 149.258 75.1467 149.248 75.954ZM159.778 80.105C159.148 80.105 158.574 79.9533 158.056 79.65C157.543 79.3467 157.132 78.901 156.824 78.313C156.521 77.7203 156.369 76.997 156.369 76.143C156.369 75.317 156.511 74.61 156.796 74.022C157.085 73.434 157.48 72.986 157.979 72.678C158.483 72.3653 159.055 72.209 159.694 72.209C160.627 72.209 161.376 72.5193 161.941 73.14C162.506 73.756 162.788 74.6287 162.788 75.758C162.788 75.9073 162.783 76.031 162.774 76.129C162.765 76.227 162.758 76.3297 162.753 76.437H157.643C157.652 77.011 157.757 77.4847 157.958 77.858C158.163 78.2313 158.427 78.5113 158.749 78.698C159.076 78.88 159.426 78.971 159.799 78.971C160.256 78.971 160.618 78.8823 160.884 78.705C161.15 78.5277 161.327 78.236 161.416 77.83H162.641C162.594 78.306 162.445 78.7143 162.193 79.055C161.946 79.391 161.617 79.65 161.206 79.832C160.795 80.014 160.319 80.105 159.778 80.105ZM157.643 75.954C157.68 75.758 157.762 75.6273 157.888 75.562C158.014 75.492 158.184 75.457 158.399 75.457H161.472C161.467 74.7617 161.318 74.2367 161.024 73.882C160.73 73.5227 160.291 73.343 159.708 73.343C159.036 73.343 158.525 73.5763 158.175 74.043C157.83 74.5097 157.652 75.1467 157.643 75.954ZM165.078 80V72.349H166.205L166.338 75.121L166.205 74.652C166.308 73.8633 166.574 73.259 167.003 72.839C167.433 72.4143 167.995 72.202 168.69 72.202C169.4 72.202 169.941 72.4307 170.314 72.888C170.692 73.3453 170.881 74.0033 170.881 74.862V80H169.579V75.289C169.579 74.6357 169.472 74.162 169.257 73.868C169.047 73.5693 168.704 73.42 168.228 73.42C167.832 73.42 167.472 73.5343 167.15 73.763C166.828 73.987 166.572 74.2997 166.38 74.701V80H165.078ZM176.413 80.119C176.049 80.119 175.69 80.0793 175.335 80C174.98 79.9253 174.654 79.8017 174.355 79.629C174.056 79.4517 173.811 79.2137 173.62 78.915C173.433 78.6163 173.321 78.243 173.284 77.795H174.628C174.675 78.2337 174.873 78.551 175.223 78.747C175.573 78.943 175.974 79.041 176.427 79.041C176.95 79.041 177.365 78.9687 177.673 78.824C177.986 78.6747 178.142 78.3923 178.142 77.977C178.142 77.7297 178.067 77.529 177.918 77.375C177.773 77.221 177.561 77.0927 177.281 76.99C177.006 76.8827 176.67 76.78 176.273 76.682C175.946 76.6027 175.622 76.514 175.3 76.416C174.983 76.3133 174.693 76.1803 174.432 76.017C174.175 75.8537 173.97 75.6367 173.816 75.366C173.662 75.0953 173.585 74.75 173.585 74.33C173.585 73.9147 173.695 73.5483 173.914 73.231C174.138 72.9137 174.46 72.6663 174.88 72.489C175.3 72.3117 175.809 72.223 176.406 72.223C176.887 72.223 177.332 72.2977 177.743 72.447C178.158 72.5917 178.497 72.8273 178.758 73.154C179.024 73.476 179.171 73.9053 179.199 74.442H177.89C177.876 74.218 177.815 74.0197 177.708 73.847C177.601 73.6743 177.44 73.539 177.225 73.441C177.01 73.343 176.735 73.294 176.399 73.294C176.091 73.294 175.82 73.3267 175.587 73.392C175.354 73.4573 175.172 73.5647 175.041 73.714C174.91 73.8633 174.845 74.064 174.845 74.316C174.845 74.5633 174.922 74.7663 175.076 74.925C175.235 75.0837 175.452 75.2143 175.727 75.317C176.002 75.415 176.317 75.5083 176.672 75.597C176.98 75.6717 177.297 75.7603 177.624 75.863C177.951 75.9657 178.252 76.0987 178.527 76.262C178.802 76.4253 179.024 76.6377 179.192 76.899C179.365 77.1557 179.451 77.48 179.451 77.872C179.446 78.544 179.201 79.0877 178.716 79.503C178.235 79.9137 177.468 80.119 176.413 80.119ZM181.811 80V69.108H183.106V72.363L182.952 74.617L183.057 75.156L182.903 74.659C182.959 74.2343 183.081 73.8353 183.267 73.462C183.459 73.0887 183.729 72.7853 184.079 72.552C184.434 72.3187 184.884 72.202 185.43 72.202C186.154 72.202 186.704 72.4213 187.082 72.86C187.46 73.294 187.649 73.9427 187.649 74.806V80H186.354V75.233C186.354 74.6077 186.254 74.1503 186.053 73.861C185.857 73.567 185.503 73.42 184.989 73.42C184.565 73.42 184.198 73.5273 183.89 73.742C183.582 73.952 183.321 74.2693 183.106 74.694V80H181.811ZM193.118 80.105C192.469 80.105 191.893 79.9533 191.389 79.65C190.89 79.342 190.498 78.894 190.213 78.306C189.928 77.7133 189.786 76.99 189.786 76.136C189.786 75.3147 189.933 74.6123 190.227 74.029C190.521 73.441 190.92 72.9907 191.424 72.678C191.928 72.3653 192.493 72.209 193.118 72.209C193.785 72.209 194.369 72.3653 194.868 72.678C195.367 72.9907 195.755 73.441 196.03 74.029C196.31 74.6123 196.45 75.3147 196.45 76.136C196.45 76.9947 196.301 77.7203 196.002 78.313C195.708 78.901 195.309 79.3467 194.805 79.65C194.301 79.9533 193.739 80.105 193.118 80.105ZM193.118 78.957C193.711 78.957 194.191 78.726 194.56 78.264C194.933 77.7973 195.12 77.088 195.12 76.136C195.12 75.2307 194.938 74.5423 194.574 74.071C194.215 73.595 193.729 73.357 193.118 73.357C192.525 73.357 192.042 73.595 191.669 74.071C191.3 74.5423 191.116 75.2307 191.116 76.136C191.116 77.0553 191.3 77.7553 191.669 78.236C192.042 78.7167 192.525 78.957 193.118 78.957ZM202.36 80.105C201.874 80.105 201.457 80.028 201.107 79.874C200.761 79.72 200.495 79.4797 200.309 79.153C200.127 78.8217 200.036 78.3923 200.036 77.865V74.498C200.036 74.372 200.057 74.239 200.099 74.099C200.141 73.959 200.208 73.8353 200.302 73.728C200.4 73.6207 200.528 73.5553 200.687 73.532L200.029 72.664L200.057 72.426L200.372 69.682H201.387V77.662C201.387 78.1567 201.487 78.4857 201.688 78.649C201.893 78.8077 202.231 78.887 202.703 78.887C203.025 78.887 203.302 78.8683 203.536 78.831C203.774 78.7937 203.984 78.7447 204.166 78.684C204.352 78.6233 204.53 78.558 204.698 78.488V79.734C204.418 79.8367 204.093 79.9253 203.725 80C203.361 80.07 202.906 80.105 202.36 80.105ZM198.251 73.532V72.356H204.047V73.532H198.251ZM215.782 80L214.053 72.363H215.348L215.978 76.045L216.426 78.866H216.468L216.902 76.339L217.518 73.329H219.093L219.688 76.339L220.129 78.922L220.185 78.915L220.591 76.052L221.263 72.363H222.551L220.829 80H219.478L218.708 76.444L218.337 74.169H218.274L217.896 76.451L217.133 80H215.782ZM226.598 79.818V74.414C226.598 74.1807 226.64 73.9847 226.724 73.826C226.808 73.6627 226.971 73.5717 227.214 73.553L226.598 73.315L226.549 72.72L227.879 72.363L227.858 79.818H226.598ZM224.106 80V78.943H230.133V80H224.106ZM223.896 73.553V72.363H227.879L227.55 73.553H223.896ZM227.179 71.019C226.894 71.019 226.652 70.921 226.451 70.725C226.255 70.529 226.157 70.2747 226.157 69.962C226.157 69.6447 226.255 69.388 226.451 69.192C226.652 68.9913 226.894 68.891 227.179 68.891C227.464 68.891 227.704 68.9913 227.9 69.192C228.101 69.388 228.201 69.6447 228.201 69.962C228.201 70.2747 228.101 70.529 227.9 70.725C227.699 70.921 227.459 71.019 227.179 71.019ZM235.938 80.105C235.452 80.105 235.035 80.028 234.685 79.874C234.339 79.72 234.073 79.4797 233.887 79.153C233.705 78.8217 233.614 78.3923 233.614 77.865V74.498C233.614 74.372 233.635 74.239 233.677 74.099C233.719 73.959 233.786 73.8353 233.88 73.728C233.978 73.6207 234.106 73.5553 234.265 73.532L233.607 72.664L233.635 72.426L233.95 69.682H234.965V77.662C234.965 78.1567 235.065 78.4857 235.266 78.649C235.471 78.8077 235.809 78.887 236.281 78.887C236.603 78.887 236.88 78.8683 237.114 78.831C237.352 78.7937 237.562 78.7447 237.744 78.684C237.93 78.6233 238.108 78.558 238.276 78.488V79.734C237.996 79.8367 237.671 79.9253 237.303 80C236.939 80.07 236.484 80.105 235.938 80.105ZM231.829 73.532V72.356H237.625V73.532H231.829ZM240.573 80V69.108H241.868V72.363L241.714 74.617L241.819 75.156L241.665 74.659C241.721 74.2343 241.842 73.8353 242.029 73.462C242.22 73.0887 242.491 72.7853 242.841 72.552C243.196 72.3187 243.646 72.202 244.192 72.202C244.915 72.202 245.466 72.4213 245.844 72.86C246.222 73.294 246.411 73.9427 246.411 74.806V80H245.116V75.233C245.116 74.6077 245.016 74.1503 244.815 73.861C244.619 73.567 244.264 73.42 243.751 73.42C243.326 73.42 242.96 73.5273 242.652 73.742C242.344 73.952 242.083 74.2693 241.868 74.694V80H240.573ZM257.362 80V69.108H258.657V72.363L258.503 74.617L258.608 75.156L258.454 74.659C258.51 74.2343 258.632 73.8353 258.818 73.462C259.01 73.0887 259.28 72.7853 259.63 72.552C259.985 72.3187 260.435 72.202 260.981 72.202C261.705 72.202 262.255 72.4213 262.633 72.86C263.011 73.294 263.2 73.9427 263.2 74.806V80H261.905V75.233C261.905 74.6077 261.805 74.1503 261.604 73.861C261.408 73.567 261.054 73.42 260.54 73.42C260.116 73.42 259.749 73.5273 259.441 73.742C259.133 73.952 258.872 74.2693 258.657 74.694V80H257.362ZM268.669 80.105C268.02 80.105 267.444 79.9533 266.94 79.65C266.44 79.342 266.048 78.894 265.764 78.306C265.479 77.7133 265.337 76.99 265.337 76.136C265.337 75.3147 265.484 74.6123 265.778 74.029C266.072 73.441 266.471 72.9907 266.975 72.678C267.479 72.3653 268.043 72.209 268.669 72.209C269.336 72.209 269.919 72.3653 270.419 72.678C270.918 72.9907 271.305 73.441 271.581 74.029C271.861 74.6123 272.001 75.3147 272.001 76.136C272.001 76.9947 271.851 77.7203 271.553 78.313C271.259 78.901 270.86 79.3467 270.356 79.65C269.852 79.9533 269.289 80.105 268.669 80.105ZM268.669 78.957C269.261 78.957 269.742 78.726 270.111 78.264C270.484 77.7973 270.671 77.088 270.671 76.136C270.671 75.2307 270.489 74.5423 270.125 74.071C269.765 73.595 269.28 73.357 268.669 73.357C268.076 73.357 267.593 73.595 267.22 74.071C266.851 74.5423 266.667 75.2307 266.667 76.136C266.667 77.0553 266.851 77.7553 267.22 78.236C267.593 78.7167 268.076 78.957 268.669 78.957ZM274.543 80L272.814 72.363H274.109L274.739 76.045L275.187 78.866H275.229L275.663 76.339L276.279 73.329H277.854L278.449 76.339L278.89 78.922L278.946 78.915L279.352 76.052L280.024 72.363H281.312L279.59 80H278.239L277.469 76.444L277.098 74.169H277.035L276.657 76.451L275.894 80H274.543ZM291.185 83.017V81.792H291.787C292.147 81.792 292.424 81.75 292.62 81.666C292.816 81.582 292.963 81.463 293.061 81.309C293.164 81.155 293.248 80.9753 293.313 80.77C293.388 80.5367 293.451 80.3617 293.502 80.245C293.554 80.1283 293.633 80.0467 293.74 80H293.306L290.527 72.363H292.004L293.061 75.786L294.041 78.677H294.09L295.014 75.786L296.064 72.363H297.527L294.79 80C294.622 80.462 294.461 80.8773 294.307 81.246C294.158 81.6193 293.981 81.9367 293.775 82.198C293.57 82.464 293.309 82.667 292.991 82.807C292.679 82.947 292.277 83.017 291.787 83.017H291.185ZM302.247 80.105C301.598 80.105 301.022 79.9533 300.518 79.65C300.019 79.342 299.627 78.894 299.342 78.306C299.057 77.7133 298.915 76.99 298.915 76.136C298.915 75.3147 299.062 74.6123 299.356 74.029C299.65 73.441 300.049 72.9907 300.553 72.678C301.057 72.3653 301.622 72.209 302.247 72.209C302.914 72.209 303.498 72.3653 303.997 72.678C304.496 72.9907 304.884 73.441 305.159 74.029C305.439 74.6123 305.579 75.3147 305.579 76.136C305.579 76.9947 305.43 77.7203 305.131 78.313C304.837 78.901 304.438 79.3467 303.934 79.65C303.43 79.9533 302.868 80.105 302.247 80.105ZM302.247 78.957C302.84 78.957 303.32 78.726 303.689 78.264C304.062 77.7973 304.249 77.088 304.249 76.136C304.249 75.2307 304.067 74.5423 303.703 74.071C303.344 73.595 302.858 73.357 302.247 73.357C301.654 73.357 301.171 73.595 300.798 74.071C300.429 74.5423 300.245 75.2307 300.245 76.136C300.245 77.0553 300.429 77.7553 300.798 78.236C301.171 78.7167 301.654 78.957 302.247 78.957ZM309.934 80.154C309.272 80.154 308.735 79.93 308.324 79.482C307.914 79.034 307.708 78.4087 307.708 77.606V72.356H309.003V77.34C309.003 77.872 309.108 78.271 309.318 78.537C309.528 78.803 309.869 78.936 310.34 78.936C310.756 78.936 311.117 78.824 311.425 78.6C311.738 78.3713 311.999 78.0563 312.209 77.655V72.356H313.518V80H312.398L312.251 77.347L312.391 77.697C312.335 78.145 312.209 78.5557 312.013 78.929C311.822 79.2977 311.554 79.594 311.208 79.818C310.868 80.042 310.443 80.154 309.934 80.154ZM64.239 100.821V90.356H65.52L65.534 91.392V96.271L65.443 96.642L65.534 98.007V100.821H64.239ZM67.872 90.216C68.4227 90.216 68.8987 90.3607 69.3 90.65C69.706 90.9347 70.0187 91.357 70.238 91.917C70.462 92.4723 70.574 93.156 70.574 93.968C70.574 94.822 70.4293 95.557 70.14 96.173C69.8507 96.789 69.468 97.2627 68.992 97.594C68.516 97.9207 67.9957 98.084 67.431 98.084C67.1557 98.084 66.8757 98.021 66.591 97.895C66.311 97.7643 66.066 97.587 65.856 97.363C65.646 97.1343 65.5083 96.873 65.443 96.579L65.037 96.376L65.499 95.893C65.569 96.1497 65.6903 96.3573 65.863 96.516C66.0403 96.6747 66.241 96.789 66.465 96.859C66.6937 96.929 66.9153 96.964 67.13 96.964C67.536 96.964 67.8977 96.8497 68.215 96.621C68.5323 96.3923 68.782 96.0563 68.964 95.613C69.146 95.165 69.237 94.6143 69.237 93.961C69.237 93.1257 69.09 92.4817 68.796 92.029C68.5067 91.5763 68.0493 91.35 67.424 91.35C67.2 91.35 66.9573 91.399 66.696 91.497C66.4347 91.595 66.1967 91.7467 65.982 91.952C65.7673 92.1573 65.618 92.4233 65.534 92.75L65.464 92.281L65.527 92.029C65.583 91.679 65.723 91.3687 65.947 91.098C66.171 90.8227 66.451 90.608 66.787 90.454C67.123 90.2953 67.4847 90.216 67.872 90.216ZM76.7845 98.105C76.2805 98.105 75.8535 98.0303 75.5035 97.881C75.1582 97.7317 74.8945 97.4937 74.7125 97.167C74.5352 96.8357 74.4465 96.4017 74.4465 95.865V89.005C74.4465 88.7857 74.4885 88.613 74.5725 88.487C74.6612 88.361 74.7849 88.2887 74.9435 88.27H72.1925V87.108H75.8115L75.7975 95.662C75.7975 96.152 75.8839 96.4787 76.0565 96.642C76.2339 96.8053 76.5489 96.887 77.0015 96.887C77.4309 96.887 77.7925 96.8497 78.0865 96.775C78.3852 96.7003 78.6652 96.6047 78.9265 96.488V97.734C78.6699 97.8367 78.3549 97.9253 77.9815 98C77.6082 98.07 77.2092 98.105 76.7845 98.105ZM83.2471 98.084C82.5284 98.084 81.9591 97.8927 81.5391 97.51C81.1237 97.1227 80.9161 96.6023 80.9161 95.949C80.9161 95.3797 81.1004 94.9153 81.4691 94.556C81.8424 94.192 82.4094 93.9377 83.1701 93.793C83.4641 93.737 83.7627 93.6903 84.0661 93.653C84.3694 93.6157 84.6634 93.5853 84.9481 93.562C85.2327 93.534 85.4917 93.5153 85.7251 93.506V92.918C85.7251 92.344 85.5921 91.9333 85.3261 91.686C85.0647 91.4387 84.6564 91.315 84.1011 91.315C83.5177 91.315 83.0767 91.4363 82.7781 91.679C82.4841 91.917 82.3464 92.3277 82.3651 92.911H81.1471C81.0911 92.3697 81.1774 91.8983 81.4061 91.497C81.6394 91.091 81.9871 90.776 82.4491 90.552C82.9157 90.328 83.4687 90.216 84.1081 90.216C85.0507 90.216 85.7647 90.4493 86.2501 90.916C86.7354 91.378 86.9781 92.0593 86.9781 92.96V98H85.7321L85.7251 96.341C85.6271 96.6817 85.4591 96.985 85.2211 97.251C84.9831 97.5123 84.6937 97.7177 84.3531 97.867C84.0171 98.0117 83.6484 98.084 83.2471 98.084ZM83.6181 97.055C83.9307 97.055 84.2364 96.9967 84.5351 96.88C84.8384 96.7587 85.0997 96.6023 85.3191 96.411C85.5384 96.215 85.6737 96.005 85.7251 95.781V94.297C85.5571 94.3063 85.3611 94.325 85.1371 94.353C84.9177 94.3763 84.6984 94.4067 84.4791 94.444C84.2597 94.4767 84.0661 94.5117 83.8981 94.549C83.3007 94.6797 82.8831 94.8477 82.6451 95.053C82.4071 95.2583 82.2881 95.5337 82.2881 95.879C82.2881 96.243 82.4024 96.53 82.6311 96.74C82.8644 96.9453 83.1934 97.0503 83.6181 97.055ZM89.7166 101.017V99.792H90.3186C90.6779 99.792 90.9556 99.75 91.1516 99.666C91.3476 99.582 91.4946 99.463 91.5926 99.309C91.6953 99.155 91.7793 98.9753 91.8446 98.77C91.9193 98.5367 91.9823 98.3617 92.0336 98.245C92.0849 98.1283 92.1643 98.0467 92.2716 98H91.8376L89.0586 90.363H90.5356L91.5926 93.786L92.5726 96.677H92.6216L93.5456 93.786L94.5956 90.363H96.0586L93.3216 98C93.1536 98.462 92.9926 98.8773 92.8386 99.246C92.6893 99.6193 92.5119 99.9367 92.3066 100.198C92.1013 100.464 91.8399 100.667 91.5226 100.807C91.2099 100.947 90.8086 101.017 90.3186 101.017H89.7166ZM109.173 98.105C108.524 98.105 107.948 97.9533 107.444 97.65C106.944 97.342 106.552 96.894 106.268 96.306C105.983 95.7133 105.841 94.99 105.841 94.136C105.841 93.3147 105.988 92.6123 106.282 92.029C106.576 91.441 106.975 90.9907 107.479 90.678C107.983 90.3653 108.547 90.209 109.173 90.209C109.84 90.209 110.423 90.3653 110.923 90.678C111.422 90.9907 111.809 91.441 112.085 92.029C112.365 92.6123 112.505 93.3147 112.505 94.136C112.505 94.9947 112.355 95.7203 112.057 96.313C111.763 96.901 111.364 97.3467 110.86 97.65C110.356 97.9533 109.793 98.105 109.173 98.105ZM109.173 96.957C109.765 96.957 110.246 96.726 110.615 96.264C110.988 95.7973 111.175 95.088 111.175 94.136C111.175 93.2307 110.993 92.5423 110.629 92.071C110.269 91.595 109.784 91.357 109.173 91.357C108.58 91.357 108.097 91.595 107.724 92.071C107.355 92.5423 107.171 93.2307 107.171 94.136C107.171 95.0553 107.355 95.7553 107.724 96.236C108.097 96.7167 108.58 96.957 109.173 96.957ZM116.86 98.154C116.198 98.154 115.661 97.93 115.25 97.482C114.84 97.034 114.634 96.4087 114.634 95.606V90.356H115.929V95.34C115.929 95.872 116.034 96.271 116.244 96.537C116.454 96.803 116.795 96.936 117.266 96.936C117.682 96.936 118.043 96.824 118.351 96.6C118.664 96.3713 118.925 96.0563 119.135 95.655V90.356H120.444V98H119.324L119.177 95.347L119.317 95.697C119.261 96.145 119.135 96.5557 118.939 96.929C118.748 97.2977 118.48 97.594 118.134 97.818C117.794 98.042 117.369 98.154 116.86 98.154ZM122.581 98V96.943H127.908V98H122.581ZM122.504 91.553V90.349H124.744L124.793 91.553H122.504ZM124.079 97.86V92.295C124.079 92.0383 124.121 91.8587 124.205 91.756C124.293 91.6533 124.436 91.5857 124.632 91.553L124.079 91.14V90.349H125.206L125.297 92.4C125.413 91.9613 125.598 91.5787 125.85 91.252C126.102 90.9207 126.398 90.664 126.739 90.482C127.079 90.2953 127.434 90.202 127.803 90.202C128.437 90.202 128.93 90.4377 129.28 90.909C129.63 91.3757 129.793 92.0897 129.77 93.051H128.496C128.486 92.4583 128.386 92.0383 128.195 91.791C128.008 91.5437 127.707 91.42 127.292 91.42C126.918 91.42 126.552 91.5647 126.193 91.854C125.833 92.1387 125.563 92.484 125.381 92.89V96.39C125.381 96.5393 125.346 96.6607 125.276 96.754C125.21 96.8427 125.103 96.9057 124.954 96.943L125.381 97.202V97.86H124.079ZM142.905 101.171C142.195 101.171 141.57 101.08 141.029 100.898C140.492 100.716 140.072 100.457 139.769 100.121C139.465 99.7897 139.314 99.3977 139.314 98.945C139.314 98.6277 139.384 98.35 139.524 98.112C139.668 97.8787 139.869 97.692 140.126 97.552C140.382 97.4073 140.679 97.3233 141.015 97.3L141.309 97.335C141.192 97.4097 141.078 97.5007 140.966 97.608C140.858 97.7153 140.77 97.853 140.7 98.021C140.63 98.1937 140.595 98.4083 140.595 98.665C140.595 98.917 140.662 99.148 140.798 99.358C140.938 99.568 141.176 99.736 141.512 99.862C141.848 99.9927 142.307 100.058 142.891 100.058C143.651 100.058 144.202 99.9413 144.543 99.708C144.883 99.4747 145.054 99.1457 145.054 98.721C145.054 98.4457 144.963 98.2427 144.781 98.112C144.599 97.9813 144.242 97.881 143.71 97.811L141.897 97.573C141.281 97.4937 140.821 97.3747 140.518 97.216C140.219 97.0527 140.021 96.8777 139.923 96.691C139.829 96.4997 139.783 96.3247 139.783 96.166C139.783 95.9373 139.841 95.746 139.958 95.592C140.079 95.438 140.231 95.3167 140.413 95.228C140.599 95.1347 140.791 95.0717 140.987 95.039C141.187 95.0017 141.365 94.99 141.519 95.004C141.36 95.0693 141.232 95.1603 141.134 95.277C141.036 95.389 140.987 95.5477 140.987 95.753C140.987 95.9723 141.075 96.138 141.253 96.25C141.435 96.3573 141.74 96.439 142.17 96.495L143.99 96.719C144.634 96.803 145.126 96.9477 145.467 97.153C145.812 97.3537 146.048 97.5893 146.174 97.86C146.3 98.1307 146.363 98.413 146.363 98.707C146.363 99.113 146.279 99.47 146.111 99.778C145.947 100.086 145.712 100.343 145.404 100.548C145.1 100.753 144.736 100.907 144.312 101.01C143.892 101.117 143.423 101.171 142.905 101.171ZM142.856 95.312C141.969 95.312 141.264 95.0833 140.742 94.626C140.219 94.1687 139.958 93.5527 139.958 92.778C139.958 91.9893 140.221 91.3663 140.749 90.909C141.281 90.447 141.988 90.2207 142.87 90.23C143.444 90.2347 143.945 90.3397 144.375 90.545C144.809 90.7503 145.147 91.042 145.39 91.42C145.632 91.798 145.754 92.2507 145.754 92.778C145.754 93.5573 145.492 94.1757 144.97 94.633C144.452 95.0857 143.747 95.312 142.856 95.312ZM142.87 94.255C143.42 94.255 143.836 94.129 144.116 93.877C144.396 93.6203 144.536 93.2517 144.536 92.771C144.536 92.2997 144.393 91.9357 144.109 91.679C143.824 91.4177 143.402 91.287 142.842 91.287C142.277 91.287 141.857 91.413 141.582 91.665C141.311 91.917 141.176 92.2833 141.176 92.764C141.176 93.24 141.318 93.6087 141.603 93.87C141.887 94.1267 142.31 94.255 142.87 94.255ZM143.703 90.503L143.612 90.433C143.654 90.0643 143.763 89.761 143.941 89.523C144.123 89.2803 144.344 89.1007 144.606 88.984C144.867 88.8627 145.138 88.802 145.418 88.802C145.562 88.802 145.677 88.8067 145.761 88.816C145.849 88.8253 145.922 88.8417 145.978 88.865V90.118C145.833 90.0947 145.698 90.076 145.572 90.062C145.446 90.048 145.294 90.041 145.117 90.041C144.93 90.041 144.755 90.0527 144.592 90.076C144.428 90.0993 144.274 90.1437 144.13 90.209C143.985 90.2743 143.843 90.3723 143.703 90.503ZM150.403 98.084C149.685 98.084 149.115 97.8927 148.695 97.51C148.28 97.1227 148.072 96.6023 148.072 95.949C148.072 95.3797 148.257 94.9153 148.625 94.556C148.999 94.192 149.566 93.9377 150.326 93.793C150.62 93.737 150.919 93.6903 151.222 93.653C151.526 93.6157 151.82 93.5853 152.104 93.562C152.389 93.534 152.648 93.5153 152.881 93.506V92.918C152.881 92.344 152.748 91.9333 152.482 91.686C152.221 91.4387 151.813 91.315 151.257 91.315C150.674 91.315 150.233 91.4363 149.934 91.679C149.64 91.917 149.503 92.3277 149.521 92.911H148.303C148.247 92.3697 148.334 91.8983 148.562 91.497C148.796 91.091 149.143 90.776 149.605 90.552C150.072 90.328 150.625 90.216 151.264 90.216C152.207 90.216 152.921 90.4493 153.406 90.916C153.892 91.378 154.134 92.0593 154.134 92.96V98H152.888L152.881 96.341C152.783 96.6817 152.615 96.985 152.377 97.251C152.139 97.5123 151.85 97.7177 151.509 97.867C151.173 98.0117 150.805 98.084 150.403 98.084ZM150.774 97.055C151.087 97.055 151.393 96.9967 151.691 96.88C151.995 96.7587 152.256 96.6023 152.475 96.411C152.695 96.215 152.83 96.005 152.881 95.781V94.297C152.713 94.3063 152.517 94.325 152.293 94.353C152.074 94.3763 151.855 94.4067 151.635 94.444C151.416 94.4767 151.222 94.5117 151.054 94.549C150.457 94.6797 150.039 94.8477 149.801 95.053C149.563 95.2583 149.444 95.5337 149.444 95.879C149.444 96.243 149.559 96.53 149.787 96.74C150.021 96.9453 150.35 97.0503 150.774 97.055ZM155.893 98L155.921 90.356H156.957L157.069 92.652L156.971 92.729C157.036 91.9357 157.223 91.3173 157.531 90.874C157.844 90.426 158.275 90.202 158.826 90.202C159.125 90.202 159.374 90.2697 159.575 90.405C159.776 90.5357 159.925 90.7573 160.023 91.07C160.126 91.3827 160.177 91.8143 160.177 92.365L160.184 92.421V98H159.036V92.645C159.036 92.1877 158.978 91.8703 158.861 91.693C158.744 91.511 158.572 91.42 158.343 91.42C158.142 91.42 157.928 91.497 157.699 91.651C157.475 91.8003 157.27 92.1037 157.083 92.561L157.055 98H155.893ZM162.13 98V92.596C162.13 92.19 162.072 91.8937 161.955 91.707C161.843 91.5157 161.659 91.42 161.402 91.42C161.117 91.42 160.877 91.5203 160.681 91.721C160.485 91.917 160.319 92.197 160.184 92.561L160.03 93.002L160.093 92.638C160.182 91.8447 160.382 91.2403 160.695 90.825C161.008 90.4097 161.423 90.202 161.941 90.202C162.389 90.202 162.725 90.3747 162.949 90.72C163.178 91.0653 163.292 91.6323 163.292 92.421V98H162.13ZM168.172 98.105C167.542 98.105 166.968 97.9533 166.45 97.65C165.937 97.3467 165.526 96.901 165.218 96.313C164.915 95.7203 164.763 94.997 164.763 94.143C164.763 93.317 164.906 92.61 165.19 92.022C165.48 91.434 165.874 90.986 166.373 90.678C166.877 90.3653 167.449 90.209 168.088 90.209C169.022 90.209 169.771 90.5193 170.335 91.14C170.9 91.756 171.182 92.6287 171.182 93.758C171.182 93.9073 171.178 94.031 171.168 94.129C171.159 94.227 171.152 94.3297 171.147 94.437H166.037C166.047 95.011 166.152 95.4847 166.352 95.858C166.558 96.2313 166.821 96.5113 167.143 96.698C167.47 96.88 167.82 96.971 168.193 96.971C168.651 96.971 169.012 96.8823 169.278 96.705C169.544 96.5277 169.722 96.236 169.81 95.83H171.035C170.989 96.306 170.839 96.7143 170.587 97.055C170.34 97.391 170.011 97.65 169.6 97.832C169.19 98.014 168.714 98.105 168.172 98.105ZM166.037 93.954C166.075 93.758 166.156 93.6273 166.282 93.562C166.408 93.492 166.579 93.457 166.793 93.457H169.866C169.862 92.7617 169.712 92.2367 169.418 91.882C169.124 91.5227 168.686 91.343 168.102 91.343C167.43 91.343 166.919 91.5763 166.569 92.043C166.224 92.5097 166.047 93.1467 166.037 93.954Z" fill="black"/>
</svg>
