<svg width="643" height="998" viewBox="0 0 643 998" fill="none" xmlns="http://www.w3.org/2000/svg">
<path opacity="0.15" fill-rule="evenodd" clip-rule="evenodd" d="M-123.456 1078.07C-193.181 951.807 -231.368 828.139 -253.48 688.302L80.6534 635.466L-253.48 688.302C-288.503 466.819 -263.003 263.881 -235.868 108.224C-229.368 70.9399 -219.026 17.178 -210.408 -27.6202C-204.926 -56.119 -200.142 -80.9901 -197.489 -95.6841C-186.79 -154.927 -182.778 -189.561 -182.464 -211.418C-181.458 -281.635 -210.07 -396.65 -266.715 -536.957C-319.862 -668.601 -382.965 -787.637 -421.165 -859.116L175.536 -1178.01C214.608 -1104.9 292.817 -958.279 360.658 -790.24C425 -630.865 497.053 -412.177 494.037 -201.723C492.886 -121.39 480.198 -41.2647 468.314 24.5476C460.97 65.2163 455.41 93.499 450.112 120.445C444.043 151.318 438.319 180.436 430.652 224.417C407.799 355.504 397.198 471.395 414.787 582.629C426.712 658.04 443.064 704.386 468.81 751.01C498.541 804.849 547.232 870.722 642.434 979.87L132.562 1424.59C29.9969 1307 -57.7162 1197.12 -123.456 1078.07Z" fill="white"/>
</svg>
