<svg width="864" height="998" viewBox="0 0 864 998" fill="none" xmlns="http://www.w3.org/2000/svg">
<path opacity="0.15" fill-rule="evenodd" clip-rule="evenodd" d="M353.61 -127.905C361.306 -164.772 377.717 -225.923 419.005 -287.408L980.689 89.7648C1007.75 49.4589 1014.83 15.5034 1015.88 10.4778L1015.91 10.3482C1016.35 8.21812 1016.55 6.96091 1016.56 6.96281C1016.58 6.96635 1015.97 11.331 1015.13 22.5456C1014.79 27.2182 1014.34 34.901 1013.77 44.7604C1011.82 78.5142 1008.4 137.778 1002.29 189.101C983.607 346.289 931.768 554.891 762.775 761.365L501.253 547.317L762.775 761.365C730.538 800.753 706.318 845.083 691.961 887.368C677.346 930.411 675.875 962.317 678.019 979.914C678.685 985.383 679.541 988.743 680.166 990.605C685.082 993.97 700.059 1002.17 733.512 1008.08L615.799 1674.34C452.16 1645.42 304.461 1576.02 192.128 1459.57C79.8097 1343.13 23.3617 1200.84 6.41427 1061.74C-26.0534 795.25 81.0087 526.138 239.211 332.845L239.212 332.844C302.004 256.126 321.638 183.393 330.454 109.23C334.064 78.869 335.204 58.2511 336.658 31.9847C337.567 15.5471 338.599 -3.10286 340.435 -27.7371C342.305 -52.8305 345.59 -89.485 353.61 -127.905ZM678.219 989.073C678.234 989.06 678.482 989.256 678.919 989.696C678.422 989.306 678.204 989.085 678.219 989.073ZM680.559 991.666C680.899 992.177 681.028 992.491 681.008 992.52C680.988 992.549 680.818 992.293 680.559 991.666Z" fill="white"/>
</svg>
