<svg width="482" height="348" viewBox="0 0 482 348" fill="none" xmlns="http://www.w3.org/2000/svg">
<path d="M442.014 341.907C422.893 335.943 401.717 325.468 384.782 310.169C364.412 291.785 353.824 269.227 354.136 244.957C354.475 218.872 364.62 195.483 374.454 172.847C380.827 158.145 386.863 144.246 389.568 130.867C392.976 113.987 393.393 92.9579 384.261 84.5826C377.706 78.567 368.731 80.9006 355.879 89.0425C355.333 102.033 353.642 116.243 351.561 128.689C348.127 149.251 340.01 186.978 324.219 208.552C313.423 223.306 301.873 226.21 294.121 226.08C279.63 225.795 268.964 218.405 264.88 205.829C259.651 189.753 265.973 164.731 283.637 131.463C294.589 110.849 311.524 84.9456 321.28 77.6076L322.659 76.5704C323.881 75.6369 325.156 74.6776 326.457 73.7182C326.249 70.1399 325.858 67.5729 325.364 66.1467C318.392 45.8439 308.168 33.9682 297.32 33.5274C285.328 33.0607 264.932 47.1145 247.008 88.3165C245.083 92.7764 242.507 102.37 239.776 112.561C229.604 150.625 216.909 197.998 186.706 205.933C172.632 209.641 158.298 204.195 144.12 189.805C132.725 178.24 126.898 161.827 126.82 141.057C126.768 128.066 128.953 113.364 133.454 96.1213C135.093 89.7945 138.995 81.9897 143.938 72.0846C147.996 63.9427 152.601 54.7378 155.67 46.57C159.13 37.3909 159.13 33.5274 159.026 32.4643C157.491 30.2862 156.425 29.5602 156.087 29.3528C154.89 29.5861 150.259 31.842 143.808 40.6062C137.642 48.9814 133.766 57.8752 132.751 61.5054C131.347 66.5875 130.28 73.4589 129.161 80.6932C125.701 102.993 121.799 128.248 103.745 140.616C94.6399 146.839 83.6097 148.629 70.9666 145.906C55.4358 142.561 44.9519 136.079 38.8645 126.044C29.2911 110.279 34.442 91.6095 38.9685 75.1183C41.596 65.5504 44.3275 55.7231 43.5211 48.9036C38.8124 56.7084 32.751 70.451 28.0684 85.8272L-0.00146484 77.3224C0.909049 74.3664 5.72177 58.8865 12.6417 44.5475C19.2494 30.8307 28.7968 14.9619 44.0414 13.9766C51.5076 13.5098 61.9655 16.4139 69.4317 33.0088C76.7158 49.1888 71.773 67.0802 67.4026 82.8713C64.4369 93.632 61.055 105.845 64.0727 110.823C65.6856 113.468 70.3422 115.724 77.2361 117.202C83.8959 118.628 86.3153 116.969 87.1217 116.424C94.692 111.238 97.8398 90.9872 100.129 76.1815C101.378 68.0655 102.574 60.4163 104.421 53.7265C106.763 45.2216 112.642 33.6571 119.406 24.2187C129.5 10.1909 140.296 2.17863 151.56 0.363567C158.818 -0.803261 172.658 -0.206881 183.974 16.8029C195.629 34.3312 182.179 61.3239 170.317 85.1272C166.805 92.1541 162.85 100.114 161.966 103.485C153.407 136.286 154.474 158.43 165.14 169.268C171.019 175.232 176.3 178.344 179.24 177.566C180.488 177.229 187.148 174.584 195.811 154.255C202.263 139.164 207.31 120.21 211.394 104.963C214.672 92.7245 217.247 83.0787 220.057 76.6223C240.556 29.4565 269.146 3.06024 298.465 4.20114C312.357 4.74566 337.929 12.2911 353.174 56.6047C353.226 56.7343 353.278 56.8899 353.33 57.0455C354.501 56.5269 355.671 56.0342 356.868 55.5934C379.761 46.8552 395.24 54.8155 404.189 63.0093C425.573 82.6379 422.269 117.591 418.419 136.675C415.089 153.062 408.169 169.035 401.457 184.489C392.378 205.362 383.819 225.095 383.559 245.32C383.351 261.163 390.427 275.683 404.553 288.44C429.033 310.558 466.416 319.945 478.773 318.571L482.025 347.715C472.555 348.778 458.013 346.911 442.04 341.907H442.014ZM322.711 122.829C318.028 130.141 312.903 138.801 308.038 148.214C292.378 178.551 291.649 193.02 292.768 196.572C293.132 196.65 293.756 196.754 294.693 196.78C294.693 196.78 297.763 196.002 302.679 187.964C310.744 174.74 318.184 150.521 322.711 122.855V122.829Z" fill="white"/>
</svg>
