<svg width="250" height="307" viewBox="0 0 250 307" fill="none" xmlns="http://www.w3.org/2000/svg">
<path d="M76.3161 336.75C85.6913 326.568 94.7338 312.971 99.5692 297.945C105.391 279.883 103.914 262.696 95.3238 248.248C86.0892 232.721 71.9203 222.198 58.1986 212.019C49.2943 205.403 40.8708 199.152 34.6192 192.063C26.7352 183.116 19.2046 170.648 21.7679 162.471C23.6072 156.598 29.7852 154.897 40.2935 155.341C45.1185 162.944 51.0505 170.881 56.6053 177.627C65.7798 188.773 83.6997 208.596 100.618 216.08C112.186 221.199 120.102 218.951 124.696 216.195C133.267 211.019 137.089 202.902 135.179 193.949C132.74 182.501 120.294 169.678 98.206 155.828C84.5153 147.248 65.413 137.562 57.0353 136.531L55.8512 136.385C54.7964 136.248 53.7016 136.113 52.5911 135.987C51.4766 133.769 50.8212 132.094 50.6231 131.068C47.7644 116.484 49.7692 105.829 56.1072 101.818C63.121 97.3951 80.1902 98.7785 105.181 117.298C107.877 119.307 112.74 124.172 117.903 129.34C137.169 148.655 161.169 172.682 181.987 167.007C191.691 164.369 198.382 156.152 201.882 142.624C204.695 131.752 202.498 119.895 195.353 107.412C190.886 99.6024 184.488 91.5398 175.824 82.7529C172.653 79.5246 167.616 76.1916 161.229 71.9585C155.981 68.4773 150.039 64.5472 145.374 60.709C140.126 56.3991 138.788 54.082 138.482 53.4084C138.646 51.5719 139.033 50.7681 139.163 50.5268C139.96 50.2534 143.512 50.0068 150.407 53.0345C156.996 55.9277 162.394 59.9228 164.258 61.7495C166.859 64.3122 169.876 68.0649 173.051 72.0172C182.842 84.196 193.922 97.9949 209.007 99.1762C216.609 99.7633 223.828 97.0261 230.45 91.0258C238.584 83.6548 242.612 76.1455 242.78 68.0244C243.049 55.2623 233.502 45.8448 225.084 37.5179C220.199 32.6871 215.161 27.7368 213.283 23.3683C218.802 26.4226 227.188 32.5709 235.313 40.1752L249.163 25.3781C247.595 23.9198 239.355 16.2982 230.25 10.0888C221.547 4.14479 210.339 -2.07451 200.877 2.60058C196.249 4.89975 190.997 10.254 192.276 22.7859C193.521 35.006 202.673 44.0289 210.756 51.9898C216.256 57.4191 222.509 63.5754 222.427 67.6037C222.378 69.7471 220.373 72.7086 216.76 75.9764C213.269 79.1322 211.247 78.9727 210.576 78.9247C204.251 78.4295 195.355 67.3714 188.859 59.2825C185.301 54.8463 181.937 50.6721 178.515 47.2979C174.169 43.0059 166.647 38.101 159.332 34.7769C148.436 29.8504 139.202 28.7745 131.834 31.577C127.087 33.3844 119.013 38.5229 118.132 52.6335C117.229 67.172 134.622 78.7148 149.962 88.8929C154.497 91.8941 159.619 95.3024 161.315 97.0185C177.794 113.734 184.823 127.383 182.195 137.568C180.742 143.176 178.66 146.866 176.632 147.415C175.768 147.644 170.867 148.359 158.645 139.159C149.56 132.337 139.977 122.712 132.254 114.979C126.055 108.771 121.174 103.876 117.257 100.974C88.6602 79.7679 62.4143 73.8129 45.2677 84.6248C37.1446 89.7501 24.457 103.109 30.6802 134.952C30.6939 135.048 30.7167 135.159 30.7394 135.27C29.8594 135.364 28.9884 135.473 28.1198 135.622C11.3969 138.289 4.89222 148.41 2.37509 156.416C-3.62254 175.575 10.4572 195.396 19.3689 205.512C27.0356 214.19 36.7066 221.379 46.0735 228.329C58.7333 237.712 70.6868 246.589 77.8456 258.63C83.456 268.059 84.2503 279.212 80.216 291.743C73.228 313.464 54.1115 332.007 46.2423 335.452L54.3885 354.055C60.4222 351.421 68.4765 345.278 76.3005 336.759L76.3161 336.75ZM71.8377 164.147C77.1713 166.915 83.2364 170.338 89.4062 174.303C109.281 187.088 114.727 195.514 115.288 198.031C115.097 198.203 114.759 198.481 114.208 198.82C114.208 198.82 112.102 199.414 106.377 196.292C96.9724 191.146 84.135 179.192 71.8466 164.162L71.8377 164.147Z" fill="white"/>
</svg>
