<svg width="758" height="353" viewBox="0 0 758 353" fill="none" xmlns="http://www.w3.org/2000/svg">
<path d="M720.575 -19.0925C698.715 1.0626 669.53 20.5111 637.292 30.9283C598.539 43.47 561.678 40.3379 530.708 21.9223C497.424 2.12604 474.887 -28.2772 453.084 -57.721C438.914 -76.8274 425.526 -94.9024 410.333 -108.312C391.162 -125.222 364.436 -141.366 346.891 -135.843C334.292 -131.88 330.63 -118.61 331.558 -96.0447C347.854 -85.7001 364.866 -72.9794 379.322 -61.0657C403.208 -41.389 445.686 -2.95133 461.7 33.3622C472.655 58.1927 467.815 75.1976 461.894 85.0678C450.772 103.485 433.355 111.712 414.156 107.628C389.607 102.418 362.131 75.7188 332.473 28.3173C314.101 -1.06341 293.369 -42.0626 291.176 -60.0509L290.866 -62.5933C290.574 -64.8581 290.287 -67.2089 290.019 -69.5933C285.264 -71.9816 281.674 -73.3854 279.474 -73.8084C248.198 -79.9149 225.342 -75.5859 216.723 -61.9667C207.221 -46.8952 210.151 -10.2433 249.816 43.3819C254.121 49.1671 264.543 59.5991 275.616 70.6745C317.002 112.004 368.483 163.488 356.265 208.206C350.586 229.052 332.946 243.438 303.921 250.984C280.597 257.049 255.17 252.358 228.411 237.042C211.671 227.467 194.392 213.745 175.565 195.16C168.648 188.357 161.51 177.548 152.445 163.841C144.99 152.581 136.574 139.829 128.352 129.82C119.119 118.558 114.152 115.691 112.709 115.035C108.769 115.392 107.044 116.224 106.526 116.505C105.938 118.217 105.401 125.844 111.88 140.644C118.071 154.787 126.628 166.371 130.541 170.37C136.032 175.948 144.075 182.42 152.545 189.227C178.645 210.227 208.217 233.989 210.717 266.38C211.959 282.705 206.072 298.213 193.188 312.446C177.36 329.93 161.244 338.597 143.825 338.975C116.452 339.581 96.2739 319.101 78.4326 301.042C68.0822 290.562 57.4757 279.756 48.11 275.731C54.6489 287.578 67.8174 305.571 84.1094 323.004L52.3409 352.778C49.2165 349.413 32.8877 331.736 19.5897 312.197C6.85997 293.52 -6.4546 269.468 3.59387 249.138C8.53558 239.193 20.0314 227.904 46.9076 230.623C73.1152 233.268 92.4477 252.902 109.505 270.241C121.138 282.041 134.328 295.454 142.968 295.269C147.566 295.159 153.922 290.847 160.939 283.081C167.716 275.578 167.378 271.236 167.277 269.795C166.229 256.213 142.53 237.135 125.195 223.203C115.688 215.573 106.743 208.357 99.5132 201.017C90.3171 191.695 79.8136 175.552 72.7 159.851C62.1577 136.463 59.8705 116.636 65.898 100.807C69.7852 90.6104 80.8244 73.2605 111.092 71.3375C142.277 69.3647 166.996 106.691 188.792 139.609C195.219 149.34 202.518 160.332 206.195 163.971C242.011 199.32 271.271 214.385 293.122 208.718C305.153 205.586 313.073 201.106 314.255 196.75C314.748 194.894 316.291 184.369 296.586 158.143C281.974 138.648 261.352 118.091 244.783 101.523C231.482 88.2252 220.993 77.7548 214.778 69.3505C169.357 7.98769 156.642 -48.3603 179.871 -85.2055C190.882 -102.661 219.563 -129.936 287.848 -116.643C288.053 -116.614 288.292 -116.565 288.531 -116.517C288.733 -118.407 288.968 -120.277 289.29 -122.143C295.048 -158.06 316.771 -172.051 333.947 -177.474C375.054 -190.396 417.537 -160.205 439.214 -141.09C457.81 -124.646 473.209 -103.894 488.095 -83.795C508.19 -56.6298 527.206 -30.9804 553.014 -15.634C573.227 -3.60717 597.147 -1.92627 624.033 -10.6177C670.637 -25.6721 710.452 -66.7649 717.857 -83.671L757.739 -66.2191C752.078 -53.2562 738.884 -35.9465 720.594 -19.126L720.575 -19.0925ZM350.375 -28.3253C356.3 -16.8779 363.63 -3.86121 372.119 9.37922C399.497 52.0307 417.558 63.7064 422.955 64.905C423.325 64.4945 423.922 63.7688 424.65 62.584C424.65 62.584 425.929 58.0602 419.244 45.7729C408.229 25.5897 382.617 -1.95125 350.408 -28.3061L350.375 -28.3253Z" fill="white"/>
</svg>
