<svg width="1158" height="998" viewBox="0 0 1158 998" fill="none" xmlns="http://www.w3.org/2000/svg">
<path opacity="0.15" fill-rule="evenodd" clip-rule="evenodd" d="M1236.91 -64.0355C1268.42 -84.662 1323.26 -116.298 1395.93 -130.58L1526.4 533.292C1574.04 523.93 1603.06 504.923 1607.35 502.11L1607.46 502.038C1609.28 500.846 1610.31 500.096 1610.32 500.107C1610.33 500.126 1606.81 502.779 1598.29 510.118C1594.74 513.176 1588.99 518.294 1581.62 524.863C1556.37 547.351 1512.04 586.834 1471.44 618.811C1347.08 716.746 1162.92 827.594 897.421 854.097L863.852 517.818L897.421 854.097C846.775 859.153 798.302 873.373 758.25 893.121C717.48 913.223 693.879 934.744 682.952 948.703C679.556 953.041 677.785 956.022 676.911 957.781C678.007 963.636 682.797 980.027 702.272 1007.86L147.925 1395.74C52.6584 1259.58 -2.70715 1106.07 0.20725 944.293C3.12122 782.538 63.8203 642.009 150.197 531.665C315.675 320.271 581.67 205.684 830.214 180.872L830.216 180.872C928.865 171.024 994.178 133.478 1052.85 87.271C1076.87 68.3545 1092.26 54.5821 1111.86 37.0366C1124.13 26.0565 1138.04 13.5987 1156.76 -2.52217C1175.83 -18.9436 1204.07 -42.5393 1236.91 -64.0355ZM676.617 955.32C676.636 955.322 676.674 955.635 676.671 956.256C676.596 955.629 676.597 955.318 676.617 955.32ZM676.438 958.809C676.317 959.41 676.187 959.724 676.152 959.73C676.117 959.737 676.178 959.436 676.438 958.809Z" fill="white"/>
</svg>

