<svg width="1140" height="861" viewBox="0 0 1140 861" fill="none" xmlns="http://www.w3.org/2000/svg">
<path opacity="0.15" fill-rule="evenodd" clip-rule="evenodd" d="M870.595 71.3774C766.68 171.406 657.109 240.299 527.76 297.85L390.244 -11.223L527.76 297.851C322.888 389.004 120.266 416.897 -37.1104 430.973C-74.8066 434.345 -129.413 438.27 -174.916 441.54C-203.862 443.621 -229.124 445.437 -244.004 446.677C-303.997 451.677 -338.49 456.765 -359.683 462.119C-427.768 479.321 -531.458 536.725 -652.324 627.754C-765.727 713.162 -864.375 804.924 -923.531 860.323L-1386 366.49C-1325.49 309.827 -1204.11 196.334 -1059.35 87.3135C-922.062 -16.0861 -729.474 -142.284 -525.41 -193.841C-447.517 -213.52 -366.837 -222.003 -300.192 -227.557C-259.008 -230.989 -230.25 -232.938 -202.851 -234.796C-171.459 -236.924 -141.852 -238.931 -97.3848 -242.908C35.15 -254.762 149.836 -274.517 252.728 -320.296C322.483 -351.333 363.017 -379.122 401.388 -416.059C445.698 -458.711 496.725 -522.792 577.514 -643L1139.05 -265.605C1052.01 -136.099 968.571 -22.9344 870.595 71.3774Z" fill="white"/>
</svg>
