<svg width="386" height="170" viewBox="0 0 386 170" fill="none" xmlns="http://www.w3.org/2000/svg">
<path d="M26.5004 162.506C40.0872 165.144 56.4073 165.706 71.7352 161.938C90.1656 157.415 104.021 147.14 111.813 132.246C120.185 116.236 121.707 98.6534 123.172 81.6311C124.131 70.5797 125.032 60.1291 127.787 51.087C131.266 39.6811 137.928 26.728 146.234 24.619C152.198 23.1032 156.888 27.4699 162.024 36.648C158.084 44.7447 154.44 53.9597 151.612 62.2281C146.939 75.8867 139.467 101.543 141.974 119.872C143.687 132.406 149.755 137.965 154.511 140.429C163.415 145.009 172.33 144.004 178.949 137.679C187.415 129.597 191.799 112.272 191.999 86.202C192.119 70.0454 190.34 48.702 186.821 41.0293L186.324 39.9448C185.888 38.9748 185.428 37.9719 184.953 36.9605C186.256 34.8479 187.337 33.4114 188.107 32.7043C199.022 22.6175 209.144 18.7335 215.885 22.0236C223.33 25.6734 231.109 40.9297 228.458 71.9214C228.162 75.2711 226.573 81.9632 224.883 89.07C218.55 115.606 210.691 148.644 226.446 163.388C233.784 170.265 244.29 171.648 257.642 167.529C268.373 164.218 277.314 156.127 284.191 143.494C288.495 135.593 292.001 125.916 294.934 113.93C296.018 109.536 296.212 103.499 296.464 95.8411C296.674 89.5475 296.902 82.4267 297.721 76.4416C298.636 69.7122 299.906 67.3575 300.319 66.7437C301.969 65.9197 302.856 65.8271 303.13 65.8116C303.781 66.3465 305.854 69.2404 306.895 76.6985C307.889 83.8256 307.322 90.5177 306.745 93.0631C305.928 96.6214 304.317 101.159 302.618 105.935C297.388 120.661 291.456 137.334 298.366 150.795C301.856 157.575 307.974 162.284 316.556 164.772C327.099 167.828 335.605 167.317 342.606 163.198C353.611 156.73 356.619 143.662 359.29 132.126C360.838 125.432 362.409 118.547 365.142 114.655C365.439 120.957 364.605 131.321 362.396 142.228L382.259 146.253C382.678 144.153 384.842 133.14 385.35 122.13C385.843 111.603 385.256 98.7988 376.311 93.1972C371.925 90.4634 364.612 88.8027 354.615 96.4675C344.865 103.939 341.987 116.465 339.452 127.523C337.716 135.054 335.757 143.607 332.285 145.651C330.434 146.734 326.861 146.582 322.183 145.221C317.665 143.905 316.74 142.1 316.429 141.504C313.531 135.86 318.277 122.484 321.753 112.71C323.663 107.354 325.451 102.299 326.528 97.6158C327.901 91.6642 328.129 82.6872 327.12 74.7159C325.596 62.8549 321.667 54.43 315.415 49.6284C311.385 46.5362 302.774 42.3595 290.3 49.0141C277.45 55.8738 276.751 76.7374 276.137 95.1365C275.961 100.571 275.748 106.72 275.177 109.065C269.595 131.864 261.664 145.01 251.615 148.117C246.079 149.823 241.845 149.987 240.314 148.548C239.665 147.933 236.486 144.136 237.903 128.905C238.943 117.591 242.108 104.383 244.638 93.7505C246.67 85.216 248.276 78.4922 248.691 73.6355C251.737 38.1642 243.034 12.6972 224.832 3.77447C216.207 -0.450944 198.177 -4.24132 174.336 17.7656C174.262 17.8275 174.179 17.9053 174.096 17.983C173.555 17.2829 173.005 16.5986 172.422 15.9374C161.377 3.10152 149.348 2.87528 141.212 4.93336C121.755 9.88138 112.27 32.2682 108.336 45.1625C104.971 56.2426 103.926 68.2476 102.925 79.8683C101.581 95.5684 100.297 110.403 93.8039 122.815C88.7206 132.539 79.6434 139.067 66.8594 142.208C44.702 147.658 18.8858 141.115 11.8245 136.224L0.263312 152.92C5.67121 156.674 15.127 160.307 26.4845 162.497L26.5004 162.506ZM171.081 68.121C171.523 74.1137 171.791 81.0733 171.654 88.4058C171.2 112.033 166.885 121.091 165.037 122.889C164.79 122.817 164.376 122.675 163.798 122.384C163.798 122.384 162.187 120.902 161.841 114.39C161.286 103.685 164.727 86.484 171.072 68.1368L171.081 68.121Z" fill="white"/>
</svg>
