<svg width="474" height="450" viewBox="0 0 474 450" fill="none" xmlns="http://www.w3.org/2000/svg">
<path d="M64.7404 624.685C89.8664 608.787 116.206 585.63 134.612 557.187C156.756 522.999 163.271 486.584 153.499 451.904C142.992 414.63 119.457 384.991 96.6598 356.311C81.872 337.679 67.878 320.069 58.8578 301.923C47.4856 279.028 38.8092 249.035 48.6845 233.517C55.7735 222.372 69.5395 222.27 91.0951 229.007C96.8697 247.425 104.754 267.15 112.52 284.197C125.344 312.362 151.478 363.341 182.409 388.208C203.559 405.215 221.237 404.942 232.303 401.777C252.971 395.801 265.426 381.107 266.45 361.505C267.772 336.444 249.093 302.994 210.983 262.078C187.358 236.727 153.122 206.091 136.314 199.317L133.939 198.36C131.827 197.491 129.63 196.605 127.397 195.729C126.32 190.518 125.893 186.687 126.054 184.453C128.251 152.662 138.348 131.705 153.734 126.905C170.751 121.628 205.396 133.943 246.927 186.136C251.401 191.792 258.78 204.559 266.612 218.121C295.823 268.794 332.228 331.845 378.584 331.618C400.19 331.527 418.651 318.212 433.452 292.13C445.347 271.169 447.397 245.395 439.529 215.584C434.612 196.936 425.83 176.695 412.752 153.699C407.971 145.256 399.377 135.564 388.484 123.261C379.536 113.145 369.397 101.715 361.857 91.1828C353.369 79.3503 351.885 73.8104 351.625 72.2461C352.989 68.5332 354.24 67.0823 354.645 66.6549C356.451 66.5298 363.957 67.9853 376.576 78.0735C388.634 87.7139 397.609 98.9775 400.459 103.793C404.426 110.541 408.595 119.984 412.979 129.927C426.508 160.573 441.807 195.287 472.447 206.086C487.894 211.511 504.397 209.838 521.48 201.077C542.465 190.313 555.007 176.99 559.88 160.262C567.551 133.979 552.992 109.188 540.165 87.28C532.721 74.57 525.029 61.5281 523.565 51.4398C533.315 60.822 547.287 78.1987 559.909 98.4476L596.891 75.4676C594.45 71.5789 581.601 51.2313 566.169 33.3292C551.424 16.1995 531.637 -2.88664 509.399 1.55768C498.514 3.75705 484.634 11.9393 480.305 38.6034C476.076 64.6026 490.038 88.3581 502.372 109.322C510.759 123.612 520.301 139.825 517.886 148.123C516.59 152.535 510.779 157.559 501.462 162.327C492.46 166.931 488.354 165.481 486.988 165.01C474.141 160.482 461.846 132.654 452.875 112.303C447.966 101.145 443.311 90.637 438.093 81.7541C431.468 70.4585 418.594 56.1349 405.269 45.2C385.406 28.9635 366.847 21.6228 349.998 23.3481C339.142 24.4636 319.526 30.6362 309.835 59.3745C299.858 88.9863 329.514 122.524 355.67 152.097C363.406 160.824 372.134 170.719 374.697 175.213C399.572 218.958 406.551 251.119 395.421 270.759C389.282 281.569 382.905 288.06 378.391 288.074C376.471 288.07 365.906 286.837 345.673 261.016C330.624 241.856 316.105 216.616 304.39 196.323C294.988 180.033 287.589 167.191 281.08 159.013C233.564 99.258 182.426 72.3931 140.825 85.2936C121.114 91.4118 87.345 112.057 82.5116 181.455C82.4868 181.661 82.4719 181.904 82.4571 182.147C80.5792 181.853 78.7114 181.597 76.8261 181.424C40.6425 177.69 21.506 195.052 11.822 210.239C-11.2991 246.601 6.86778 295.451 19.7209 321.336C30.7919 343.555 46.8512 363.799 62.4129 383.38C83.4513 409.822 103.305 434.828 111.449 463.729C117.835 486.366 113.267 509.906 97.9135 533.626C71.3098 574.746 21.3125 602.569 3.06576 605.346L9.60072 648.386C23.5873 646.272 43.7221 638.008 64.7031 624.695L64.7404 624.685ZM151.637 264.71C161.161 273.395 171.837 283.845 182.429 295.472C216.541 332.956 223.145 353.423 222.905 358.946C222.413 359.198 221.558 359.586 220.225 359.983C220.225 359.983 215.524 360.047 205.386 350.41C188.741 334.547 168.768 302.679 151.647 264.747L151.637 264.71Z" fill="white"/>
</svg>
