<svg width="536" height="291" viewBox="0 0 536 291" fill="none" xmlns="http://www.w3.org/2000/svg">
<path d="M495.445 290.606C475.432 289.794 452.266 285.156 431.948 274.763C407.515 262.277 391.449 243.227 385.469 219.703C379.044 194.42 382.791 169.202 386.431 144.792C388.782 128.941 391.015 113.955 390.165 100.331C389.088 83.1437 384.047 62.7236 373.06 56.9971C365.17 52.8832 357.105 57.4602 346.799 68.6508C349.634 81.3403 351.678 95.5031 352.889 108.064C354.894 128.814 356.819 167.357 347.149 192.282C340.54 209.327 330.134 215.122 322.613 217.003C308.542 220.478 296.327 216.101 289.127 205.01C279.915 190.835 279.545 165.03 287.997 128.324C293.241 105.578 302.895 76.1735 310.419 66.5606L311.482 65.2019C312.422 63.9838 313.405 62.7271 314.413 61.4638C313.286 58.0613 312.244 55.6827 311.398 54.4331C299.409 36.6266 286.46 27.8016 275.867 30.1836C264.162 32.8367 248.099 51.6904 241.449 96.1276C240.744 100.934 240.74 110.867 240.739 121.417C240.765 160.817 240.764 209.862 213.644 225.343C201.009 232.568 185.754 231.018 168.334 220.787C154.335 212.565 144.458 198.22 139.007 178.178C135.595 165.643 133.9 150.877 133.785 133.056C133.73 126.521 135.479 117.972 137.69 107.125C139.503 98.2105 141.568 88.1274 142.419 79.4434C143.386 69.6816 142.386 65.9498 142.01 64.9498C139.964 63.2432 138.746 62.818 138.365 62.7051C137.27 63.2403 133.381 66.6178 129.417 76.7531C125.63 86.4387 124.187 96.0327 124.147 99.8017C124.105 105.074 124.854 111.988 125.645 119.265C128.075 141.7 130.842 167.105 116.604 183.724C109.42 192.092 99.2288 196.675 86.3119 197.318C70.4446 198.106 58.6401 194.558 50.1629 186.441C36.8354 173.691 36.9788 154.324 37.0829 137.224C37.1445 127.302 37.2395 117.102 34.6955 110.724C32.1673 119.481 29.8693 134.325 29.3259 150.389L0.0112462 149.439C0.125675 146.348 0.767905 130.15 3.74081 114.508C6.57324 99.5488 11.6881 81.7496 26.1583 76.8523C33.2493 74.4691 44.1025 74.5675 55.6094 88.6646C66.833 102.408 66.6892 120.969 66.5547 137.353C66.4752 148.515 66.3694 161.187 70.5728 165.215C72.8153 167.352 77.8971 168.326 84.9386 167.969C91.7406 167.623 93.648 165.394 94.286 164.659C100.256 157.69 98.0553 137.315 96.4346 122.421C95.5402 114.258 94.7163 106.56 94.769 99.6203C94.8293 90.7992 97.5152 78.107 101.606 67.2397C107.725 51.0774 116.079 40.5439 126.49 35.8753C133.199 32.8697 146.721 29.8637 162.055 43.365C177.849 57.2797 171.844 86.8336 166.546 112.896C164.972 120.592 163.213 129.305 163.231 132.79C163.453 166.688 170.215 187.802 183.323 195.51C190.545 199.749 196.452 201.388 199.09 199.876C200.209 199.227 205.957 194.948 209.063 173.07C211.389 156.824 211.358 137.209 211.357 121.425C211.356 108.755 211.347 98.7709 212.39 91.8073C219.984 40.943 240.768 8.04648 269.383 1.5603C282.942 -1.5092 309.596 -0.839454 335.79 38.0185C335.874 38.1303 335.965 38.2671 336.055 38.4039C337.052 37.6 338.055 36.8212 339.097 36.0857C358.948 21.72 375.96 25.403 386.724 31.0013C412.46 44.4265 418.315 79.0436 419.536 98.474C420.561 115.165 418.011 132.384 415.527 149.049C412.16 171.561 409 192.836 413.983 212.439C417.883 227.796 428.476 239.99 445.422 248.657C474.792 263.685 513.331 263.076 524.911 258.551L535.595 285.861C526.724 289.339 512.194 291.299 495.47 290.599L495.445 290.606ZM323.505 109.87C320.875 118.145 318.166 127.837 315.903 138.188C308.628 171.545 311.669 185.709 313.669 188.851C314.041 188.832 314.671 188.77 315.582 188.553C315.582 188.553 318.346 187.007 321.015 177.97C325.382 163.11 326.3 137.791 323.512 109.895L323.505 109.87Z" fill="white"/>
</svg>
