<svg width="842" height="998" viewBox="0 0 842 998" fill="none" xmlns="http://www.w3.org/2000/svg">
<path opacity="0.15" fill-rule="evenodd" clip-rule="evenodd" d="M824.652 -120.811C804.39 -2.91529 765.048 96.9605 706.918 198.979L463.15 60.0807L706.918 198.979C614.848 360.563 493.19 478.779 394.97 565.527C371.444 586.306 336.892 615.766 308.1 640.313C289.785 655.93 273.8 669.558 264.469 677.699C226.846 710.524 206.304 730.875 194.776 744.868C157.745 789.821 116.685 879.131 80.6756 999.346C46.8898 1112.14 26.0833 1221.92 13.7898 1288.01L-537.872 1185.38C-525.298 1117.79 -499.981 982.309 -456.855 838.334C-415.952 701.782 -349.311 522.823 -238.321 388.09C-195.954 336.661 -146.224 291.343 -104.43 254.878C-78.6027 232.345 -60.3484 216.909 -42.9567 202.203C-23.0308 185.354 -4.23732 169.462 23.515 144.951C106.231 71.8952 173.141 2.33415 219.381 -78.8174C250.729 -133.834 264.151 -172.32 271.633 -215.855C280.273 -266.126 282.868 -334.015 277.764 -454.026L838.384 -477.874C843.883 -348.579 843.756 -231.97 824.652 -120.811Z" fill="white"/>
</svg>
