<svg width="1161" height="998" viewBox="0 0 1161 998" fill="none" xmlns="http://www.w3.org/2000/svg">
<path opacity="0.15" fill-rule="evenodd" clip-rule="evenodd" d="M1322.05 -143.091C1355.71 -165.034 1414.27 -198.677 1491.81 -213.774L1629.73 494.63C1680.57 484.733 1711.55 464.513 1716.14 461.521L1716.26 461.444C1718.2 460.176 1719.3 459.378 1719.31 459.389C1719.32 459.41 1715.56 462.233 1706.46 470.046C1702.67 473.301 1696.53 478.75 1688.65 485.743C1661.67 509.683 1614.31 551.717 1570.94 585.749C1438.1 689.982 1241.44 807.877 958.187 835.646L923.014 476.871L958.187 835.646C904.153 840.943 852.42 856.021 809.659 877.01C766.131 898.376 740.915 921.288 729.233 936.157C725.603 940.778 723.707 943.955 722.771 945.829C723.93 952.078 729.009 969.571 749.73 999.298L157.672 1412C56.3071 1266.58 -2.46162 1102.73 0.952902 930.163C4.36692 757.623 69.3806 607.835 161.727 490.294C338.644 265.111 622.599 143.383 887.77 117.385L887.772 117.385C993.02 107.067 1062.76 67.139 1125.44 17.961C1151.1 -2.17192 1167.53 -16.834 1188.48 -35.5129C1201.58 -47.2022 1216.45 -60.4647 1236.45 -77.6256C1256.81 -95.1064 1286.98 -120.223 1322.05 -143.091ZM722.463 943.204C722.483 943.206 722.523 943.541 722.519 944.203C722.44 943.533 722.442 943.202 722.463 943.204ZM722.265 946.925C722.135 947.566 721.996 947.901 721.959 947.907C721.921 947.914 721.987 947.594 722.265 946.925Z" fill="white"/>
</svg>
