<svg width="542" height="471" viewBox="0 0 542 471" fill="none" xmlns="http://www.w3.org/2000/svg">
<path d="M-221.99 238.81C-196.601 223.335 -164.167 209.991 -130.511 206.102C-90.0502 201.409 -54.521 211.712 -27.7665 235.847C0.986173 261.789 17.1201 296.023 32.7216 329.173C42.8674 350.688 52.4484 371.039 64.7146 387.168C80.1955 407.512 103.234 428.586 121.521 426.613C134.654 425.199 140.848 412.905 144.365 390.597C130.416 377.256 116.231 361.444 104.393 346.926C84.8324 322.945 50.7222 276.92 42.1448 238.17C36.2755 211.673 44.3578 195.948 52.1002 187.431C66.6196 171.555 85.3126 166.905 103.337 174.676C126.387 184.602 148.09 216.174 167.87 268.473C180.12 300.887 192.404 345.157 191.025 363.226L190.83 365.78C190.672 368.058 190.493 370.42 190.288 372.81C194.481 376.085 197.726 378.166 199.8 379.013C229.27 391.137 252.531 391.377 263.655 379.714C275.929 366.8 280.248 330.286 251.876 269.92C248.79 263.402 240.618 251.128 231.933 238.095C199.461 189.448 159.083 128.864 179.838 87.4126C189.497 68.0865 209.617 57.4411 239.557 55.7371C263.619 54.3667 287.63 63.9557 310.864 84.2243C325.4 96.898 339.65 113.744 354.465 135.661C359.913 143.689 364.791 155.689 370.99 170.908C376.091 183.412 381.841 197.568 387.94 208.996C394.783 221.849 399.091 225.636 400.378 226.562C404.311 226.985 406.166 226.507 406.728 226.334C407.641 224.771 409.664 217.397 406.215 201.614C402.92 186.531 396.802 173.493 393.749 168.804C389.46 162.257 382.844 154.333 375.874 145.996C354.402 120.283 330.067 91.1801 333.971 58.9283C335.956 42.6772 344.772 28.6254 360.198 17.197C379.149 3.15884 396.652 -2.17725 413.806 0.870156C440.767 5.64702 456.534 29.6873 470.485 50.8968C478.578 63.2037 486.858 75.8807 495.252 81.6651C491.165 68.7658 481.782 48.5387 469.228 28.248L506.221 5.28627C508.624 9.19852 521.167 29.736 530.373 51.5047C539.191 72.3155 547.527 98.5131 533.685 116.476C526.888 125.258 513.4 134.072 487.58 126.133C462.401 118.397 447.297 95.3509 433.973 75.0016C424.882 61.1486 414.58 45.4085 406.071 43.8939C401.541 43.1001 394.462 46.0813 386.058 52.3192C377.941 58.347 377.42 62.6709 377.237 64.1037C375.6 77.6269 395.094 100.984 409.358 118.047C417.183 127.394 424.539 136.225 430.188 144.841C437.376 155.786 444.508 173.676 448.402 190.467C454.151 215.47 452.503 235.36 443.487 249.698C437.674 258.934 423.445 273.781 393.389 269.727C362.423 265.543 345.509 224.092 330.595 187.537C326.202 176.734 321.202 164.524 318.311 160.234C290.127 118.544 264.392 98.0307 241.854 99.3005C229.442 100.011 220.797 102.849 218.783 106.889C217.935 108.612 214.357 118.63 228.533 148.212C239.036 170.196 255.223 194.4 268.22 213.896C278.653 229.546 286.884 241.871 291.329 251.331C323.827 320.413 325.237 378.161 295.231 409.732C281.009 424.687 247.533 445.805 183.184 419.372C182.989 419.303 182.764 419.208 182.54 419.114C181.97 420.927 181.372 422.715 180.691 424.482C167.997 458.571 143.952 468.027 126.045 469.975C83.2018 474.58 47.4682 436.64 29.9634 413.643C14.9554 393.87 3.92834 370.5 -6.72439 347.87C-21.0993 317.29 -34.7121 288.408 -57.0074 268.296C-74.4679 252.537 -97.5928 246.195 -125.661 249.442C-174.314 255.06 -221.418 287.541 -231.996 302.666L-267.679 277.728C-259.584 266.128 -243.25 251.743 -222.015 238.839L-221.99 238.81ZM139.202 320.502C135.639 308.114 131.005 293.913 125.279 279.264C106.802 232.069 91.3835 217.077 86.3264 214.843C85.8827 215.172 85.1551 215.767 84.2084 216.786C84.2084 216.786 82.0671 220.971 86.2107 234.331C93.0513 256.283 112.762 288.314 139.173 320.476L139.202 320.502Z" fill="white"/>
</svg>
