<svg width="443" height="290" viewBox="0 0 443 290" fill="none" xmlns="http://www.w3.org/2000/svg">
<path d="M38.3199 -56.5884C56.1788 -49.5937 75.6944 -38.1498 90.8322 -22.3871C109.041 -3.44393 117.622 18.8227 115.676 41.9838C113.582 66.8768 102.303 88.5281 91.3731 109.482C84.2869 123.093 77.5783 135.958 74.0855 148.555C69.6842 164.447 67.8588 184.505 76.012 193.125C81.8655 199.316 90.5968 197.696 103.425 190.792C104.829 178.421 107.409 164.963 110.242 153.216C114.918 133.808 125.232 98.3229 141.78 78.7886C153.094 65.4289 164.324 63.4393 171.721 64.0895C185.542 65.3458 195.228 73.1287 198.276 85.4182C202.179 101.129 194.441 124.6 175.31 155.178C163.449 174.124 145.514 197.717 135.697 204.064L134.31 204.961C133.079 205.769 131.796 206.599 130.488 207.427C130.444 210.859 130.643 213.338 131.018 214.733C136.299 234.6 145.258 246.637 155.59 247.795C167.014 249.055 187.449 237.016 207.368 198.878C209.509 194.748 212.621 185.759 215.922 176.211C228.222 140.543 243.565 96.1552 272.953 90.6271C286.648 88.041 299.97 94.2154 312.536 108.924C322.634 120.744 327.086 136.817 325.75 156.661C324.918 169.073 321.832 182.968 316.363 199.133C314.367 205.065 310.11 212.255 304.716 221.38C300.287 228.882 295.264 237.362 291.777 244.955C287.849 253.488 287.587 257.178 287.614 258.201C288.932 260.385 289.902 261.151 290.211 261.372C291.369 261.231 295.946 259.39 302.703 251.457C309.161 243.876 313.467 235.644 314.683 232.245C316.37 227.486 317.855 220.995 319.415 214.161C324.234 193.096 329.676 169.237 347.761 158.649C356.881 153.323 367.538 152.363 379.43 155.822C394.037 160.072 403.611 166.976 408.744 176.974C416.818 192.682 410.631 210.165 405.187 225.61C402.028 234.571 398.751 243.772 399.059 250.341C404.086 243.205 410.809 230.49 416.326 216.121L442.56 226.151C441.49 228.912 435.842 243.372 428.258 256.598C421.015 269.252 410.818 283.761 396.19 283.667C389.027 283.606 379.235 280.122 373.23 263.764C367.371 247.814 373.307 231.061 378.554 216.274C382.117 206.197 386.177 194.761 383.632 189.801C382.271 187.165 377.977 184.694 371.492 182.814C365.228 181 362.804 182.421 361.997 182.886C354.414 187.325 350.032 206.455 346.84 220.442C345.096 228.109 343.434 235.334 341.215 241.599C338.401 249.564 332 260.211 324.899 268.767C314.305 281.481 303.449 288.401 292.566 289.37C285.554 289.991 272.375 288.482 262.721 271.466C252.778 253.932 267.458 229.062 280.405 207.131C284.237 200.658 288.555 193.323 289.628 190.163C300.031 159.413 300.515 138.19 291.063 127.113C285.852 121.017 281.019 117.686 278.159 118.23C276.943 118.467 270.402 120.541 260.747 139.37C253.56 153.347 247.452 171.109 242.516 185.395C238.554 196.863 235.439 205.901 232.317 211.878C209.534 255.538 180.433 278.81 152.505 275.729C139.273 274.266 115.359 265.322 103.807 221.96C103.766 221.832 103.727 221.68 103.687 221.528C102.534 221.944 101.382 222.335 100.209 222.675C77.7492 229.467 63.5047 220.812 55.5131 212.378C36.4202 192.177 41.9492 159.015 46.9227 141.048C51.216 125.621 58.9103 110.834 66.3706 96.5283C76.46 77.207 85.9751 58.9402 87.5969 39.6392C88.8714 24.5205 83.0985 10.1703 70.4718 -2.97444C48.5909 -25.7632 13.5206 -37.2673 1.62408 -36.7937L0.496904 -64.8531C9.61404 -65.2255 23.3777 -62.4549 38.2951 -56.5902L38.3199 -56.5884ZM137.401 160.772C142.37 154.106 147.854 146.181 153.139 137.521C170.158 109.606 171.836 95.8357 171.009 92.3666C170.667 92.2676 170.077 92.1262 169.184 92.0378C169.184 92.0378 166.199 92.5724 160.957 99.9164C152.356 112 143.605 134.628 137.403 160.747L137.401 160.772Z" fill="white"/>
</svg>
