<svg width="382" height="212" viewBox="0 0 382 212" fill="none" xmlns="http://www.w3.org/2000/svg">
<path d="M359.366 92.9133C347.105 86.4928 331.63 81.2777 315.865 80.4959C296.912 79.5475 280.693 85.4218 268.96 97.4592C256.352 110.398 249.855 126.808 243.574 142.696C239.488 153.009 235.631 162.764 230.401 170.637C223.799 180.568 213.705 191.069 205.143 190.71C198.995 190.453 195.753 184.926 193.462 174.661C199.556 168.032 205.689 160.248 210.767 153.136C219.158 141.39 233.668 118.95 236.518 100.671C238.469 88.1724 234.248 81.1077 230.398 77.384C223.179 70.4449 214.35 68.8531 206.196 73.0161C195.769 78.3341 186.605 93.6754 178.943 118.595C174.199 134.04 169.787 154.998 170.96 163.358L171.125 164.539C171.266 165.593 171.419 166.686 171.584 167.791C169.73 169.442 168.283 170.508 167.343 170.965C153.995 177.501 143.185 178.322 137.669 173.239C131.582 167.608 128.501 150.763 139.921 121.83C141.164 118.706 144.604 112.75 148.26 106.425C161.93 82.816 178.927 53.4159 168.057 34.7757C162.998 26.0846 153.329 21.7486 139.356 21.8694C128.126 21.9661 117.242 27.1568 107.033 37.2894C100.646 43.6254 94.5142 51.8924 88.269 62.5348C85.9715 66.4337 84.0559 72.1619 81.6201 79.427C79.6156 85.3965 77.3575 92.1536 74.8574 97.6529C72.0527 103.838 70.1608 105.73 69.5894 106.2C67.773 106.517 66.8964 106.351 66.6296 106.287C66.1593 105.588 65.0018 102.222 66.1418 94.7782C67.2311 87.6649 69.6928 81.4161 70.9748 79.1428C72.7772 75.9678 75.621 72.082 78.6171 67.9929C87.8467 55.3828 98.3077 41.1092 95.5446 26.2326C94.1439 18.7372 89.6316 12.4726 82.1219 7.62942C72.8968 1.68031 64.6009 -0.266934 56.7131 1.67315C44.3163 4.71642 37.6904 16.3749 31.8261 26.6618C28.4243 32.6308 24.9464 38.7775 21.213 41.723C22.7347 35.6008 26.5032 25.91 31.7452 16.0928L13.8678 6.54492C12.8651 8.43724 7.63581 18.3687 3.99462 28.7709C0.505669 38.7159 -2.60109 51.1508 4.36369 59.0806C7.78253 62.9566 14.3135 66.6434 26.0873 62.1644C37.569 57.7996 43.9156 46.6237 49.5133 36.7559C53.3339 30.0376 57.6623 22.405 61.5744 21.4413C63.6575 20.9341 67.037 22.1043 71.1286 24.7483C75.0804 27.3034 75.4497 29.2979 75.577 29.9585C76.7357 36.1963 68.3567 47.6507 62.2248 56.0194C58.8606 60.6037 55.6994 64.934 53.3258 69.1123C50.3048 74.4208 47.5139 82.9561 46.1963 90.8822C44.2579 102.683 45.6085 111.88 50.2225 118.272C53.1969 122.389 60.2499 128.858 74.1077 126.057C88.3847 123.167 95.0324 103.378 100.894 85.9268C102.619 80.7701 104.585 74.9402 105.804 72.8575C117.685 52.614 129.05 42.2914 139.568 42.1945C145.36 42.1462 149.464 43.2024 150.519 45.0194C150.964 45.7945 152.922 50.343 147.199 64.5298C142.961 75.0715 136.145 86.8188 130.674 96.2802C126.282 103.875 122.817 109.856 121.028 114.391C107.945 147.502 108.986 174.395 123.868 188.159C130.921 194.678 147.108 203.476 176.256 189.223C176.345 189.185 176.446 189.135 176.548 189.084C176.866 189.91 177.196 190.723 177.565 191.523C184.47 206.986 195.929 210.649 204.314 211.009C224.372 211.843 239.874 193.113 247.339 181.887C253.737 172.235 258.178 161.033 262.467 150.187C268.253 135.53 273.735 121.686 283.512 111.655C291.168 103.795 301.735 100.141 314.883 100.795C337.673 101.923 360.532 115.589 365.896 122.298L381.756 109.615C377.651 104.468 369.633 98.2785 359.379 92.926L359.366 92.9133ZM193.803 141.912C195.096 136.044 196.834 129.299 199.066 122.314C206.272 99.8069 213.001 92.3659 215.287 91.1728C215.503 91.3127 215.859 91.5669 216.329 92.0117C216.329 92.0117 217.448 93.8922 215.913 100.23C213.377 110.646 205.153 126.14 193.816 141.899L193.803 141.912Z" fill="white"/>
</svg>
