<svg width="1055" height="780" viewBox="0 0 1055 780" fill="none" xmlns="http://www.w3.org/2000/svg">
<path opacity="0.15" fill-rule="evenodd" clip-rule="evenodd" d="M67.4605 1237.72C46.8341 1269.23 15.1979 1324.07 0.915955 1396.74L664.788 1527.21C655.426 1574.85 636.419 1603.87 633.606 1608.16L633.534 1608.27C632.342 1610.09 631.592 1611.12 631.603 1611.13C631.622 1611.14 634.275 1607.62 641.614 1599.1C644.672 1595.55 649.79 1589.8 656.359 1582.43C678.847 1557.18 718.331 1512.85 750.307 1472.25C848.242 1347.89 959.09 1163.73 985.593 898.232L649.314 864.663L985.593 898.232C990.649 847.586 1004.87 799.114 1024.62 759.061C1044.72 718.291 1066.24 694.69 1080.2 683.763C1084.54 680.367 1087.52 678.596 1089.28 677.722C1095.13 678.819 1111.52 683.608 1139.36 703.083L1527.23 148.737C1391.08 53.4695 1237.57 -1.89606 1075.79 1.01833C914.034 3.9323 773.505 64.6314 663.161 151.008C451.767 316.486 337.18 582.481 312.368 831.026L312.368 831.027C302.52 929.676 264.974 994.989 218.767 1053.66C199.851 1077.68 186.078 1093.07 168.533 1112.67C157.553 1124.94 145.095 1138.85 128.974 1157.57C112.552 1176.64 88.9567 1204.88 67.4605 1237.72ZM1086.82 677.428C1086.82 677.447 1087.13 677.485 1087.75 677.482C1087.12 677.407 1086.81 677.409 1086.82 677.428ZM1090.3 677.249C1090.91 677.128 1091.22 676.998 1091.23 676.963C1091.23 676.928 1090.93 676.989 1090.3 677.249Z" fill="white"/>
</svg>
