<svg width="1111" height="1085" viewBox="0 0 1111 1085" fill="none" xmlns="http://www.w3.org/2000/svg">
<path opacity="0.15" fill-rule="evenodd" clip-rule="evenodd" d="M-629.024 598.029C-567.429 495.901 -494.654 417.428 -403.654 343.78L-227.672 561.194L-403.654 343.78C-259.522 227.132 -103.648 161.49 19.0417 116.566C48.4296 105.805 91.206 90.9834 126.85 78.6327C149.526 70.7758 169.315 63.9189 180.935 59.744C227.784 42.9112 254.245 31.4655 270.028 22.6532C320.728 -5.65657 391.265 -73.6953 468.325 -172.265C540.627 -264.747 599.784 -359.147 635.178 -416.052L1110.25 -120.626C1074.05 -62.4214 1001.38 54.2005 909.089 172.252C821.557 284.216 694.736 426.224 542.776 511.074C484.771 543.462 422.144 567.504 370.101 586.203C337.94 597.758 315.387 605.47 293.9 612.818C269.282 621.235 246.062 629.175 211.396 641.868C108.072 679.701 20.6959 720.024 -51.6908 778.607C-100.765 818.324 -127.194 849.193 -149.939 886.905C-176.203 930.454 -203.247 992.553 -242.051 1105.85L-771.333 924.619C-729.527 802.56 -687.098 694.321 -629.024 598.029Z" fill="white"/>
</svg>
